<?xml version="1.0" encoding="UTF-8"?>
<svg version="1.1" xmlns="http://www.w3.org/2000/svg" width="932" height="865">
<path d="M0 0 C1.66869141 -0.00193359 1.66869141 -0.00193359 3.37109375 -0.00390625 C4.53769531 -0.00003906 5.70429688 0.00382812 6.90625 0.0078125 C8.07285156 0.00394531 9.23945313 0.00007813 10.44140625 -0.00390625 C11.55386719 -0.00261719 12.66632813 -0.00132813 13.8125 0 C14.83666016 0.00112793 15.86082031 0.00225586 16.91601562 0.00341797 C19.40625 0.1328125 19.40625 0.1328125 21.40625 1.1328125 C22.37670898 3.02099609 22.37670898 3.02099609 23.40234375 5.53125 C23.78994873 6.47057373 24.17755371 7.40989746 24.5769043 8.37768555 C24.99496338 9.41062744 25.41302246 10.44356934 25.84375 11.5078125 C26.2869458 12.58780518 26.7301416 13.66779785 27.18676758 14.78051758 C28.59979172 18.22865352 30.00330238 21.68056623 31.40625 25.1328125 C32.26510938 27.23328382 33.12447274 29.33354915 33.984375 31.43359375 C36.80375583 38.32843084 39.60650038 45.22998521 42.40625 52.1328125 C42.68789001 52.82713379 42.96953003 53.52145508 43.25970459 54.23681641 C46.07949144 61.18870466 48.89843305 68.14093517 51.71533203 75.09399414 C54.72576634 82.5243513 57.73828356 89.95382825 60.76171875 97.37890625 C66.51520988 111.51065635 72.23559992 125.65508928 77.90625 139.8203125 C78.19807159 140.54857239 78.48989319 141.27683228 78.79055786 142.02716064 C81.57129807 148.96919376 84.33424858 155.91512692 87 162.90234375 C88.96870787 168.04876183 91.0469827 173.13986403 93.18212891 178.21923828 C104.30778153 204.69980039 114.75936084 231.47082093 125.40722656 258.14550781 C127.21863893 262.68324733 129.03073349 267.22071366 130.84375 271.7578125 C131.12930756 272.47246674 131.41486511 273.18712097 131.70907593 273.9234314 C135.87754537 284.35181176 140.09013315 294.76138049 144.34521484 305.15478516 C146.82180045 311.21244181 149.2683206 317.280984 151.68359375 323.36328125 C151.95840576 324.05444534 152.23321777 324.74560944 152.51635742 325.4577179 C153.85662023 328.82922377 155.19329336 332.20207429 156.52392578 335.57739258 C157.24104736 337.38373169 157.24104736 337.38373169 157.97265625 339.2265625 C158.39490479 340.29583984 158.81715332 341.36511719 159.25219727 342.46679688 C160.37639519 345.28142508 160.37639519 345.28142508 162.40625 348.1328125 C164.67440542 348.5799326 164.67440542 348.5799326 167.35427856 348.49357605 C168.400383 348.49770004 169.44648743 348.50182404 170.52429199 348.506073 C172.25274353 348.48989426 172.25274353 348.48989426 174.01611328 348.47338867 C175.22584808 348.47382675 176.43558289 348.47426483 177.68197632 348.47471619 C181.00428394 348.47298108 184.32603609 348.45790982 187.64824533 348.43699431 C191.11825336 348.41827271 194.58826835 348.41648065 198.05831909 348.41291809 C204.63152769 348.40358429 211.20458706 348.37895259 217.77772987 348.34886962 C225.26007957 348.31536702 232.74243631 348.29885005 240.22484231 348.28378332 C255.61873138 348.25240408 271.01247146 348.19961782 286.40625 348.1328125 C285.94130782 346.71987272 285.47476327 345.30746018 285.00756836 343.89526367 C284.74793808 343.10866867 284.4883078 342.32207367 284.22080994 341.51164246 C282.93872877 337.76746975 281.45904479 334.11051713 279.96875 330.4453125 C279.25499694 328.67586651 278.54146981 326.90632937 277.828125 325.13671875 C277.44076172 324.17781738 277.05339844 323.21891602 276.65429688 322.23095703 C275.31988812 318.91842825 273.99484546 315.60226941 272.671875 312.28515625 C267.19109377 298.54407447 261.66614807 284.82203293 256.08688354 271.12063599 C251.86327766 260.74665469 247.68579485 250.35508888 243.5357666 239.95147705 C239.94615764 230.95500851 236.31825284 221.97504902 232.65625 213.0078125 C228.57146695 203.00508248 224.52964441 192.98665657 220.52978516 182.94970703 C217.72933014 175.92848799 214.91846751 168.91141961 212.10961914 161.89355469 C209.78163924 156.07631628 207.45501087 150.25856836 205.13815308 144.43688965 C203.89538594 141.31421843 202.65119911 138.19211439 201.40625 135.0703125 C201.03654083 134.14312408 201.03654083 134.14312408 200.65936279 133.19720459 C196.46379627 122.68517175 192.13750307 112.23177736 187.78100586 101.78540039 C183.94551185 92.54365011 180.30608195 83.23617738 176.79052734 73.86816406 C174.62379436 68.13076744 172.26002918 62.55204509 169.68530273 56.98681641 C167.31480371 51.69742271 165.25161228 46.28572699 163.15625 40.8828125 C162.19962665 38.42041441 161.24258842 35.95817746 160.28515625 33.49609375 C159.80836426 32.26971191 159.33157227 31.04333008 158.84033203 29.77978516 C157.4620195 26.27463832 156.04904476 22.78595843 154.62109375 19.30078125 C154.1940918 18.24729492 153.76708984 17.19380859 153.32714844 16.10839844 C152.51949225 14.11899352 151.70150181 12.13374548 150.87207031 10.15332031 C150.5159668 9.26870117 150.15986328 8.38408203 149.79296875 7.47265625 C149.31670044 6.31817993 149.31670044 6.31817993 148.83081055 5.14038086 C148.69070557 4.4778833 148.55060059 3.81538574 148.40625 3.1328125 C149.06625 2.1428125 149.72625 1.1528125 150.40625 0.1328125 C152.75927734 -0.23468018 152.75927734 -0.23468018 155.7421875 -0.22363281 C156.85674316 -0.22663391 157.97129883 -0.22963501 159.11962891 -0.23272705 C160.32796387 -0.22038025 161.53629883 -0.20803345 162.78125 -0.1953125 C164.63435791 -0.19250275 164.63435791 -0.19250275 166.52490234 -0.18963623 C169.81227717 -0.18117592 173.0992174 -0.15917245 176.38647461 -0.13146973 C179.73159421 -0.10781573 183.07667662 -0.10648432 186.421875 -0.1015625 C188.95833814 -0.09239157 191.49479728 -0.08201551 194.03125 -0.0703125 C195.23958496 -0.06606262 196.44791992 -0.06181274 197.69287109 -0.05743408 C198.80742676 -0.04782654 199.92198242 -0.03821899 201.0703125 -0.02832031 C202.54685303 -0.01807831 202.54685303 -0.01807831 204.05322266 -0.00762939 C206.40625 0.1328125 206.40625 0.1328125 208.40625 1.1328125 C209.41079765 3.32715563 210.30689341 5.49427358 211.1640625 7.74609375 C211.42786209 8.4223732 211.69166168 9.09865265 211.9634552 9.79542542 C212.82568296 12.00966572 213.6783363 14.22746985 214.53125 16.4453125 C215.12756178 17.98028169 215.72465173 19.5149488 216.32250977 21.04931641 C217.49935944 24.0707703 218.67344554 27.09327164 219.84521484 30.11669922 C221.64692349 34.7596519 223.48488321 39.38746603 225.34375 44.0078125 C225.9700941 45.56899356 226.59639405 47.13019233 227.22265625 48.69140625 C227.56055176 49.53300293 227.89844727 50.37459961 228.24658203 51.24169922 C230.46725644 56.77795739 232.68076919 62.3170842 234.89559937 67.85568237 C236.42494929 71.6799267 237.95468711 75.50401586 239.484375 79.328125 C240.13346531 80.95084565 240.78255383 82.57356701 241.43164062 84.19628906 C241.75753174 85.01101685 242.08342285 85.82574463 242.41918945 86.66516113 C277.41168215 174.14639287 277.41168215 174.14639287 278.27518654 176.30516148 C278.8470268 177.73475705 279.41887408 179.16434982 279.99072838 180.59393978 C281.4065304 184.13335638 282.82221253 187.67282084 284.23764038 191.21238708 C286.90482951 197.88187211 289.57322763 204.55086632 292.24559402 211.21827888 C293.51061703 214.37466024 294.77498164 217.53130515 296.03929901 220.68796921 C296.6369404 222.17959783 297.2348941 223.67110136 297.83319855 225.16246414 C301.05692264 233.19831049 304.2433207 241.24433201 307.32269287 249.33700562 C308.37995887 252.06497581 309.48872559 254.76504028 310.625 257.4609375 C314.86344959 267.54210965 318.85521395 277.72532751 322.90625 287.8828125 C330.20772192 306.1920573 330.20772192 306.1920573 337.609375 324.4609375 C337.91939453 325.22017517 338.22941406 325.97941284 338.54882812 326.76165771 C339.96021472 330.21537342 341.37627904 333.66707852 342.79882812 337.11621094 C343.28287109 338.29731445 343.76691406 339.47841797 344.265625 340.6953125 C344.89162598 342.21318359 344.89162598 342.21318359 345.53027344 343.76171875 C346.40625 346.1328125 346.40625 346.1328125 346.40625 348.1328125 C379.07625 348.4628125 411.74625 348.7928125 445.40625 349.1328125 C449.36625 358.7028125 453.32625 368.2728125 457.40625 378.1328125 C461.58013434 388.07285437 461.58013434 388.07285437 465.77050781 398.00585938 C466.40625 400.1328125 466.40625 400.1328125 466.40625 405.1328125 C418.39125 405.6278125 418.39125 405.6278125 369.40625 406.1328125 C376.32061917 423.41873544 383.26103263 440.65618763 390.40234375 457.84375 C393.48404873 465.29162183 396.48541505 472.77015827 399.46875 480.2578125 C403.62273891 490.68284439 407.81738283 501.09005287 412.05981445 511.47949219 C417.55469182 524.9375237 423.00987897 538.41160621 428.46847534 551.88438416 C430.75945113 557.53835314 433.05306235 563.19124856 435.34765625 568.84375 C436.31906631 571.23738373 437.29041139 573.63104383 438.26171875 576.02471924 C438.89679613 577.58952885 439.5320484 579.15426749 440.16748047 580.71893311 C443.29245822 588.41445518 446.40863902 596.11280394 449.46484375 603.8359375 C449.92463623 604.99577148 450.38442871 606.15560547 450.8581543 607.35058594 C451.69305779 609.46163401 452.52425719 611.57415278 453.35083008 613.68847656 C454.79542049 617.34234643 456.13766534 620.70583175 458.234375 624.0390625 C459.40625 626.1328125 459.40625 626.1328125 458.97949219 628.26367188 C458.79032227 628.88048828 458.60115234 629.49730469 458.40625 630.1328125 C450.50434304 630.23413962 442.60260328 630.30424764 434.70019531 630.35253906 C432.01120534 630.3704115 429.32259174 630.39825725 426.63378906 630.43457031 C422.77137439 630.48302865 418.90953792 630.50576876 415.046875 630.5234375 C413.8425885 630.54408264 412.638302 630.56472778 411.39752197 630.58599854 C409.71623199 630.58645172 409.71623199 630.58645172 408.00097656 630.58691406 C407.01502502 630.59579651 406.02907349 630.60467896 405.01324463 630.61383057 C401.66568824 629.99617103 400.52369932 628.73918876 398.40625 626.1328125 C397.16455078 623.64794922 397.16455078 623.64794922 396.1015625 620.8125 C395.48462524 619.19952026 395.48462524 619.19952026 394.85522461 617.55395508 C394.41831299 616.38372803 393.98140137 615.21350098 393.53125 614.0078125 C392.55867382 611.46637137 391.58377802 608.92594627 390.60546875 606.38671875 C390.34997757 605.72103378 390.09448639 605.05534882 389.83125305 604.36949158 C386.80222678 596.50662547 383.57160343 588.72811684 380.34375 580.9453125 C379.14212051 578.04212434 377.94176707 575.13841074 376.7421875 572.234375 C376.45276779 571.53377457 376.16334808 570.83317413 375.86515808 570.11134338 C373.357105 564.03123507 370.90084873 557.93120316 368.46875 551.8203125 C364.34138128 541.45006104 360.16402282 531.10073286 355.96875 520.7578125 C355.64748138 519.96555267 355.32621277 519.17329285 354.99520874 518.35702515 C351.73061283 510.30743941 348.46100159 502.25994247 345.17578125 494.21875 C344.43702759 492.40963135 344.43702759 492.40963135 343.68334961 490.56396484 C342.78830858 488.37366246 341.89210547 486.18383435 340.99438477 483.99462891 C338.9019612 478.87591067 336.87112213 473.74243274 334.9140625 468.5703125 C333.38758877 464.5701746 331.77213137 460.65834339 329.96484375 456.77734375 C326.78834186 449.92696501 324.15013927 442.87429687 321.46875 435.8203125 C320.71002789 433.82631353 319.9501338 431.83279739 319.18687439 429.8405304 C318.49170795 428.02584077 317.80050813 426.209633 317.10961914 424.39331055 C314.65713471 418.25911164 312.00859538 412.20495172 309.40625 406.1328125 C267.82625 405.8028125 226.24625 405.4728125 183.40625 405.1328125 C191.88444427 425.96788719 191.88444427 425.96788719 200.46875 446.7578125 C204.62447909 456.76961771 208.70208298 466.80908811 212.71191406 476.88012695 C215.51443183 483.91563724 218.35363494 490.93507719 221.21875 497.9453125 C226.82121751 511.65834713 232.36281999 525.39582774 237.90625 539.1328125 C246.13087285 559.51809987 246.13087285 559.51809987 254.40625 579.8828125 C254.8089209 580.87104004 255.2115918 581.85926758 255.62646484 582.87744141 C257.7423682 588.06682892 259.86584277 593.25303825 261.99615479 598.43652344 C263.21292848 601.39969384 264.42607137 604.36434339 265.63867188 607.32922363 C266.22653386 608.76406673 266.81601189 610.19824896 267.40722656 611.63171387 C268.22609058 613.6174121 269.03939287 615.60530614 269.8515625 617.59375 C270.32094238 618.73634277 270.79032227 619.87893555 271.27392578 621.05615234 C272.27550058 623.7775507 273.03563289 626.25971568 273.40625 629.1328125 C271.69319453 630.84586797 269.44785693 630.27798936 267.10791016 630.29394531 C265.9764859 630.30355286 264.84506165 630.3131604 263.67935181 630.32305908 C262.44711884 630.32730896 261.21488586 630.33155884 259.9453125 630.3359375 C258.68866791 630.34163757 257.43202332 630.34733765 256.13729858 630.35321045 C253.47235487 630.36267827 250.80752427 630.36956583 248.14257812 630.37304688 C244.72703182 630.37852978 241.31188457 630.40254917 237.89646339 630.43101883 C234.64194314 630.45412067 231.3874033 630.45609355 228.1328125 630.4609375 C226.90462799 630.4732843 225.67644348 630.4856311 224.41104126 630.49835205 C223.27331268 630.49535095 222.13558411 630.49234985 220.96337891 630.48925781 C219.96045807 630.49290344 218.95753723 630.49654907 217.92422485 630.50030518 C214.98544393 630.07139682 214.16016255 629.47934899 212.40625 627.1328125 C211.41393422 625.05265629 210.50848602 622.9304252 209.65625 620.7890625 C209.40211334 620.1570845 209.14797668 619.52510651 208.88613892 618.87397766 C208.05243215 616.79634327 207.2294538 614.71462805 206.40625 612.6328125 C205.82161468 611.1711423 205.23615504 609.70980155 204.64990234 608.2487793 C203.45970727 605.28088261 202.27297236 602.31163996 201.08886719 599.34130859 C198.76904862 593.52928473 196.40013921 587.73747011 194.03125 581.9453125 C192.15471023 577.34177282 190.28035069 572.7373456 188.40625 568.1328125 C188.1136731 567.41403931 187.82109619 566.69526611 187.51965332 565.95471191 C185.55750688 561.13360585 183.59727961 556.31172437 181.63885498 551.48910522 C180.99808855 549.91178656 180.35687455 548.33464961 179.71514893 546.75772095 C176.33470318 538.44972984 173.00026996 530.12767262 169.765625 521.76171875 C167.08757389 514.83739586 164.2898635 507.97434855 161.40625 501.1328125 C160.36123154 498.6154068 159.31790382 496.09737061 158.27734375 493.578125 C158.00313599 492.91433334 157.72892822 492.25054169 157.44641113 491.56663513 C156.5782825 489.46393091 155.71086426 487.36093523 154.84375 485.2578125 C154.54011536 484.5214859 154.23648071 483.7851593 153.92364502 483.02651978 C149.14858784 471.4391742 144.45861764 459.82076678 139.83276367 448.1730957 C137.26914809 441.73405654 134.66519117 435.31614218 131.9921875 428.921875 C131.71144379 428.24927139 131.43070007 427.57666779 131.14144897 426.88368225 C129.78904946 423.64607288 128.43044438 420.41128485 127.06201172 417.18041992 C126.5826416 416.03677979 126.10327148 414.89313965 125.609375 413.71484375 C125.18301758 412.70655518 124.75666016 411.6982666 124.31738281 410.65942383 C123.40625 408.1328125 123.40625 408.1328125 123.40625 405.1328125 C46.51625 405.1328125 -30.37375 405.1328125 -109.59375 405.1328125 C-110.58375 408.4328125 -111.57375 411.7328125 -112.59375 415.1328125 C-113.3169575 417.08917175 -114.07106551 419.034717 -114.87109375 420.9609375 C-115.29503418 421.99017334 -115.71897461 423.01940918 -116.15576172 424.07983398 C-116.60967285 425.16981689 -117.06358398 426.2597998 -117.53125 427.3828125 C-118.53343388 429.8160487 -119.53474045 432.24963155 -120.53515625 434.68359375 C-120.79151855 435.30601456 -121.04788086 435.92843536 -121.31201172 436.56971741 C-123.91067157 442.88485205 -126.44219288 449.22607455 -128.96875 455.5703125 C-132.73083917 465.00233092 -136.51497797 474.4251817 -140.3203125 483.83984375 C-140.75016449 484.90339584 -141.18001648 485.96694794 -141.62289429 487.06272888 C-143.73983189 492.29948334 -145.85807583 497.53570521 -147.97802734 502.77124023 C-157.58726503 526.53060317 -167.0750946 550.33617399 -176.59375 574.1328125 C-96.73375 574.1328125 -16.87375 574.1328125 65.40625 574.1328125 C68.56191691 581.07527971 71.62970627 587.95628921 74.4296875 595.03515625 C74.78012115 595.92014297 75.13055481 596.8051297 75.49160767 597.7169342 C76.22090811 599.56394356 76.9484672 601.4116414 77.67431641 603.26000977 C78.41799091 605.14806384 79.16677071 607.03411428 79.92041016 608.91821289 C81.01767664 611.66137911 82.10032443 614.40990434 83.1796875 617.16015625 C83.51914398 618.00182846 83.85860046 618.84350067 84.20834351 619.7106781 C84.51261261 620.4957222 84.81688171 621.2807663 85.13037109 622.08959961 C85.5374379 623.11904945 85.5374379 623.11904945 85.95272827 624.16929626 C86.48978858 626.49449165 86.04437348 627.86547513 85.40625 630.1328125 C41.87151613 630.15568008 -1.6632171 630.17331134 -45.19795578 630.18387783 C-50.33265412 630.1851286 -55.46735246 630.18642292 -60.60205078 630.18774414 C-61.62431641 630.18800645 -62.64658204 630.18826876 -63.69982542 630.18853902 C-80.27218343 630.19289539 -96.84453799 630.20078276 -113.41689394 630.2099653 C-130.41002986 630.21930275 -147.40316396 630.22486831 -164.39630234 630.22690099 C-174.8897251 630.22827603 -185.38313809 630.23262558 -195.87655784 630.24072897 C-203.0633116 630.24599756 -210.25006029 630.24761653 -217.43681584 630.24631388 C-221.58886665 630.24567068 -225.74090035 630.24668601 -229.89294815 630.25201797 C-233.68889612 630.2568573 -237.48481535 630.2571476 -241.28076459 630.25371139 C-242.65898814 630.25328623 -244.03721343 630.25457748 -245.41543351 630.25769568 C-247.27912274 630.26166938 -249.14282272 630.25896473 -251.0065136 630.25586033 C-252.56374667 630.25642991 -252.56374667 630.25642991 -254.152439 630.257011 C-256.59375 630.1328125 -256.59375 630.1328125 -258.59375 629.1328125 C-256.75917075 622.67986479 -254.6485031 616.45865681 -252.09375 610.2578125 C-251.37925281 608.49778343 -250.66576914 606.73734269 -249.953125 604.9765625 C-249.38174805 603.56697266 -249.38174805 603.56697266 -248.79882812 602.12890625 C-246.60983206 596.68657244 -244.48113554 591.22057051 -242.34375 585.7578125 C-234.28899468 565.21509709 -226.08108295 544.73613496 -217.73608398 524.30957031 C-213.06014453 512.85180417 -208.46843755 501.36071315 -203.88301086 489.86653137 C-202.08787809 485.3675801 -200.28736592 480.87080722 -198.484375 476.375 C-197.45816467 473.81517175 -196.43216496 471.25525914 -195.40625 468.6953125 C-195.15633301 468.07186951 -194.90641602 467.44842651 -194.64892578 466.80609131 C-190.91129914 457.47813517 -187.22172036 448.13249723 -183.62231445 438.75024414 C-181.94256922 434.41031746 -180.16920587 430.14972519 -178.21484375 425.92578125 C-175.12184471 419.0898385 -172.38033749 412.09928122 -169.59375 405.1328125 C-200.94375 405.1328125 -232.29375 405.1328125 -264.59375 405.1328125 C-265.81606038 401.46588137 -265.25373761 400.588169 -263.85546875 397.06640625 C-263.45191162 396.03507568 -263.04835449 395.00374512 -262.63256836 393.94116211 C-262.1866333 392.82878174 -261.74069824 391.71640137 -261.28125 390.5703125 C-260.35899584 388.22671167 -259.43713285 385.88295688 -258.515625 383.5390625 C-257.79536133 381.71955078 -257.79536133 381.71955078 -257.06054688 379.86328125 C-255.59139298 376.14031728 -254.15993554 372.40394684 -252.734375 368.6640625 C-252.28102783 367.47498291 -251.82768066 366.28590332 -251.3605957 365.06079102 C-250.48318111 362.75695328 -249.60669683 360.452761 -248.73120117 358.14819336 C-248.33392822 357.11057861 -247.93665527 356.07296387 -247.52734375 355.00390625 C-247.17728271 354.08536865 -246.82722168 353.16683105 -246.46655273 352.22045898 C-245.59375 350.1328125 -245.59375 350.1328125 -244.59375 349.1328125 C-241.55045813 349.00744394 -238.52877627 348.94668807 -235.48413086 348.92749023 C-234.52813492 348.91759064 -233.57213898 348.90769104 -232.58717346 348.89749146 C-229.41100586 348.86577398 -226.23482327 348.84107869 -223.05859375 348.81640625 C-220.86283467 348.79584556 -218.66707964 348.77484934 -216.47132874 348.75343323 C-210.67958842 348.69812111 -204.88781186 348.64875228 -199.0960083 348.60058594 C-193.19092566 348.55043747 -187.28589596 348.49471675 -181.38085938 348.43945312 C-169.78520142 348.33175983 -158.1894976 348.23033983 -146.59375 348.1328125 C-146.36564384 347.52840836 -146.13753769 346.92400421 -145.90251923 346.30128479 C-144.85815597 343.53736656 -143.81093861 340.77453806 -142.76367188 338.01171875 C-142.40488953 337.06091431 -142.04610718 336.11010986 -141.67645264 335.13049316 C-139.54542821 329.51560638 -137.26944138 324.02708788 -134.70703125 318.59375 C-132.57344226 313.87739539 -130.86239338 308.9950194 -129.09375 304.1328125 C-126.96155328 298.27115509 -124.80542498 292.47570911 -122.17578125 286.81640625 C-119.34716268 280.71921029 -116.93951068 274.47226504 -114.54470825 268.19570923 C-113.23761793 264.77089956 -111.91893231 261.35055326 -110.6015625 257.9296875 C-110.21276665 256.91893913 -110.21276665 256.91893913 -109.81611633 255.88777161 C-107.63543737 250.22452031 -105.41344544 244.57853574 -103.15625 238.9453125 C-102.86322998 238.21256104 -102.57020996 237.47980957 -102.26831055 236.72485352 C-100.6240455 232.63407178 -98.9415741 228.56037506 -97.2421875 224.4921875 C-94.33751558 217.5355558 -91.49206694 210.555208 -88.65625 203.5703125 C-88.37818512 202.88573975 -88.10012024 202.20116699 -87.81362915 201.49584961 C-81.94746235 187.04905073 -76.15282454 172.5739534 -70.37254333 158.09262085 C-67.0850262 149.85658568 -63.79084215 141.62322028 -60.4967041 133.38983154 C-59.46993716 130.82327997 -58.44342189 128.25662787 -57.41699219 125.68994141 C-54.42780476 118.21539689 -51.4376937 110.74123278 -48.44140625 103.26953125 C-43.16630681 90.11062265 -37.92001927 76.94053877 -32.70706177 63.75689697 C-32.06157048 62.12468202 -31.41565416 60.49263507 -30.76925659 58.86077881 C-27.29314773 50.0824437 -23.86372206 41.29117635 -20.58401489 32.43728638 C-18.41679028 26.59708155 -16.03464116 20.86263858 -13.59375 15.1328125 C-13.06811381 13.86104729 -12.5434213 12.58889176 -12.01953125 11.31640625 C-11.48202385 10.02593625 -10.94426736 8.73556997 -10.40625 7.4453125 C-9.91769531 6.26582031 -9.42914063 5.08632812 -8.92578125 3.87109375 C-6.78178123 -0.53636671 -4.57648253 0.00504018 0 0 Z M7.40625 116.1328125 C3.3280958 124.72962146 -0.36364511 133.37752225 -3.78125 142.2578125 C-4.7433807 144.73233414 -5.70654757 147.20641487 -6.671875 149.6796875 C-6.91485825 150.30285858 -7.15784149 150.92602966 -7.40818787 151.56808472 C-9.88563195 157.90744662 -12.45143476 164.2095757 -15.03125 170.5078125 C-19.04912712 180.32590603 -23.02744728 190.15879365 -26.96875 200.0078125 C-27.45657959 201.2251709 -27.94440918 202.4425293 -28.44702148 203.69677734 C-30.71528361 209.37191693 -32.95432844 215.05538191 -35.1328125 220.765625 C-36.63594845 224.69044738 -38.18200768 228.58737274 -39.8125 232.4609375 C-43.59160643 241.44955981 -47.16380938 250.52250832 -50.77593994 259.57913208 C-57.04761 275.30187865 -63.33175225 291.01901901 -69.71875 306.6953125 C-73.62681725 316.29457681 -77.53413748 325.89398146 -81.40625 335.5078125 C-82.04747803 337.08864624 -82.04747803 337.08864624 -82.70166016 338.70141602 C-83.08499512 339.65588623 -83.46833008 340.61035645 -83.86328125 341.59375 C-84.36758667 342.84357666 -84.36758667 342.84357666 -84.88208008 344.11865234 C-85.70479963 346.09107195 -85.70479963 346.09107195 -85.59375 348.1328125 C-76.34574577 349.08870147 -67.16044129 349.27607831 -57.8737793 349.26220703 C-56.32986408 349.26356532 -54.7859492 349.26534764 -53.24203491 349.26751709 C-49.0827719 349.27204174 -44.92353394 349.27032216 -40.76427054 349.267138 C-36.38710197 349.26458719 -32.00993539 349.2669596 -27.63276672 349.26852417 C-20.28194803 349.27033854 -12.93113942 349.26795941 -5.58032227 349.26318359 C2.88225658 349.25774848 11.3448113 349.25950114 19.80738956 349.26501 C27.10717069 349.26956932 34.40694463 349.27017777 41.70672673 349.26757133 C46.05146535 349.26602322 50.39619269 349.26577402 54.74093056 349.26910782 C58.83107361 349.2720275 62.92118604 349.26993675 67.01132584 349.26421356 C68.49987551 349.26290743 69.98842782 349.26324281 71.47697639 349.26547623 C81.16348393 349.27865347 90.75168429 348.89452786 100.40625 348.1328125 C99.81285841 345.05841426 99.16864858 342.22804756 97.99853516 339.32177734 C97.71336029 338.6074353 97.42818542 337.89309326 97.1343689 337.15710449 C96.82448029 336.39369751 96.51459167 335.63029053 96.1953125 334.84375 C95.8714859 334.03635376 95.5476593 333.22895752 95.21401978 332.39709473 C94.15729864 329.76562167 93.09437008 327.13670612 92.03125 324.5078125 C91.29622803 322.68128167 90.56152968 320.85462057 89.82714844 319.02783203 C85.36697031 307.94347711 80.87277373 296.87296454 76.35009766 285.81396484 C72.73616356 276.97072633 69.18659715 268.1024529 65.64691162 259.2293396 C62.06178426 250.24454606 58.43987171 241.27548375 54.78125 232.3203125 C50.04103754 220.71542969 45.36968071 209.08425958 40.72607422 197.44042969 C38.58380255 192.07167338 36.43601556 186.70512381 34.28863525 181.33840942 C33.53190814 179.44695753 32.77543355 177.55540485 32.01904297 175.66381836 C29.6878606 169.83422432 27.35561261 164.00506478 25.01904297 158.17762756 C19.41062495 144.19000178 13.81876605 130.19773096 8.40625 116.1328125 C8.07625 116.1328125 7.74625 116.1328125 7.40625 116.1328125 Z " fill="#323232" transform="translate(357.59375,97.8671875)"/>
<path d="M0 0 C0.81542558 0.00223072 1.63085116 0.00446144 2.4709866 0.00675976 C3.76086323 0.00441978 3.76086323 0.00441978 5.07679796 0.00203252 C7.98207594 -0.00198198 10.8873024 0.00121413 13.79258084 0.00434887 C15.86700336 0.00299483 17.94142563 0.00121488 20.01584744 -0.00096118 C25.67404855 -0.00554084 31.33223153 -0.0037423 36.99043298 -0.0005821 C42.91970169 0.0019455 48.84896881 -0.00039778 54.77823758 -0.00196826 C64.75893296 -0.00379163 74.73962096 -0.00138227 84.72031522 0.00337231 C96.21529378 0.00878549 107.71025451 0.00707453 119.20523262 0.00154591 C129.09000185 -0.00301622 138.97476575 -0.0036198 148.85953569 -0.00101542 C154.75505433 0.00053423 160.65056465 0.00077803 166.54608274 -0.00255191 C172.11102989 -0.0054747 177.67595456 -0.00337533 183.24089932 0.00234234 C185.26712626 0.00364788 187.29335514 0.00331416 189.31958127 0.00107968 C202.69847267 -0.0122949 216.00955584 0.38467429 229.36777616 1.13374341 C229.9976572 2.54675114 230.62707783 3.95996412 231.2563107 5.37326062 C231.60686993 6.160221 231.95742915 6.94718138 232.31861138 7.75798905 C234.93534095 13.68337545 237.41373292 19.6688086 239.91343045 25.64424145 C240.59095744 27.26135928 241.2706438 28.8775741 241.95249295 30.49287426 C249.23538128 47.74790606 249.23538128 47.74790606 251.36777616 56.13374341 C250.70777616 56.46374341 250.04777616 56.79374341 249.36777616 57.13374341 C249.09103055 56.4037312 248.81428494 55.67371899 248.52915311 54.9215852 C247.24987407 51.55339392 245.96510788 48.18732027 244.68027616 44.82124341 C244.24521756 43.67333325 243.81015897 42.52542309 243.36191678 41.34272778 C240.93466583 34.99591604 238.36170709 28.77038045 235.50376248 22.60566723 C233.91793003 19.15487129 232.46740848 15.65848529 231.05527616 12.13374341 C230.65985623 11.17274731 230.65985623 11.17274731 230.25644803 10.19233716 C229.10955151 7.33850115 228.36777616 5.24102987 228.36777616 2.13374341 C151.47777616 2.13374341 74.58777616 2.13374341 -4.63222384 2.13374341 C-5.62222384 5.43374341 -6.61222384 8.73374341 -7.63222384 12.13374341 C-8.35543135 14.09010266 -9.10953935 16.0356479 -9.90956759 17.96186841 C-10.33350802 18.99110425 -10.75744845 20.02034009 -11.19423556 21.08076489 C-11.6481467 22.1707478 -12.10205783 23.26073071 -12.56972384 24.38374341 C-13.57190772 26.8169796 -14.57321429 29.25056246 -15.57363009 31.68452466 C-15.8299924 32.30694546 -16.0863547 32.92936627 -16.35048556 33.57064831 C-18.94914581 39.88578391 -21.48059828 46.22703198 -24.00722384 52.57124341 C-33.13792651 75.45658952 -42.39404115 98.29163394 -51.63222384 121.13374341 C-52.03447177 122.12851696 -52.43671969 123.12329052 -52.85115695 124.14820874 C-55.03422769 129.54694934 -57.21822893 134.94531125 -59.40404391 140.3429414 C-60.05193803 141.94303955 -60.69958537 143.54323764 -61.34697604 145.14353955 C-62.22770607 147.32029121 -63.10948371 149.49661525 -63.99159884 151.67280591 C-64.48112033 152.88146313 -64.97064181 154.09012036 -65.47499728 155.33540356 C-66.14516 156.95595316 -66.84796635 158.56522842 -67.63222384 160.13374341 C-68.29222384 160.13374341 -68.95222384 160.13374341 -69.63222384 160.13374341 C-69.02167168 156.64518208 -68.11556342 153.5466321 -66.78139377 150.26875317 C-66.20827205 148.85124768 -66.20827205 148.85124768 -65.62357211 147.40510571 C-65.20748187 146.38872021 -64.79139163 145.37233471 -64.36269259 144.32514966 C-63.93052936 143.25937695 -63.49836612 142.19360425 -63.05310702 141.0955354 C-61.64592942 137.62748555 -60.23279688 134.16189477 -58.81972384 130.69624341 C-57.84771 128.30313463 -56.87619466 125.90982332 -55.90517306 123.51631176 C-54.46207867 119.95929605 -53.01870917 116.40239574 -51.57369113 112.84616101 C-48.10460539 104.30805011 -44.6668497 95.75826024 -41.25722384 87.19624341 C-36.65343362 75.65197127 -31.99064302 64.13226106 -27.31117892 52.61851513 C-23.71446901 43.76821933 -20.13602582 34.91121544 -16.60097384 26.03608716 C-16.27567691 25.21989407 -15.95037997 24.40370099 -15.61522555 23.56277478 C-14.05167309 19.63839535 -12.49127123 15.71280413 -10.9354465 11.78535473 C-10.37872396 10.38582713 -9.82192494 8.98632994 -9.26503634 7.58686841 C-8.77922091 6.36129223 -8.29340549 5.13571606 -7.79286838 3.87300122 C-5.90608197 -0.58003694 -4.69202252 0.01665871 0 0 Z " fill="#010201" transform="translate(252.6322238445282,500.8662565946579)"/>
<path d="M0 0 C0.66 0 1.32 0 2 0 C4.16881415 5.3328878 6.32293443 10.671385 8.46362305 16.015625 C9.19398058 17.83299989 9.92833465 19.64877396 10.66674805 21.46289062 C11.72718054 24.07011402 12.77312801 26.68274819 13.81640625 29.296875 C14.14967422 30.10743347 14.4829422 30.91799194 14.8263092 31.75311279 C15.12669601 32.51359924 15.42708282 33.27408569 15.73657227 34.05761719 C16.00526627 34.72380066 16.27396027 35.38998413 16.55079651 36.07635498 C17.08824613 38.37790052 16.63102892 39.75374687 16 42 C-27.53473387 42.02286758 -71.0694671 42.04049884 -114.60420578 42.05106533 C-119.73890412 42.0523161 -124.87360246 42.05361042 -130.00830078 42.05493164 C-131.03056641 42.05519395 -132.05283204 42.05545626 -133.10607542 42.05572652 C-149.67843343 42.06008289 -166.25078799 42.06797026 -182.82314394 42.0771528 C-199.81627986 42.08649025 -216.80941396 42.09205581 -233.80255234 42.09408849 C-244.2959751 42.09546353 -254.78938809 42.09981308 -265.28280784 42.10791647 C-272.4695616 42.11318506 -279.65631029 42.11480403 -286.84306584 42.11350138 C-290.99511665 42.11285818 -295.14715035 42.11387351 -299.29919815 42.11920547 C-303.09514612 42.1240448 -306.89106535 42.1243351 -310.68701459 42.12089889 C-312.06523814 42.12047373 -313.44346343 42.12176498 -314.82168351 42.12488318 C-316.68537274 42.12885688 -318.54907272 42.12615223 -320.4127636 42.12304783 C-321.45091898 42.12342755 -322.48907436 42.12380727 -323.558689 42.1241985 C-326 42 -326 42 -328 41 C-326.01858219 34.01250005 -323.68648886 27.24652089 -321 20.5 C-320.65710938 19.60796875 -320.31421875 18.7159375 -319.9609375 17.796875 C-319.62320313 16.94609375 -319.28546875 16.0953125 -318.9375 15.21875 C-318.63714844 14.45498047 -318.33679688 13.69121094 -318.02734375 12.90429688 C-317 11 -317 11 -314 9 C-317.06055101 19.2018367 -321.04430669 29.11076672 -325 39 C-213.13 39 -101.26 39 14 39 C7.07990258 20.96865521 7.07990258 20.96865521 0 3 C0 2.01 0 1.02 0 0 Z " fill="#000000" transform="translate(427,686)"/>
<path d="M0 0 C2.90959975 3.43317531 4.48249435 7.22014446 6.1171875 11.359375 C6.55711784 12.45199898 6.55711784 12.45199898 7.00593567 13.56669617 C7.96778214 15.95896804 8.92134052 18.3544541 9.875 20.75 C10.54730845 22.42611326 11.22024931 24.10197298 11.89379883 25.77758789 C13.26926811 29.20056445 14.64209697 32.62458218 16.01318359 36.04931641 C18.61299999 42.53622475 21.2506598 49.00758988 23.88919067 55.4788208 C28.28332161 66.25997114 32.6283208 77.05962338 36.9375 87.875 C41.50217709 99.32867111 46.17028965 110.73696353 50.88113403 122.13122559 C57.04301781 137.03983207 63.03380574 152.01175588 69 167 C87.15 167.33 105.3 167.66 124 168 C122.411875 163.936875 120.82375 159.87375 119.1875 155.6875 C118.7133667 154.47151123 118.2392334 153.25552246 117.75073242 152.00268555 C114.0532545 142.56889361 110.23470005 133.1860032 106.404953 123.80522156 C103.01203267 115.49208089 99.63884948 107.17121741 96.28125 98.84375 C95.56797295 97.07479118 95.56797295 97.07479118 94.84028625 95.27009583 C92.9103736 90.48253796 90.98132659 85.6946315 89.05224609 80.90673828 C87.60815683 77.32307701 86.16348074 73.7396527 84.71875 70.15625 C84.25146484 68.99609375 83.78417969 67.8359375 83.30273438 66.640625 C80.83137864 60.51166278 78.3437959 54.38982706 75.83203125 48.27734375 C75.3154365 47.01803961 74.79887512 45.75872179 74.28234863 44.49938965 C73.29995062 42.10694652 72.31463143 39.7157003 71.3260498 37.32580566 C70.8890979 36.26116089 70.452146 35.19651611 70.00195312 34.09960938 C69.61430786 33.16032593 69.2266626 32.22104248 68.82727051 31.2532959 C68 29 68 29 68 27 C71 28 71 28 72.09291077 29.99783325 C72.42971359 30.87527191 72.76651642 31.75271057 73.11352539 32.65673828 C73.50116562 33.64793671 73.88880585 34.63913513 74.28819275 35.66036987 C74.6996907 36.74440094 75.11118866 37.82843201 75.53515625 38.9453125 C76.43184469 41.24795889 77.32916171 43.55036058 78.22705078 45.85253906 C78.68638 47.04028931 79.14570923 48.22803955 79.61895752 49.45178223 C81.75667581 54.94407529 83.96985948 60.40519316 86.18359375 65.8671875 C87.0516302 68.01652164 87.91946731 70.16593631 88.78710938 72.31542969 C89.67052886 74.50197093 90.55399319 76.68849405 91.4375 78.875 C91.89632568 80.01086548 92.35515137 81.14673096 92.82788086 82.3170166 C97.87074771 94.80058834 102.91600595 107.28311137 108 119.75 C108.40259033 120.73806641 108.80518066 121.72613281 109.2199707 122.74414062 C111.33601009 127.9336685 113.45952381 133.12005798 115.58990479 138.30371094 C116.80667848 141.26688134 118.01982137 144.23153089 119.23242188 147.19641113 C119.82028386 148.63125423 120.40976189 150.06543646 121.00097656 151.49890137 C121.81984058 153.4845996 122.63314287 155.47249364 123.4453125 157.4609375 C124.14938232 159.17482666 124.14938232 159.17482666 124.86767578 160.92333984 C125.86925058 163.6447382 126.62938289 166.12690318 127 169 C125.28694453 170.71305547 123.04160693 170.14517686 120.70166016 170.16113281 C119.5702359 170.17074036 118.43881165 170.1803479 117.27310181 170.19024658 C115.42475235 170.1966214 115.42475235 170.1966214 113.5390625 170.203125 C112.28241791 170.20882507 111.02577332 170.21452515 109.73104858 170.22039795 C107.06610487 170.22986577 104.40127427 170.23675333 101.73632812 170.24023438 C98.32078182 170.24571728 94.90563457 170.26973667 91.49021339 170.29820633 C88.23569314 170.32130817 84.9811533 170.32328105 81.7265625 170.328125 C80.49837799 170.3404718 79.27019348 170.3528186 78.00479126 170.36553955 C76.86706268 170.36253845 75.72933411 170.35953735 74.55712891 170.35644531 C73.55420807 170.36009094 72.55128723 170.36373657 71.51797485 170.36749268 C68.57919393 169.93858432 67.75391255 169.34653649 66 167 C65.00768422 164.91984379 64.10223602 162.7976127 63.25 160.65625 C62.99586334 160.024272 62.74172668 159.39229401 62.47988892 158.74116516 C61.64618215 156.66353077 60.8232038 154.58181555 60 152.5 C59.41536468 151.0383298 58.82990504 149.57698905 58.24365234 148.1159668 C57.05345727 145.14807011 55.86672236 142.17882746 54.68261719 139.20849609 C52.36279862 133.39647223 49.99388921 127.60465761 47.625 121.8125 C45.74846023 117.20896032 43.87410069 112.6045331 42 108 C41.56113464 106.92184021 41.56113464 106.92184021 41.11340332 105.82189941 C39.15125688 101.00079335 37.19102961 96.17891187 35.23260498 91.35629272 C34.59183855 89.77897406 33.95062455 88.20183711 33.30889893 86.62490845 C29.92845235 78.31691531 26.5941211 69.9948222 23.359375 61.62890625 C20.68058448 54.70492472 17.89431745 47.83713025 15 41 C12.88831008 35.98864049 10.78736349 30.97287679 8.69628906 25.95288086 C8.06118078 24.43245523 7.42311893 22.91326025 6.78222656 21.39526367 C5.8418937 19.1663884 4.91217692 16.93333424 3.984375 14.69921875 C3.69898865 14.02928391 3.41360229 13.35934906 3.11956787 12.66911316 C1.35573171 8.38473749 0.4741166 4.56577238 0 0 Z " fill="#020403" transform="translate(504,558)"/>
<path d="M0 0 C0.66 0 1.32 0 2 0 C9.90722065 18.84242431 17.54299607 37.78867363 25.11633301 56.76739502 C30.706801 70.77699393 36.32031806 84.7763191 42 98.75 C48.86718854 115.64959741 55.6484932 132.58221159 62.40625 149.52587891 C73.42574871 177.14732376 84.57076944 204.71825574 95.8125 232.25 C99.90387031 242.27214776 103.9339706 252.3178023 107.94506836 262.37231445 C114.0831922 277.7469172 120.30420037 293.08812952 126.51629639 308.43295288 C127.65129593 311.23841617 128.78425093 314.04469851 129.91699219 316.85107422 C131.23584032 320.1172805 132.56425162 323.37924214 133.90332031 326.63720703 C134.1879715 327.33483658 134.47262268 328.03246613 134.76589966 328.75123596 C135.51012388 330.57514858 136.25900839 332.39715775 137.00830078 334.21899414 C138 337 138 337 138 340 C137.01 339.67 136.02 339.34 135 339 C134.17163086 337.23901367 134.17163086 337.23901367 133.52734375 334.98046875 C132.10579262 330.30913213 130.40082907 325.83365397 128.5625 321.3125 C127.84874694 319.54305401 127.13521981 317.77351687 126.421875 316.00390625 C126.03451172 315.04500488 125.64714844 314.08610352 125.24804688 313.09814453 C123.91363812 309.78561575 122.58859546 306.46945691 121.265625 303.15234375 C115.78484377 289.41126197 110.25989807 275.68922043 104.68063354 261.98782349 C100.45702766 251.61384219 96.27954485 241.22227638 92.1295166 230.81866455 C88.53990764 221.82219601 84.91200284 212.84223652 81.25 203.875 C77.16521695 193.87226998 73.12339441 183.85384407 69.12353516 173.81689453 C66.32308014 166.79567549 63.51221751 159.77860711 60.70336914 152.76074219 C58.37538924 146.94350378 56.04876087 141.12575586 53.73190308 135.30407715 C52.48913594 132.18140593 51.24494911 129.05930189 50 125.9375 C49.75352722 125.31937439 49.50705444 124.70124878 49.25311279 124.06439209 C45.05754627 113.55235925 40.73125307 103.09896486 36.37475586 92.65258789 C32.53926185 83.41083761 28.89983195 74.10336488 25.38427734 64.73535156 C23.22185739 59.00937561 20.86238025 53.44297725 18.29223633 47.88916016 C15.84805248 42.4244952 13.72573154 36.83040022 11.5625 31.25 C10.59940483 28.7784718 9.63586672 26.30711615 8.671875 23.8359375 C8.21361328 22.65999023 7.75535156 21.48404297 7.28320312 20.27246094 C5.21280161 14.99246438 3.07690706 9.73972257 0.92578125 4.4921875 C0 2 0 2 0 0 Z " fill="#020303" transform="translate(509,107)"/>
<path d="M0 0 C0.66 0 1.32 0 2 0 C5.64818963 8.85186921 9.29401198 17.70470936 12.93727112 26.55860901 C14.57809702 30.54600204 16.2194667 34.53316796 17.86279297 38.51953125 C29.00717328 65.55575718 39.95503863 92.67022004 50.88508606 119.79364014 C54.88231065 129.71159379 58.88718779 139.62642662 62.90255737 149.53704834 C63.54539341 151.12387392 64.18791599 152.71082653 64.83010864 154.2979126 C65.69581689 156.4372222 66.56256904 158.57610543 67.4296875 160.71484375 C67.90647949 161.89167725 68.38327148 163.06851074 68.87451172 164.28100586 C69.53433605 165.87503266 70.22847041 167.45694081 71 169 C89.15 169.33 107.3 169.66 126 170 C123.69 165.38 121.38 160.76 119 156 C117.57581677 152.72283378 116.19395736 149.46624011 114.87890625 146.1484375 C114.53045151 145.28344635 114.18199677 144.4184552 113.82298279 143.5272522 C112.73065132 140.81200512 111.64639163 138.09362542 110.5625 135.375 C109.8436361 133.58441968 109.12423701 131.79405412 108.40429688 130.00390625 C106.97849752 126.45597659 105.55779031 122.90607369 104.14111328 119.35449219 C102.66587398 115.65800949 101.17846754 111.96670748 99.68310547 108.27832031 C99.31088364 107.35709381 98.9386618 106.43586731 98.55516052 105.48672485 C97.84241229 103.72324279 97.12707562 101.96080412 96.40882874 100.19955444 C96.09207687 99.4139212 95.77532501 98.62828796 95.44897461 97.81884766 C95.02798744 96.78179184 95.02798744 96.78179184 94.59849548 95.7237854 C94 94 94 94 94 92 C94.66 92 95.32 92 96 92 C102.9513593 108.2101722 109.66291526 124.49653112 116.17578125 140.88671875 C116.63549316 142.04220215 117.09520508 143.19768555 117.56884766 144.38818359 C118.58031369 146.9408326 119.58501109 149.49552221 120.58349609 152.05322266 C121.11161923 153.39617239 121.63977592 154.73910893 122.16796875 156.08203125 C122.63871826 157.28706299 123.10946777 158.49209473 123.59448242 159.73364258 C124.88814778 162.99219998 124.88814778 162.99219998 126.73950195 165.68237305 C128 168 128 168 127.57878113 170.14485168 C127.38778336 170.75705063 127.19678558 171.36924957 127 172 C119.09809304 172.10132712 111.19635328 172.17143514 103.29394531 172.21972656 C100.60495534 172.237599 97.91634174 172.26544475 95.22753906 172.30175781 C91.36512439 172.35021615 87.50328792 172.37295626 83.640625 172.390625 C82.4363385 172.41127014 81.232052 172.43191528 79.99127197 172.45318604 C78.30998199 172.45363922 78.30998199 172.45363922 76.59472656 172.45410156 C75.60877502 172.46298401 74.62282349 172.47186646 73.60699463 172.48101807 C70.25943824 171.86335853 69.11744932 170.60637626 67 168 C65.75830078 165.51513672 65.75830078 165.51513672 64.6953125 162.6796875 C64.284021 161.60436768 63.87272949 160.52904785 63.44897461 159.42114258 C62.79360718 157.665802 62.79360718 157.665802 62.125 155.875 C61.15242382 153.33355887 60.17752802 150.79313377 59.19921875 148.25390625 C58.94372757 147.58822128 58.68823639 146.92253632 58.42500305 146.23667908 C55.39597678 138.37381297 52.16535343 130.59530434 48.9375 122.8125 C47.73587051 119.90931184 46.53551707 117.00559824 45.3359375 114.1015625 C45.04651779 113.40096207 44.75709808 112.70036163 44.45890808 111.97853088 C41.950855 105.89842257 39.49459873 99.79839066 37.0625 93.6875 C32.93513128 83.31724854 28.75777282 72.96792036 24.5625 62.625 C24.24123138 61.83274017 23.91996277 61.04048035 23.58895874 60.22421265 C20.32436283 52.17462691 17.05475159 44.12712997 13.76953125 36.0859375 C13.27702881 34.8798584 12.78452637 33.6737793 12.27709961 32.43115234 C11.38205858 30.24084996 10.48585547 28.05102185 9.58813477 25.86181641 C1.15597714 5.23413866 1.15597714 5.23413866 0 0 Z " fill="#020302" transform="translate(689,556)"/>
<path d="M0 0 C0.495 0.99 0.495 0.99 1 2 C0.01 4.31 -0.98 6.62 -2 9 C-50.51 9.495 -50.51 9.495 -100 10 C-103.114375 18.023125 -106.22875 26.04625 -109.4375 34.3125 C-110.42032959 36.84333252 -111.40315918 39.37416504 -112.41577148 41.98168945 C-113.19260196 43.98386484 -113.96937968 45.9860607 -114.74609375 47.98828125 C-115.15122192 49.0309314 -115.5563501 50.07358154 -115.97375488 51.14782715 C-116.35938599 52.14229858 -116.74501709 53.13677002 -117.14233398 54.16137695 C-117.47764633 55.02519485 -117.81295868 55.88901276 -118.15843201 56.77900696 C-118.81232148 58.50469516 -119.41642728 60.24928183 -120 62 C-88.65 62 -57.3 62 -25 62 C-25.74381287 67.20669011 -26.32976302 70.36592688 -28.2578125 74.9921875 C-28.94460083 76.65737427 -28.94460083 76.65737427 -29.64526367 78.35620117 C-30.13357666 79.51740479 -30.62188965 80.6786084 -31.125 81.875 C-31.86617065 83.66417847 -31.86617065 83.66417847 -32.62231445 85.48950195 C-33.61326068 87.88026666 -34.60742967 90.26969837 -35.60498047 92.65771484 C-37.17556103 96.42062137 -38.72730893 100.19097681 -40.27490234 103.96337891 C-41.51169983 106.97761783 -42.75563041 109.98888042 -44 113 C-44.66 113 -45.32 113 -46 113 C-45.27127677 108.18659131 -43.53001318 103.87540185 -41.75 99.375 C-41.43426025 98.56957764 -41.11852051 97.76415527 -40.79321289 96.93432617 C-39.10930902 92.67644886 -37.36196611 88.46859457 -35.4375 84.3125 C-32.37999878 77.6487153 -29.72293808 70.80734519 -27 64 C-58.35 64 -89.7 64 -122 64 C-123.22231038 60.33306887 -122.65998761 59.4553565 -121.26171875 55.93359375 C-120.85816162 54.90226318 -120.45460449 53.87093262 -120.03881836 52.80834961 C-119.36991577 51.13977905 -119.36991577 51.13977905 -118.6875 49.4375 C-117.76524584 47.09389917 -116.84338285 44.75014438 -115.921875 42.40625 C-115.44169922 41.19324219 -114.96152344 39.98023438 -114.46679688 38.73046875 C-112.99764298 35.00750478 -111.56618554 31.27113434 -110.140625 27.53125 C-109.68727783 26.34217041 -109.23393066 25.15309082 -108.7668457 23.92797852 C-107.88943111 21.62414078 -107.01294683 19.3199485 -106.13745117 17.01538086 C-105.74017822 15.97776611 -105.34290527 14.94015137 -104.93359375 13.87109375 C-104.58353271 12.95255615 -104.23347168 12.03401855 -103.87280273 11.08764648 C-103 9 -103 9 -102 8 C-98.95670813 7.87463144 -95.93502627 7.81387557 -92.89038086 7.79467773 C-91.93438492 7.78477814 -90.97838898 7.77487854 -89.99342346 7.76467896 C-86.81725586 7.73296148 -83.64107327 7.70826619 -80.46484375 7.68359375 C-78.26908467 7.66303306 -76.07332964 7.64203684 -73.87757874 7.62062073 C-68.08583842 7.56530861 -62.29406186 7.51593978 -56.5022583 7.46777344 C-50.59717566 7.41762497 -44.69214596 7.36190425 -38.78710938 7.30664062 C-27.19145142 7.19894733 -15.5957476 7.09752733 -4 7 C-3.525625 6.030625 -3.05125 5.06125 -2.5625 4.0625 C-1 1 -1 1 0 0 Z " fill="#010101" transform="translate(215,439)"/>
<path d="M0 0 C0.33 0.66 0.66 1.32 1 2 C0.01 4.64 -0.98 7.28 -2 10 C77.86 10 157.72 10 240 10 C243.375 16.75 243.375 16.75 243 21 C241 19 241 19 239 12 C158.81 12 78.62 12 -4 12 C-5.11841676 8.64474971 -4.91538821 8.02910146 -3.6875 4.875 C-3.42324219 4.17117188 -3.15898437 3.46734375 -2.88671875 2.7421875 C-2 1 -2 1 0 0 Z " fill="#000000" transform="translate(183,662)"/>
<path d="M0 0 C1 2 1 2 0.20239258 4.50488281 C-0.22920166 5.56030273 -0.6607959 6.61572266 -1.10546875 7.703125 C-1.82996216 9.49266602 -1.82996216 9.49266602 -2.5690918 11.31835938 C-3.10847508 12.62894169 -3.64794687 13.93948759 -4.1875 15.25 C-4.73753915 16.60188665 -5.28676264 17.95410543 -5.83520508 19.30664062 C-6.97948363 22.12692546 -8.12730868 24.94572985 -9.27734375 27.76367188 C-10.92152095 31.79891821 -12.54338243 35.84277627 -14.15625 39.890625 C-14.41199295 40.532276 -14.6677359 41.173927 -14.93122864 41.83502197 C-15.68355076 43.7232558 -16.43555726 45.61161506 -17.1875 47.5 C-20.64472094 56.17806453 -24.15254192 64.83397345 -27.69262695 73.47851562 C-28.31565578 75.00064667 -28.31565578 75.00064667 -28.95127106 76.55352783 C-29.96731737 79.03576581 -30.98356502 81.51792115 -32 84 C-31.1645506 83.99907821 -30.3291012 83.99815641 -29.46833515 83.99720669 C-9.14601859 83.9751285 11.17629591 83.95857722 31.49862194 83.94818783 C41.32631549 83.94303014 51.15400104 83.93599745 60.98168945 83.92456055 C69.54685497 83.91459764 78.11201469 83.90814273 86.67718583 83.90591151 C91.21293595 83.90460714 95.74866949 83.90153853 100.28441429 83.89426994 C104.55329114 83.88748442 108.82214457 83.88538822 113.09102631 83.88689232 C114.65794566 83.88661713 116.22486579 83.88462703 117.79178047 83.88079453 C119.93142144 83.87581775 122.07097404 83.87701644 124.21061707 83.87974548 C126.00673069 83.87836279 126.00673069 83.87836279 127.83912945 83.87695217 C130.68494551 83.98773541 133.23518027 84.34400268 136 85 C136 85.33 136 85.66 136 86 C79.9 86 23.8 86 -34 86 C-35 84 -35 84 -34.34179688 81.78979492 C-33.97119141 80.86271729 -33.60058594 79.93563965 -33.21875 78.98046875 C-32.79625977 77.91352783 -32.37376953 76.84658691 -31.93847656 75.74731445 C-31.4637793 74.57257568 -30.98908203 73.39783691 -30.5 72.1875 C-30.01241211 70.96442139 -29.52482422 69.74134277 -29.02246094 68.48120117 C-27.65721264 65.06022953 -26.28066713 61.64391308 -24.90063477 58.22888184 C-23.97096228 55.92813773 -23.04297486 53.62671908 -22.11523438 51.32519531 C-18.36025026 42.01404669 -14.59578059 32.70672105 -10.79882812 23.41259766 C-9.54284465 20.33805837 -8.29889268 17.25892931 -7.06054688 14.17724609 C-6.4311015 12.62202501 -5.80154784 11.06684775 -5.171875 9.51171875 C-4.88274231 8.78636429 -4.59360962 8.06100983 -4.29571533 7.31367493 C-2.22639308 2.22639308 -2.22639308 2.22639308 0 0 Z " fill="#020202" transform="translate(304,362)"/>
<path d="M0 0 C0.66 0 1.32 0 2 0 C24.29199219 55.72998047 24.29199219 55.72998047 25.36207581 58.40519714 C26.04772755 60.11932146 26.73338621 61.833443 27.41905212 63.54756165 C29.05142356 67.62840319 30.68367843 71.70929127 32.31567383 75.7902832 C35.19080864 82.97955799 38.06687504 90.16845349 40.9473877 97.35557556 C42.22498262 100.54344588 43.50194614 103.73156894 44.77886963 106.91970825 C45.37127461 108.39825352 45.96399228 109.87667355 46.55706787 111.35494995 C49.64815338 119.05977843 52.70751263 126.77316465 55.63989258 134.5402832 C57.26131696 138.66471418 58.97567952 142.74691065 60.68565369 146.83528137 C62.70969333 151.70881882 64.66451392 156.60924504 66.6171875 161.51171875 C67.03743195 162.56422318 67.45767639 163.6167276 67.89065552 164.7011261 C69.66232617 169.13835298 71.43193094 173.57640282 73.20166016 178.0144043 C74.50608281 181.2846436 75.81151454 184.55447847 77.1171875 187.82421875 C77.53611267 188.87495575 77.95503784 189.92569275 78.38665771 191.00827026 C80.29079813 195.77367728 82.21041179 200.53053271 84.19238281 205.26416016 C84.52287628 206.05458206 84.85336975 206.84500397 85.19387817 207.65937805 C85.79983971 209.10188243 86.4104115 210.54246288 87.02658081 211.9806366 C88.22791166 214.83678886 89 216.86488102 89 220 C88.34 220 87.68 220 87 220 C48.3515625 123.37890625 48.3515625 123.37890625 47.0090332 120.02246094 C46.07018011 117.67541102 45.13121149 115.32840732 44.19213867 112.98144531 C41.22506895 105.56565356 38.26033419 98.14893364 35.29769897 90.73136902 C33.44800414 86.10068539 31.59760779 81.47028225 29.74707031 76.8399353 C28.79257986 74.45137412 27.83831463 72.06272293 26.88427734 69.67398071 C21.89153108 57.17450038 16.88385781 44.68181011 11.80078125 32.21875 C11.1981118 30.73915802 11.1981118 30.73915802 10.58326721 29.22967529 C8.70449534 24.61812452 6.82054612 20.00882523 4.92700195 15.40332031 C4.2662358 13.78458806 3.60566053 12.16577787 2.9453125 10.546875 C2.4923455 9.45409241 2.4923455 9.45409241 2.03022766 8.3392334 C0.83547071 5.39759443 0 3.20782286 0 0 Z " fill="#020403" transform="translate(609,212)"/>
<path d="M0 0 C0.66 0 1.32 0 2 0 C2 1.32 2 2.64 2 4 C-46.015 4.495 -46.015 4.495 -95 5 C-88.09081852 22.27295371 -81.15671116 39.49774353 -74.01953125 56.671875 C-70.32488836 65.60069571 -66.74483362 74.5747254 -63.17480469 83.55395508 C-60.15482401 91.14279282 -57.09948584 98.71391474 -53.87768555 106.21972656 C-52.70237048 109.00881233 -52 110.93408213 -52 114 C-52.66 114 -53.32 114 -54 114 C-64.30372461 88.87684617 -74.55279819 63.73198834 -84.65936279 38.52883911 C-85.63380499 36.09955101 -86.6094254 33.67073518 -87.58624268 31.24240112 C-88.95950751 27.82708355 -90.32809453 24.40992949 -91.6953125 20.9921875 C-92.1027771 19.98067123 -92.5102417 18.96915497 -92.93005371 17.92698669 C-94.89581155 12.99673666 -96.66473741 8.13857569 -98 3 C-94.59478859 1.2973943 -90.70607881 1.87135179 -86.96044922 1.88647461 C-86.02381439 1.88632858 -85.08717957 1.88618256 -84.12216187 1.8860321 C-81.01631378 1.88673056 -77.91052515 1.89451985 -74.8046875 1.90234375 C-72.65520256 1.90420817 -70.5057172 1.90563196 -68.35623169 1.90663147 C-62.69104851 1.91045478 -57.02589085 1.92028349 -51.36071777 1.93133545 C-45.58292994 1.94155356 -39.805138 1.94612995 -34.02734375 1.95117188 C-22.6848846 1.96190591 -11.34244442 1.97898011 0 2 C0 1.34 0 0.68 0 0 Z " fill="#020303" transform="translate(822,499)"/>
<path d="M0 0 C13.71876252 -0.02331909 27.43752022 -0.04101376 41.15629864 -0.05181217 C47.52860407 -0.05699863 53.90089581 -0.06401791 60.27319336 -0.07543945 C66.4394373 -0.08642068 72.60566818 -0.09230862 78.77192116 -0.09487724 C81.10745257 -0.09670436 83.44298339 -0.10027117 85.77850914 -0.10573006 C100.21874866 -0.13809464 114.58308946 0.15900014 129 1 C136.10207513 17.95928599 143.08751872 34.96269674 150 52 C149.01 52 148.02 52 147 52 C145.43581421 48.23686364 143.87345042 44.47297567 142.3125 40.70849609 C141.53212511 38.82743619 140.75046507 36.9469096 139.96875 35.06640625 C135.5523644 24.411876 131.28457781 13.71144453 127 3 C85.42 2.67 43.84 2.34 1 2 C1.33 3.32 1.66 4.64 2 6 C1.34 6 0.68 6 0 6 C-1.125 2.25 -1.125 2.25 0 0 Z " fill="#000100" transform="translate(540,501)"/>
<path d="M0 0 C3 1 3 1 4.15991211 3.20776367 C4.52866455 4.18463135 4.89741699 5.16149902 5.27734375 6.16796875 C5.70200928 7.27317871 6.1266748 8.37838867 6.56420898 9.51708984 C7.01739502 10.7283252 7.47058105 11.93956055 7.9375 13.1875 C8.42190966 14.45575688 8.90769299 15.72348986 9.39477539 16.99072266 C10.15753031 18.97545872 10.91948242 20.96046103 11.67747498 22.94702148 C14.35244768 29.95468904 17.13987996 36.91538072 19.9375 43.875 C20.69273556 45.75809243 21.44747594 47.64138281 22.20217896 49.52468872 C22.70794495 50.78669316 23.21386532 52.04863574 23.71994019 53.31051636 C25.49743285 57.74299987 27.2695221 62.17761767 29.0390625 66.61328125 C35.16142441 81.95617617 41.34731266 97.27199827 47.59716797 112.56347656 C49.10069936 116.24668363 50.59974294 119.93169328 52.09765625 123.6171875 C52.60927675 124.87541376 53.12091392 126.13363324 53.63256836 127.3918457 C54.60917093 129.79381194 55.58526543 132.19598483 56.56079102 134.59838867 C56.99705811 135.67064697 57.4333252 136.74290527 57.8828125 137.84765625 C58.26840332 138.79648682 58.65399414 139.74531738 59.05126953 140.72290039 C59.65381604 142.16910504 60.29934742 143.59869485 61 145 C59.18945312 144.91870117 59.18945312 144.91870117 57 144 C55.77338483 141.74263366 54.8577054 139.69005805 53.96875 137.30078125 C53.69661179 136.60767853 53.42447357 135.91457581 53.14408875 135.20046997 C52.24833108 132.90979476 51.37449647 130.61136638 50.5 128.3125 C49.87442873 126.70322441 49.24721138 125.09458779 48.6184082 123.48657227 C47.3397249 120.21211992 46.06843708 116.93495288 44.80322266 113.65527344 C42.3194974 107.22729072 39.75546883 100.83226336 37.1875 94.4375 C36.47799194 92.66234009 36.47799194 92.66234009 35.75415039 90.85131836 C31.72029491 80.7595347 27.63484009 70.6888133 23.54977417 60.61767578 C18.19344687 47.40989882 12.84892572 34.1983037 7.625 20.9375 C7.1911499 19.83970215 6.7572998 18.7419043 6.31030273 17.61083984 C4.02825621 11.78933961 1.91971062 5.95110292 0 0 Z " fill="#030303" transform="translate(459,302)"/>
<path d="M0 0 C1.66869141 -0.00193359 1.66869141 -0.00193359 3.37109375 -0.00390625 C4.53769531 -0.00003906 5.70429688 0.00382812 6.90625 0.0078125 C8.07285156 0.00394531 9.23945313 0.00007813 10.44140625 -0.00390625 C11.55386719 -0.00261719 12.66632813 -0.00132813 13.8125 0 C14.83666016 0.00112793 15.86082031 0.00225586 16.91601562 0.00341797 C19.40625 0.1328125 19.40625 0.1328125 21.40625 1.1328125 C22.37670898 3.02099609 22.37670898 3.02099609 23.40234375 5.53125 C23.78994873 6.47057373 24.17755371 7.40989746 24.5769043 8.37768555 C25.20399292 9.92709839 25.20399292 9.92709839 25.84375 11.5078125 C26.2869458 12.58780518 26.7301416 13.66779785 27.18676758 14.78051758 C28.59979172 18.22865352 30.00330238 21.68056623 31.40625 25.1328125 C32.26510938 27.23328382 33.12447274 29.33354915 33.984375 31.43359375 C38.09896264 41.49621624 42.17985212 51.57251145 46.26171875 61.6484375 C46.59417099 62.46895096 46.92662323 63.28946442 47.26914978 64.13484192 C48.91110054 68.18740961 50.55237686 72.24024726 52.19213867 76.29370117 C52.80256959 77.80127035 53.41300248 79.30883873 54.0234375 80.81640625 C54.46025597 81.89748909 54.46025597 81.89748909 54.90589905 83.00041199 C57.05558463 88.30783859 59.28179832 93.5798378 61.56298828 98.83227539 C62.40625 101.1328125 62.40625 101.1328125 62.40625 104.1328125 C61.74625 104.1328125 61.08625 104.1328125 60.40625 104.1328125 C60.07004639 103.30483154 59.73384277 102.47685059 59.38745117 101.6237793 C57.78970857 97.68922626 56.19178149 93.75474821 54.59375 89.8203125 C54.29803101 89.09221375 54.00231201 88.36411499 53.69763184 87.61395264 C49.85731 78.15912065 46.01073106 68.7068827 42.15625 59.2578125 C34.53315117 40.56563627 26.97530285 21.84691854 19.40625 3.1328125 C11.15625 3.1328125 2.90625 3.1328125 -5.59375 3.1328125 C-5.92375 3.7928125 -6.25375 4.4528125 -6.59375 5.1328125 C-7.25375 5.1328125 -7.91375 5.1328125 -8.59375 5.1328125 C-8.21875 3.1953125 -8.21875 3.1953125 -7.59375 1.1328125 C-4.95377351 -0.18717575 -2.95297683 0.00325218 0 0 Z " fill="#020202" transform="translate(357.59375,97.8671875)"/>
<path d="M0 0 C1 2 1 2 0.29418945 4.3371582 C-0.09551025 5.31515381 -0.48520996 6.29314941 -0.88671875 7.30078125 C-1.32443604 8.40824707 -1.76215332 9.51571289 -2.21313477 10.65673828 C-2.69967529 11.86313965 -3.18621582 13.06954102 -3.6875 14.3125 C-4.19049591 15.5751697 -4.69301101 16.83803103 -5.19506836 18.10107422 C-9.21864109 28.18986226 -13.38903231 38.21732953 -17.57128906 48.24121094 C-21.41646193 57.4921708 -25.07070642 66.80631651 -28.61547852 76.17626953 C-30.88382537 82.16282433 -33.2738946 88.08020266 -35.75708008 93.98071289 C-37.01015178 97.0246606 -38.19157746 100.08743669 -39.3515625 103.16796875 C-39.72796875 104.16248047 -40.104375 105.15699219 -40.4921875 106.18164062 C-41.26255203 108.22576306 -42.02529867 110.27276919 -42.78125 112.32226562 C-43.15507812 113.30259766 -43.52890625 114.28292969 -43.9140625 115.29296875 C-44.2435791 116.1749292 -44.5730957 117.05688965 -44.91259766 117.96557617 C-46 120 -46 120 -49 121 C-46.87070047 112.90841995 -43.75683555 105.27517647 -40.5335083 97.5718689 C-34.47425999 83.08303272 -28.59316125 68.52454361 -22.78515625 53.93359375 C-22.150192 52.33954075 -21.51520763 50.74549576 -20.88020325 49.15145874 C-18.00062199 41.92079745 -15.12470819 34.68871915 -12.25833416 27.45281124 C-11.04911722 24.40330996 -9.83573686 21.35547725 -8.62135124 18.30803108 C-8.04888291 16.86859648 -7.47829983 15.42841058 -6.90966988 13.98745537 C-6.12562639 12.00104479 -5.33530819 10.01724401 -4.54345703 8.03393555 C-4.09874054 6.91246628 -3.65402405 5.79099701 -3.1958313 4.63554382 C-2 2 -2 2 0 0 Z " fill="#010201" transform="translate(353,240)"/>
<path d="M0 0 C1 2 1 2 0.45759583 3.87817383 C-0.01484306 5.03095825 -0.01484306 5.03095825 -0.49682617 6.20703125 C-0.85351379 7.08840256 -1.21020142 7.96977386 -1.57769775 8.87785339 C-2.1792569 10.33050346 -2.1792569 10.33050346 -2.79296875 11.8125 C-3.41325958 13.33699516 -3.41325958 13.33699516 -4.04608154 14.89228821 C-5.41967594 18.26437695 -6.80374345 21.63207016 -8.1875 25 C-9.62882771 28.53246953 -11.06735726 32.0660709 -12.50587463 35.59968567 C-13.4994633 38.03966133 -14.49397446 40.47926152 -15.48936462 42.91850281 C-20.70116447 55.69157667 -25.82358911 68.49999244 -30.9375 81.3125 C-31.76642953 83.38740601 -32.59544743 85.46227672 -33.42456055 87.53710938 C-34.93959626 91.32875183 -36.4541806 95.12057391 -37.96826172 98.91259766 C-40.64243467 105.60962805 -43.32080614 112.30497687 -46 119 C-46.66 119 -47.32 119 -48 119 C-47.32832192 115.00606318 -46.12905056 111.45176946 -44.6640625 107.6796875 C-44.42915604 107.07232758 -44.19424957 106.46496765 -43.95222473 105.83920288 C-43.18089887 103.84938655 -42.40325437 101.86211572 -41.625 99.875 C-41.08073298 98.47756927 -40.53654459 97.08010792 -39.99243164 95.68261719 C-35.24066355 83.50711176 -30.32773412 71.39896353 -25.35888672 59.31054688 C-23.52237436 54.83639892 -21.69820967 50.35726781 -19.875 45.87768555 C-18.96585197 43.6443647 -18.05571234 41.41144722 -17.14453125 39.17895508 C-14.9861568 33.88961971 -12.83506705 28.59761019 -10.70675659 23.29611206 C-9.94411323 21.39728513 -9.1794098 19.499301 -8.4140625 17.6015625 C-7.44767517 15.20349023 -6.48527522 12.8038063 -5.52734375 10.40234375 C-5.09421875 9.32984375 -4.66109375 8.25734375 -4.21484375 7.15234375 C-3.83448975 6.20351318 -3.45413574 5.25468262 -3.06225586 4.27709961 C-2 2 -2 2 0 0 Z " fill="#020403" transform="translate(161,573)"/>
<path d="M0 0 C1 2 1 2 0.1661377 4.54962158 C-0.28507446 5.63313904 -0.73628662 6.71665649 -1.20117188 7.83300781 C-1.44868698 8.43430763 -1.69620209 9.03560745 -1.95121765 9.65512848 C-2.49507442 10.97408743 -3.0424589 12.29159576 -3.59284973 13.60784149 C-4.7931759 16.47919993 -5.97619643 19.35758573 -7.16027069 22.23567581 C-7.7929595 23.7732103 -8.42650974 25.31039056 -9.06085968 26.84724045 C-12.32840674 34.77019278 -15.51429625 42.72511823 -18.68942261 50.68547058 C-19.65996144 53.11867983 -20.63169313 55.55140953 -21.60375977 57.98400879 C-23.57020985 62.90559219 -25.53521164 67.82775302 -27.5 72.75 C-29.82121158 78.56498092 -32.14306458 84.37970434 -34.46635437 90.19385529 C-35.37596194 92.47104912 -36.28451237 94.74866261 -37.19299316 97.02630615 C-40.39529226 105.0460922 -43.6480544 113.04120606 -47 121 C-47.66 121 -48.32 121 -49 121 C-46.84731077 113.11900585 -43.94695962 105.6619237 -40.8125 98.125 C-39.81462193 95.70071928 -38.81722856 93.27623898 -37.8203125 90.8515625 C-37.3346582 89.67368164 -36.84900391 88.49580078 -36.34863281 87.28222656 C-34.60215282 83.03174196 -32.88789969 78.76908858 -31.1875 74.5 C-30.55729406 72.91926988 -29.92708557 71.33854077 -29.296875 69.7578125 C-28.94818359 68.88286133 -28.59949219 68.00791016 -28.24023438 67.10644531 C-26.71064351 63.27524173 -25.17566361 59.44621086 -23.640625 55.6171875 C-22.71827853 53.31554305 -21.79604966 51.01385154 -20.87390137 48.71212769 C-20.2514042 47.15846125 -19.62876503 45.6048517 -19.00598145 44.05130005 C-15.59269819 35.53445635 -12.21116033 27.00920904 -8.9375 18.4375 C-3.03576535 3.03576535 -3.03576535 3.03576535 0 0 Z " fill="#030603" transform="translate(264,317)"/>
<path d="M0 0 C3.40694063 2.7181475 4.61311866 6.43245479 6.15234375 10.3671875 C6.44863678 11.10585556 6.74492981 11.84452362 7.05020142 12.60557556 C8.01957294 15.02600926 8.97844165 17.45046367 9.9375 19.875 C10.94638252 22.4013127 11.95797687 24.92652815 12.96977234 27.45167542 C13.65334642 29.15806526 14.33605038 30.86480393 15.01789856 32.57188416 C18.12739189 40.34923571 21.33581355 48.0832202 24.5625 55.8125 C28.58151086 65.47609325 32.42007019 75.16584756 36 85 C37.11908979 88.00222482 38.24706348 91.00108968 39.375 94 C39.88296571 95.3541092 40.39079359 96.70827013 40.8984375 98.0625 C41.26195312 99.031875 41.62546875 100.00125 42 101 C39 100 39 100 37.72900391 97.49072266 C37.31569824 96.3929248 36.90239258 95.29512695 36.4765625 94.1640625 C36.0125 92.95363281 35.5484375 91.74320312 35.0703125 90.49609375 C34.5879382 89.20595464 34.10617039 87.9155886 33.625 86.625 C29.81055607 76.45622475 29.81055607 76.45622475 25.5 66.4921875 C22.75580189 60.58852937 20.43538441 54.54316294 18.12097168 48.46032715 C14.76079955 39.63018408 11.36724291 30.81616713 7.7734375 22.078125 C7.51682343 21.45381592 7.26020935 20.82950684 6.99581909 20.1862793 C5.77309857 17.21759076 4.5418537 14.25269532 3.30224609 11.29101562 C2.86734863 10.24107422 2.43245117 9.19113281 1.984375 8.109375 C1.59991211 7.19124023 1.21544922 6.27310547 0.81933594 5.32714844 C0 3 0 3 0 0 Z " fill="#020302" transform="translate(411,326)"/>
<path d="M0 0 C3 1 3 1 4.20410156 3.28027344 C4.5956543 4.29637695 4.98720703 5.31248047 5.390625 6.359375 C5.84598633 7.52130371 6.30134766 8.68323242 6.77050781 9.88037109 C7.26369805 11.17023739 7.75686137 12.46011397 8.25 13.75 C9.03321973 15.76091383 9.82053678 17.77019592 10.60784912 19.7795105 C11.1686179 21.21171306 11.72803097 22.64444708 12.28619385 24.07766724 C15.52025654 32.37287204 18.87440469 40.61896891 22.22937012 48.86584473 C23.24559655 51.36417439 24.2602717 53.86312839 25.27441406 56.36230469 C26.84872626 60.24189567 28.42404525 64.12107598 30 68 C29.01 68 28.02 68 27 68 C20.58920695 52.33214405 14.23387551 36.64412126 7.97363281 20.91552734 C5.71415915 15.24695614 3.44775499 9.59014314 1 4 C0.74307373 4.69150146 0.48614746 5.38300293 0.22143555 6.09545898 C-0.94477738 9.21402206 -2.12836401 12.32570078 -3.3125 15.4375 C-3.71662109 16.52611328 -4.12074219 17.61472656 -4.53710938 18.73632812 C-4.93349609 19.77080078 -5.32988281 20.80527344 -5.73828125 21.87109375 C-6.09962158 22.82943115 -6.46096191 23.78776855 -6.83325195 24.77514648 C-8 27 -8 27 -11 28 C-9.30570206 21.43257847 -6.95472402 15.19804176 -4.375 8.9375 C-4.06167725 8.1751001 -3.74835449 7.4127002 -3.42553711 6.62719727 C-1.13376371 1.13376371 -1.13376371 1.13376371 0 0 Z " fill="#020202" transform="translate(364,211)"/>
<path d="M0 0 C3 1 3 1 4.15991211 3.20776367 C4.52866455 4.18463135 4.89741699 5.16149902 5.27734375 6.16796875 C5.70208984 7.27342041 6.12683594 8.37887207 6.56445312 9.51782227 C7.01755859 10.72881592 7.47066406 11.93980957 7.9375 13.1875 C8.42117028 14.45356239 8.90622098 15.71909819 9.39257812 16.98413086 C10.1545815 18.96652227 10.91574925 20.94919176 11.67294312 22.9334259 C14.37296592 30.00689936 17.17998011 37.03619478 20 44.0625 C20.49851344 45.30743054 20.9969672 46.55238497 21.49536133 47.79736328 C26.26278282 59.6960402 31.09944863 71.56640343 35.95361328 83.42993164 C36.2989209 84.2780542 36.64422852 85.12617676 37 86 C37.37495605 86.87325928 37.74991211 87.74651855 38.13623047 88.64624023 C39 91 39 91 39 94 C38.34 94 37.68 94 37 94 C35.78131735 90.95329337 34.56264148 87.90658403 33.34399414 84.85986328 C32.26520287 82.16286413 31.18624386 79.46593216 30.10717773 76.76904297 C27.39819527 69.99813834 24.6907127 63.22664732 21.98828125 56.453125 C21.01312844 54.01037371 20.03786862 51.56766513 19.0625 49.125 C18.57974609 47.91537598 18.09699219 46.70575195 17.59960938 45.45947266 C14.87912371 38.65169541 12.13072485 31.85595436 9.35546875 25.0703125 C9.05330948 24.33060211 8.75115021 23.59089172 8.43983459 22.82876587 C6.96827184 19.22662744 5.49326347 15.62597712 4.01196289 12.02783203 C3.48179044 10.73215492 2.95175385 9.43642221 2.421875 8.140625 C1.95362305 7.00141602 1.48537109 5.86220703 1.00292969 4.68847656 C0 2 0 2 0 0 Z " fill="#030404" transform="translate(420,205)"/>
<path d="M0 0 C26.4 0 52.8 0 80 0 C96 38.66666667 96 38.66666667 96 42 C95.34 42 94.68 42 94 42 C92.19980182 37.60902011 90.40349438 33.21647521 88.6105957 28.82250977 C88.0016068 27.33152583 87.39160251 25.84095617 86.78051758 24.35083008 C85.89649951 22.19463556 85.01628463 20.03692015 84.13671875 17.87890625 C83.73340584 16.8986422 83.73340584 16.8986422 83.32194519 15.89857483 C81.32017493 10.97207956 79.69126631 6.07379893 78 1 C52.26 1 26.52 1 0 1 C0 0.67 0 0.34 0 0 Z " fill="#010101" transform="translate(723,447)"/>
<path d="M0 0 C0.98436035 0.00142502 1.9687207 0.00285004 2.98291016 0.00431824 C4.09746582 0.00124161 5.21202148 -0.00183502 6.36035156 -0.00500488 C8.172854 0.00577339 8.172854 0.00577339 10.02197266 0.01676941 C11.25737793 0.01722763 12.4927832 0.01768585 13.765625 0.01815796 C17.05289495 0.02195979 20.33997278 0.03497908 23.62719727 0.05162048 C26.97233332 0.06506491 30.3174355 0.06189636 33.66259766 0.06169128 C36.19905799 0.06660714 38.73551676 0.07243575 41.27197266 0.07926941 C43.0844751 0.08093864 43.0844751 0.08093864 44.93359375 0.0826416 C46.04814941 0.08902145 47.16270508 0.09540131 48.31103516 0.10197449 C49.29539551 0.10578629 50.27975586 0.10959808 51.29394531 0.11352539 C53.64697266 0.24723816 53.64697266 0.24723816 55.64697266 1.24723816 C56.77471597 3.69555135 57.79760727 6.11406314 58.77197266 8.62223816 C59.04912109 9.30801941 59.32626953 9.99380066 59.61181641 10.70036316 C60.79204699 13.68873025 61.64697266 16.00621453 61.64697266 19.24723816 C60.98697266 19.24723816 60.32697266 19.24723816 59.64697266 19.24723816 C58.64277628 16.79054346 57.64346765 14.33205463 56.64697266 11.87223816 C56.36080078 11.17356628 56.07462891 10.47489441 55.77978516 9.75505066 C53.64697266 4.47380066 53.64697266 4.47380066 53.64697266 2.24723816 C35.16697266 2.24723816 16.68697266 2.24723816 -2.35302734 2.24723816 C-1.69302734 3.89723816 -1.03302734 5.54723816 -0.35302734 7.24723816 C-1.34302734 6.91723816 -2.33302734 6.58723816 -3.35302734 6.24723816 C-4.16552734 4.30973816 -4.16552734 4.30973816 -4.35302734 2.24723816 C-2.35302734 0.24723816 -2.35302734 0.24723816 0 0 Z " fill="#000000" transform="translate(510.35302734375,97.75276184082031)"/>
<path d="M0 0 C1 2 1 2 0.38357544 4.10455322 C0.03543793 4.9752948 -0.31269958 5.84603638 -0.67138672 6.74316406 C-1.06284882 7.73310364 -1.45431091 8.72304321 -1.8576355 9.74298096 C-2.29391266 10.82295349 -2.73018982 11.90292603 -3.1796875 13.015625 C-3.84896774 14.6977005 -3.84896774 14.6977005 -4.5317688 16.41375732 C-5.97230999 20.02876109 -7.42361334 23.63933884 -8.875 27.25 C-9.81578898 29.60779978 -10.75590081 31.96586988 -11.6953125 34.32421875 C-17.38349956 48.58223097 -23.15994443 62.80356483 -29 77 C-29.66 77 -30.32 77 -31 77 C-28.9228172 69.50955293 -26.25746164 62.37582465 -23.3125 55.1875 C-20.01574667 47.0523635 -16.78472701 38.90074265 -13.6875 30.6875 C-3.34466429 3.34466429 -3.34466429 3.34466429 0 0 Z " fill="#020302" transform="translate(349,104)"/>
<path d="M0 0 C0.33 0.66 0.66 1.32 1 2 C0.28724071 4.10737076 -0.53638865 6.17737751 -1.40234375 8.2265625 C-1.67139023 8.87057007 -1.94043671 9.51457764 -2.21763611 10.17810059 C-2.8070689 11.58725492 -3.39995027 12.99497038 -3.99578857 14.40142822 C-5.60827501 18.20883593 -7.19531878 22.02684269 -8.78515625 25.84375 C-9.12244751 26.65176056 -9.45973877 27.45977112 -9.80725098 28.29226685 C-13.9319279 38.19541903 -17.90284265 48.15993468 -21.875 58.125 C-22.58973371 59.91618982 -23.30449542 61.70736847 -24.01928711 63.49853516 C-25.6813465 67.66496618 -27.34133297 71.83221738 -29 76 C-29.66 76 -30.32 76 -31 76 C-28.8946948 68.33698723 -26.11585096 61.08032538 -23.0625 53.75 C-22.08226757 51.37413735 -21.10314425 48.99781687 -20.125 46.62109375 C-19.87214737 46.00775681 -19.61929474 45.39441986 -19.35877991 44.76249695 C-17.45588267 40.13726606 -15.59424443 35.49655583 -13.75 30.84765625 C-13.48263535 30.17449371 -13.21527069 29.50133118 -12.93980408 28.80776978 C-11.89164597 26.16745537 -10.84395786 23.52698126 -9.80276489 20.88391113 C-2.59662617 2.59662617 -2.59662617 2.59662617 0 0 Z " fill="#020202" transform="translate(295,240)"/>
<path d="M0 0 C3 1 3 1 4.17578125 3.25537109 C4.55089844 4.25133301 4.92601562 5.24729492 5.3125 6.2734375 C5.74328857 7.3965332 6.17407715 8.51962891 6.61791992 9.67675781 C7.07400635 10.89717773 7.53009277 12.11759766 8 13.375 C8.72270283 15.2704821 9.44968411 17.16428551 10.17704773 19.0579834 C10.68014887 20.36814412 11.18201224 21.67878076 11.68269348 22.98986816 C14.41110029 30.12021781 17.29230912 37.18607666 20.1875 44.25 C20.66896484 45.42739746 21.15042969 46.60479492 21.64648438 47.81787109 C22.76270647 50.54591463 23.88046247 53.27331579 25 56 C23.515 56.495 23.515 56.495 22 57 C21.65332275 56.11554199 21.30664551 55.23108398 20.94946289 54.31982422 C19.3224782 50.17076202 17.69280541 46.02275834 16.0625 41.875 C15.6225621 40.75519241 15.6225621 40.75519241 15.17373657 39.61276245 C11.05840383 29.14371104 6.88701648 18.70181411 2.54125977 8.32568359 C2.20151123 7.50793457 1.8617627 6.69018555 1.51171875 5.84765625 C1.07025513 4.7959021 1.07025513 4.7959021 0.61987305 3.72290039 C0 2 0 2 0 0 Z " fill="#040808" transform="translate(459,302)"/>
<path d="M0 0 C1 2 1 2 0.06298828 4.90722656 C-0.42654743 6.15487047 -0.92480457 7.39911231 -1.4296875 8.640625 C-1.69563217 9.31160721 -1.96157684 9.98258942 -2.23558044 10.67390442 C-3.10791138 12.86900058 -3.99126493 15.0594731 -4.875 17.25 C-5.47347786 18.74903716 -6.07137656 20.24830567 -6.66870117 21.74780273 C-8.43375962 26.17008883 -10.21379908 30.58621614 -12 35 C-12.2552948 35.6308551 -12.5105896 36.26171021 -12.77362061 36.91168213 C-15.49023899 43.61836928 -18.23267566 50.3140872 -21 57 C-21.66 57 -22.32 57 -23 57 C-20.70564736 48.51548147 -17.49295103 40.44057442 -14.1875 32.3125 C-13.67341662 31.03987969 -13.159743 29.76709378 -12.64648438 28.49414062 C-11.87840886 26.58942165 -11.10928506 24.68517313 -10.33615112 22.78250122 C-8.98407149 19.45362698 -7.65113737 16.11865818 -6.34619141 12.77099609 C-5.94186638 11.74005074 -5.94186638 11.74005074 -5.52937317 10.6882782 C-5.01342191 9.37062954 -4.50157336 8.05136481 -3.99443054 6.7303009 C-2.91666439 3.98736537 -2.10887101 2.10887101 0 0 Z " fill="#030603" transform="translate(318,182)"/>
<path d="M0 0 C0.66 0 1.32 0 2 0 C2.41511841 1.04172363 2.41511841 1.04172363 2.83862305 2.10449219 C4.12062776 5.32004283 5.40405782 8.53502284 6.6875 11.75 C7.12255859 12.84183594 7.55761719 13.93367187 8.00585938 15.05859375 C11.43883235 23.6537409 14.95791647 32.21019937 18.58203125 40.7265625 C18.98808594 41.68304687 19.39414062 42.63953125 19.8125 43.625 C20.23144531 44.60726562 20.65039062 45.58953125 21.08203125 46.6015625 C22 49 22 49 22 51 C21.34 51 20.68 51 20 51 C8.41783987 23.13550453 8.41783987 23.13550453 3.25 10.3125 C2.91548828 9.48911133 2.58097656 8.66572266 2.23632812 7.81738281 C0 2.23618112 0 2.23618112 0 0 Z " fill="#020302" transform="translate(541,508)"/>
<path d="M0 0 C0.66 0 1.32 0 2 0 C3.61964446 3.89109233 5.23694771 7.7831478 6.85229492 11.67602539 C7.39953897 12.99398614 7.94736906 14.31170374 8.49584961 15.62915039 C10.08733906 19.4525178 11.66770695 23.2801413 13.230896 27.11517334 C13.74510149 28.37532569 14.26175955 29.63447994 14.78082275 30.89263916 C15.51601619 32.68094275 16.23683203 34.47513659 16.95703125 36.26953125 C17.37573486 37.30311768 17.79443848 38.3367041 18.22583008 39.40161133 C19 42 19 42 18 45 C16.39010462 42.58515692 15.36534275 40.6661113 14.30419922 38.01928711 C13.98401825 37.22513901 13.66383728 36.43099091 13.33395386 35.61277771 C12.99429596 34.7595845 12.65463806 33.9063913 12.3046875 33.02734375 C11.95238068 32.14849014 11.60007385 31.26963654 11.23709106 30.364151 C10.49409175 28.50801272 9.75283114 26.65117764 9.01318359 24.79370117 C7.87721627 21.9430616 6.73391504 19.09544218 5.58984375 16.24804688 C4.86934921 14.44548929 4.14928242 12.64276066 3.4296875 10.83984375 C3.08598114 9.98462631 2.74227478 9.12940887 2.38815308 8.24827576 C1.9173381 7.06178185 1.9173381 7.06178185 1.43701172 5.85131836 C1.01970291 4.80565956 1.01970291 4.80565956 0.59396362 3.73887634 C0 2 0 2 0 0 Z " fill="#020202" transform="translate(590,165)"/>
<path d="M0 0 C0.66 0 1.32 0 2 0 C5.34709661 7.99429691 8.68083973 15.9940625 12 24 C12.350625 24.84498047 12.70125 25.68996094 13.0625 26.56054688 C13.92304774 28.64199671 14.77599529 30.7263207 15.625 32.8125 C16.09164062 33.95332031 16.55828125 35.09414062 17.0390625 36.26953125 C18 39 18 39 18 42 C17.34 42 16.68 42 16 42 C13.716971 36.34176157 11.43842364 30.68174763 9.1640625 25.02001953 C8.38926007 23.09308849 7.61322205 21.1666538 6.8359375 19.24072266 C5.72072523 16.47687388 4.60992758 13.71128704 3.5 10.9453125 C2.9750293 9.6483696 2.9750293 9.6483696 2.43945312 8.32522583 C2.11912109 7.52454681 1.79878906 6.7238678 1.46875 5.89892578 C1.18451172 5.1927713 0.90027344 4.48661682 0.60742188 3.75906372 C0 2 0 2 0 0 Z " fill="#010404" transform="translate(572,120)"/>
<path d="M0 0 C0.66 0 1.32 0 2 0 C13.89438718 28.93263641 13.89438718 28.93263641 19 43 C18.01 43 17.02 43 16 43 C15.69707031 42.11699219 15.39414062 41.23398437 15.08203125 40.32421875 C13.10184651 34.65175107 11.12182394 29.06771812 8.5625 23.625 C6.37865135 18.97215048 4.49665938 14.24516857 2.6875 9.4375 C2.42074463 8.73383301 2.15398926 8.03016602 1.87915039 7.30517578 C0 2.25167631 0 2.25167631 0 0 Z " fill="#050B06" transform="translate(393,282)"/>
<path d="M0 0 C0.33 0.66 0.66 1.32 1 2 C0.01 4.64 -0.98 7.28 -2 10 C5.92 10 13.84 10 22 10 C22 10.66 22 11.32 22 12 C13.42 12 4.84 12 -4 12 C-5.11841676 8.64474971 -4.91538821 8.02910146 -3.6875 4.875 C-3.42324219 4.17117188 -3.15898437 3.46734375 -2.88671875 2.7421875 C-2 1 -2 1 0 0 Z " fill="#060606" transform="translate(183,662)"/>
<path d="M0 0 C0.66 0 1.32 0 2 0 C4.01608492 4.65988859 6.01432965 9.32709089 8 14 C8.32049316 14.75345703 8.64098633 15.50691406 8.97119141 16.28320312 C9.94544429 18.5820346 10.911315 20.88422099 11.875 23.1875 C12.1851001 23.91767334 12.4952002 24.64784668 12.81469727 25.40014648 C14.06966271 28.4183685 15 30.69755273 15 34 C14.34 34 13.68 34 13 34 C11.14415989 29.48113564 9.29286589 24.9604465 7.44580078 20.43798828 C6.81652116 18.89906336 6.18599189 17.36064882 5.55419922 15.82275391 C4.64744016 13.61493083 3.74515877 11.40532444 2.84375 9.1953125 C2.55939087 8.50567413 2.27503174 7.81603577 1.98205566 7.10549927 C0 2.22774341 0 2.22774341 0 0 Z " fill="#020202" transform="translate(755,579)"/>
<path d="M0 0 C3 1 3 1 4.25854492 3.36083984 C4.66177979 4.38387207 5.06501465 5.4069043 5.48046875 6.4609375 C5.92197266 7.57210937 6.36347656 8.68328125 6.81835938 9.828125 C7.27017578 10.99859375 7.72199219 12.1690625 8.1875 13.375 C8.65091797 14.53773438 9.11433594 15.70046875 9.59179688 16.8984375 C13 25.57203838 13 25.57203838 13 29 C12.34 29 11.68 29 11 29 C9.42897511 25.19322741 7.8625157 21.38461236 6.30029297 17.57421875 C5.76802214 16.27780317 5.23449895 14.98190106 4.69970703 13.68652344 C3.93194036 11.82622051 3.16902341 9.96391837 2.40625 8.1015625 C1.94541016 6.98088379 1.48457031 5.86020508 1.00976562 4.70556641 C0 2 0 2 0 0 Z " fill="#020202" transform="translate(770,616)"/>
<path d="M0 0 C0.66 0 1.32 0 2 0 C3.0063655 2.43504509 4.00526413 4.87270864 5 7.3125 C5.28617187 8.00279297 5.57234375 8.69308594 5.8671875 9.40429688 C7.08910744 12.41545674 8 14.71886984 8 18 C2.39 18 -3.22 18 -9 18 C-9 17.67 -9 17.34 -9 17 C-4.05 17 0.9 17 6 17 C5.3503125 15.41058594 5.3503125 15.41058594 4.6875 13.7890625 C4.12481865 12.40111517 3.56232855 11.0130903 3 9.625 C2.71382813 8.92632812 2.42765625 8.22765625 2.1328125 7.5078125 C0 2.2265625 0 2.2265625 0 0 Z " fill="#010101" transform="translate(452,429)"/>
<path d="M0 0 C0.66 0 1.32 0 2 0 C3.36978501 3.09750602 4.71806572 6.20391657 6.0625 9.3125 C6.45244141 10.19357422 6.84238281 11.07464844 7.24414062 11.98242188 C7.60830078 12.82998047 7.97246094 13.67753906 8.34765625 14.55078125 C8.85824585 15.72120972 8.85824585 15.72120972 9.37915039 16.9152832 C10 19 10 19 9 22 C6.03196167 19.03196167 4.93946582 15.41324818 3.375 11.5625 C3.05015625 10.78583984 2.7253125 10.00917969 2.390625 9.20898438 C2.08382812 8.46068359 1.77703125 7.71238281 1.4609375 6.94140625 C1.18040527 6.25763916 0.89987305 5.57387207 0.61083984 4.86938477 C0 3 0 3 0 0 Z " fill="#0D0D0D" transform="translate(618,698)"/>
<path d="M0 0 C0.66 0 1.32 0 2 0 C3.34208754 3.10045423 4.67213754 6.20592989 6 9.3125 C6.3815625 10.19357422 6.763125 11.07464844 7.15625 11.98242188 C7.5171875 12.82998047 7.878125 13.67753906 8.25 14.55078125 C8.58515625 15.33106689 8.9203125 16.11135254 9.265625 16.9152832 C10 19 10 19 10 22 C9.34 22 8.68 22 8 22 C6.66108439 18.71057634 5.32982297 15.41810891 4 12.125 C3.6184375 11.18785156 3.236875 10.25070312 2.84375 9.28515625 C2.4828125 8.38925781 2.121875 7.49335937 1.75 6.5703125 C1.41484375 5.74289551 1.0796875 4.91547852 0.734375 4.06298828 C0 2 0 2 0 0 Z " fill="#020202" transform="translate(562,560)"/>
<path d="M0 0 C1 2 1 2 0.47094727 3.78759766 C0.17244873 4.48933105 -0.1260498 5.19106445 -0.43359375 5.9140625 C-0.75263672 6.67460938 -1.07167969 7.43515625 -1.40039062 8.21875 C-1.74263672 9.0128125 -2.08488281 9.806875 -2.4375 10.625 C-2.77587891 11.42679688 -3.11425781 12.22859375 -3.46289062 13.0546875 C-4.30166778 15.03939964 -5.14995245 17.02008875 -6 19 C-6.66 19 -7.32 19 -8 19 C-3.92134831 3.92134831 -3.92134831 3.92134831 0 0 Z " fill="#010101" transform="translate(169,553)"/>
<path d="M0 0 C0.66 0 1.32 0 2 0 C4.31 5.94 6.62 11.88 9 18 C8.01 18 7.02 18 6 18 C4.99600476 15.37646482 3.99665555 12.75132205 3 10.125 C2.57074219 9.00544922 2.57074219 9.00544922 2.1328125 7.86328125 C0 2.2265625 0 2.2265625 0 0 Z " fill="#010301" transform="translate(393,282)"/>
<path d="M0 0 C0.66 0 1.32 0 2 0 C2.86580287 1.93232821 3.71729941 3.87107194 4.5625 5.8125 C5.27599609 7.43091797 5.27599609 7.43091797 6.00390625 9.08203125 C7 12 7 12 6 15 C2.35219334 10.8310781 0 5.55196264 0 0 Z " fill="#0D0E0E" transform="translate(469,326)"/>
<path d="M0 0 C0.66 0 1.32 0 2 0 C2.67119549 1.4562545 3.33681807 2.91507867 4 4.375 C4.556875 5.59316406 4.556875 5.59316406 5.125 6.8359375 C6 9 6 9 6 11 C7.98 11 9.96 11 12 11 C12 11.33 12 11.66 12 12 C9.36 12 6.72 12 4 12 C3.3291288 10.3767313 2.66342971 8.75132422 2 7.125 C1.62875 6.22007812 1.2575 5.31515625 0.875 4.3828125 C0 2 0 2 0 0 Z " fill="#020D02" transform="translate(698,435)"/>
<path d="M0 0 C3 1 3 1 4.16796875 3.1796875 C4.50441406 4.06914063 4.84085938 4.95859375 5.1875 5.875 C5.53167969 6.75929688 5.87585938 7.64359375 6.23046875 8.5546875 C7 11 7 11 7 14 C6.34 14 5.68 14 5 14 C4.16235732 12.04350603 3.33000941 10.08474444 2.5 8.125 C2.0359375 7.03445313 1.571875 5.94390625 1.09375 4.8203125 C0 2 0 2 0 0 Z " fill="#030B0B" transform="translate(565,711)"/>
<path d="M0 0 C0.99 0.33 1.98 0.66 3 1 C4.16796875 3.50390625 4.16796875 3.50390625 5.1875 6.5625 C5.53167969 7.57441406 5.87585938 8.58632813 6.23046875 9.62890625 C6.48441406 10.41136719 6.73835937 11.19382812 7 12 C6.01 12 5.02 12 4 12 C3.3291288 10.3767313 2.66342971 8.75132422 2 7.125 C1.62875 6.22007812 1.2575 5.31515625 0.875 4.3828125 C0 2 0 2 0 0 Z " fill="#020C0C" transform="translate(572,585)"/>
<path d="M0 0 C0.66 0 1.32 0 2 0 C1.01 3.3 0.02 6.6 -1 10 C-1.66 9.67 -2.32 9.34 -3 9 C-2.44271087 5.65626525 -1.64826111 2.96687001 0 0 Z " fill="#01150D" transform="translate(297,377)"/>
<path d="M0 0 C1.99097846 2.98646769 2.94124926 5.59687262 4 9 C3.01 9 2.02 9 1 9 C-1.09230769 4.56923077 -1.09230769 4.56923077 -0.625 1.6875 C-0.41875 1.130625 -0.2125 0.57375 0 0 Z " fill="#0A170A" transform="translate(740,538)"/>
<path d="M0 0 C0.66 0 1.32 0 2 0 C2.99 2.64 3.98 5.28 5 8 C2 7 2 7 0.8125 5.125 C0 3 0 3 0 0 Z " fill="#090909" transform="translate(801,447)"/>
<path d="M0 0 C0.66 0 1.32 0 2 0 C2.99 2.64 3.98 5.28 5 8 C4.01 8 3.02 8 2 8 C0.74335022 5.09399739 0 3.20395416 0 0 Z " fill="#0A0A0A" transform="translate(623,247)"/>
<path d="M0 0 C0.66 0 1.32 0 2 0 C3.25664978 2.90600261 4 4.79604584 4 8 C3.34 8 2.68 8 2 8 C0.74335022 5.09399739 0 3.20395416 0 0 Z " fill="#0B0B0B" transform="translate(491,381)"/>
<path d="" fill="#FFFFFF" transform="translate(0,0)"/>
</svg>
