<?xml version="1.0" encoding="UTF-8" standalone="no"?>
<svg
   version="1.1"
   width="1801.2271"
   height="387.73004"
   id="svg71"
   sodipodi:docname="main-logo-square-alpha (no logomark).svg"
   inkscape:version="1.4.2 (f4327f4, 2025-05-13)"
   xmlns:inkscape="http://www.inkscape.org/namespaces/inkscape"
   xmlns:sodipodi="http://sodipodi.sourceforge.net/DTD/sodipodi-0.dtd"
   xmlns="http://www.w3.org/2000/svg"
   xmlns:svg="http://www.w3.org/2000/svg">
  <defs
     id="defs71" />
  <sodipodi:namedview
     id="namedview71"
     pagecolor="#ffffff"
     bordercolor="#000000"
     borderopacity="0.25"
     inkscape:showpageshadow="2"
     inkscape:pageopacity="0.0"
     inkscape:pagecheckerboard="0"
     inkscape:deskcolor="#d1d1d1"
     inkscape:zoom="0.4075"
     inkscape:cx="899.3865"
     inkscape:cy="393.86503"
     inkscape:window-width="1920"
     inkscape:window-height="1017"
     inkscape:window-x="-8"
     inkscape:window-y="-8"
     inkscape:window-maximized="1"
     inkscape:current-layer="svg71" />
  <path
     d="m 92.3865,28.90794 h 1608 v 14 h -1608 z"
     fill="#c8c8c8"
     id="path2" />
  <path
     d="m 839.3865,201.90794 c 9.24,0 18.48,0 28,0 0,23.43 0,46.86 0,71 26.07,0 52.14,0 79,0 0,-23.43 0,-46.86 0,-71 9.24,0 18.48,0 28,0 0,54.78 0,109.56 0,166 -9.24,-0.33 -18.48,-0.66 -28,-1 0,-24.09 0,-48.18 0,-73 -26.07,0 -52.14,0 -79,0 0,24.09 0,48.18 0,73 -9.24,0.33 -18.48,0.66 -28,1 0,-54.78 0,-109.56 0,-166 z"
     fill="#343332"
     id="path3" />
  <path
     d="m 532.3865,201.90794 c 66,0 66,0 81,3 0,0.66 0,1.32 0,2 1.17562,0.3094 1.17562,0.3094 2.375,0.625 10.00153,3.7937 15.83321,8.6645 20.625,18.375 0,0.66 0,1.32 0,2 0.66,0 1.32,0 2,0 0,1.98 0,3.96 0,6 0.66,0 1.32,0 2,0 1.32915,7.9749 1.08801,15.9419 1,24 -0.66,0 -1.32,0 -2,0 0.495,2.475 0.495,2.475 1,5 -0.66,0 -1.32,0 -2,0 0,1.98 0,3.96 0,6 -0.66,0 -1.32,0 -2,0 0,1.32 0,2.64 0,4 -1.5625,1.75 -1.5625,1.75 -4,4 -1.22205,1.3418 -2.42935,2.6971 -3.625,4.0625 -0.59039,0.6716 -1.18078,1.3432 -1.78906,2.0352 -1.74176,2.0204 -1.74176,2.0204 -3.58594,4.9023 -1.65817,0.6875 -3.32459,1.3556 -5,2 -0.33,0.66 -0.66,1.32 -1,2 -2.06641,0.8516 -2.06641,0.8516 -4.5625,1.625 -0.82629,0.2604 -1.65258,0.5208 -2.50391,0.7891 -0.63808,0.1933 -1.27617,0.3867 -1.93359,0.5859 0.56144,2.7614 0.82472,3.8247 2.875,5.875 2.125,2.125 2.125,2.125 3.5625,5.0625 1.42512,3.1822 1.42512,3.1822 4.0625,5.5625 2.67693,2.6769 3.81969,5.1394 5.5,8.5 0.825,0.825 1.65,1.65 2.5,2.5 2.67693,2.6769 3.81969,5.1394 5.5,8.5 0.825,0.825 1.65,1.65 2.5,2.5 2.67693,2.6769 3.81969,5.1394 5.5,8.5 0.825,0.825 1.65,1.65 2.5,2.5 2.67693,2.6769 3.81969,5.1394 5.5,8.5 0.825,0.825 1.65,1.65 2.5,2.5 3.88676,3.8868 5.5,6.994 5.5,12.5 -4.05699,-0.1185 -8.11376,-0.2428 -12.17041,-0.3723 -1.37918,-0.043 -2.75842,-0.085 -4.1377,-0.125 -1.98596,-0.058 -3.97174,-0.1221 -5.95751,-0.1863 -1.194,-0.037 -2.38799,-0.073 -3.61817,-0.1111 -2.54084,-0.1674 -4.69335,-0.4685 -7.11621,-1.2053 0,-0.66 0,-1.32 0,-2 -0.66,0 -1.32,0 -2,0 -0.33,-0.99 -0.66,-1.98 -1,-3 -0.66,-0.33 -1.32,-0.66 -2,-1 -1,-2 -2,-4 -3,-6 -0.66,-0.33 -1.32,-0.66 -2,-1 -0.43313,-0.9075 -0.86625,-1.815 -1.3125,-2.75 -1.52747,-3.3414 -1.52747,-3.3414 -4.1875,-5.75 -2.65378,-2.6538 -3.89698,-5.1413 -5.5,-8.5 -0.66,-0.33 -1.32,-0.66 -2,-1 -1,-2 -2,-4 -3,-6 -0.99,-0.495 -0.99,-0.495 -2,-1 -1,-2 -2,-4 -3,-6 -0.99,-0.495 -0.99,-0.495 -2,-1 -0.43313,-0.9075 -0.86625,-1.815 -1.3125,-2.75 -1.52747,-3.3414 -1.52747,-3.3414 -4.1875,-5.75 -2.65906,-2.6591 -3.86264,-5.1509 -5.5,-8.5 -4.77693,-3.5123 -4.77693,-3.5123 -20,-4 0,22.11 0,44.22 0,67 -8.91,0 -17.82,0 -27,0 0,-54.45 0,-108.9 0,-165 z m 26,21 c 0,18.81 0,37.62 0,57 12.07488,0.014 12.07488,0.014 24.125,-0.375 0.80953,-0.031 1.61906,-0.062 2.45312,-0.094 3.96219,-0.1962 6.97496,-0.3915 10.42188,-2.5313 0.9075,-0.2269 1.815,-0.4537 2.75,-0.6875 6.56722,-2.6521 11.72435,-7.5716 14.57031,-14.082 2.27773,-7.4747 2.99877,-17.1789 -0.32812,-24.4258 -3.11691,-5.3125 -6.34062,-8.9042 -12.30469,-10.9297 -1.21687,-0.2887 -2.43375,-0.5775 -3.6875,-0.875 -0.63035,-0.174 -1.2607,-0.348 -1.91016,-0.5273 -11.98725,-3.2647 -23.61049,-2.4724 -36.08984,-2.4724 z"
     fill="#343332"
     id="path4" />
  <path
     d="m 180.3865,201.90794 c 8.91,0 17.82,0 27,0 0,23.43 0,46.86 0,71 26.07,0 52.14,0 79,0 0,-23.43 0,-46.86 0,-71 9.24,0 18.48,0 28,0 0,54.45 0,108.9 0,165 -9.24,0 -18.48,0 -28,0 0,-24.09 0,-48.18 0,-73 -26.07,0 -52.14,0 -79,0 0,24.09 0,48.18 0,73 -8.91,0 -17.82,0 -27,0 0,-54.45 0,-108.9 0,-165 z"
     fill="#343332"
     id="path5" />
  <path
     d="m 414.3865,201.90794 c 8.91,0 17.82,0 27,0 0.495,1.98 0.495,1.98 1,4 0.66,0 1.32,0 2,0 0,1.65 0,3.3 0,5 0.66,0 1.32,0 2,0 0,1.65 0,3.3 0,5 0.66,0 1.32,0 2,0 0,1.65 0,3.3 0,5 0.66,0 1.32,0 2,0 0.23074,0.7992 0.46148,1.5984 0.69922,2.4219 2.05451,6.9187 4.41259,13.5221 7.34765,20.1172 0.95313,2.4609 0.95313,2.4609 0.95313,5.4609 0.66,0 1.32,0 2,0 0,1.65 0,3.3 0,5 0.66,0 1.32,0 2,0 0,1.65 0,3.3 0,5 0.66,0 1.32,0 2,0 0,1.65 0,3.3 0,5 0.66,0 1.32,0 2,0 0,1.65 0,3.3 0,5 0.66,0 1.32,0 2,0 0.20754,0.7412 0.41508,1.4824 0.62891,2.2461 2.22598,7.6093 4.93569,14.8317 8.08422,22.1033 2.28687,5.348 2.28687,5.348 2.28687,8.6506 0.66,0 1.32,0 2,0 0,1.65 0,3.3 0,5 0.66,0 1.32,0 2,0 0,1.65 0,3.3 0,5 0.66,0 1.32,0 2,0 0,1.65 0,3.3 0,5 0.66,0 1.32,0 2,0 0.20754,0.7412 0.41508,1.4824 0.62891,2.2461 2.22598,7.6093 4.93569,14.8317 8.08422,22.1033 2.28687,5.348 2.28687,5.348 2.28687,8.6506 0.66,0 1.32,0 2,0 0,1.65 0,3.3 0,5 0.66,0 1.32,0 2,0 0,1.65 0,3.3 0,5 0.66,0 1.32,0 2,0 0,2.31 0,4.62 0,7 -4.04142,0.1166 -8.08241,0.1874 -12.125,0.25 -1.14211,0.034 -2.28422,0.067 -3.46094,0.1016 -10.80706,0.1256 -10.80706,0.1256 -15.41406,-4.3516 -0.375,-2.75 -0.375,-2.75 0,-5 -0.66,0 -1.32,0 -2,0 0,-1.65 0,-3.3 0,-5 -0.66,0 -1.32,0 -2,0 -0.33,-2.64 -0.66,-5.28 -1,-8 -0.66,0 -1.32,0 -2,0 -0.50512,-1.6026 -1.00392,-3.2071 -1.5,-4.8125 -0.27844,-0.8933 -0.55688,-1.7866 -0.84375,-2.707 -0.65625,-2.4805 -0.65625,-2.4805 -0.65625,-5.4805 -0.66,0 -1.32,0 -2,0 -0.99,-3.96 -0.99,-3.96 -2,-8 -32.175,-0.495 -32.175,-0.495 -65,-1 0,0.99 0,1.98 0,3 -0.66,0 -1.32,0 -2,0 -0.99,4.29 -1.98,8.58 -3,13 -0.66,0 -1.32,0 -2,0 -0.18563,0.99 -0.18563,0.99 -0.375,2 -0.7702,3.697 -1.69451,7.3401 -2.625,11 -0.66,0 -1.32,0 -2,0 -0.0825,0.6394 -0.165,1.2788 -0.25,1.9375 -1.03318,4.2188 -2.51095,8.3256 -4.75,12.0625 -3.17787,1.0593 -5.42589,1.1146 -8.76172,1.0977 -1.11826,0 -2.23652,-0.01 -3.38867,-0.01 -1.16725,-0.01 -2.33449,-0.017 -3.53711,-0.025 -1.17885,-0.01 -2.35769,-0.01 -3.57227,-0.014 -2.91346,-0.012 -5.82682,-0.028 -8.74023,-0.049 0.51498,-4.6799 1.12516,-9.0005 2.5625,-13.5 0.26941,-0.856 0.53883,-1.7119 0.81641,-2.5938 0.20496,-0.629 0.40992,-1.2581 0.62109,-1.9062 0.66,0 1.32,0 2,0 0,-1.65 0,-3.3 0,-5 0.66,0 1.32,0 2,0 0,-1.65 0,-3.3 0,-5 0.66,0 1.32,0 2,0 0,-1.65 0,-3.3 0,-5 0.66,0 1.32,0 2,0 0,-1.65 0,-3.3 0,-5 0.66,0 1.32,0 2,0 0.0928,-0.6394 0.18563,-1.2788 0.28125,-1.9375 1.17839,-5.021 3.26209,-9.6959 5.19141,-14.4688 1.53185,-3.8454 2.92865,-7.4692 3.52734,-11.5935 0.66,0 1.32,0 2,0 0,-1.65 0,-3.3 0,-5 0.66,0 1.32,0 2,0 0,-1.65 0,-3.3 0,-5 0.66,0 1.32,0 2,0 0,-1.65 0,-3.3 0,-5 0.66,0 1.32,0 2,0 0.11344,-0.6909 0.22687,-1.3819 0.34375,-2.0937 1.00302,-4.442 2.80531,-8.533 4.5,-12.75 1.00405,-2.7408 1.68468,-5.284 2.15625,-8.1563 0.66,0 1.32,0 2,0 0.66,-3.3 1.32,-6.6 2,-10 0.66,0 1.32,0 2,0 0,-1.65 0,-3.3 0,-5 0.66,0 1.32,0 2,0 0,-1.65 0,-3.3 0,-5 0.66,0 1.32,0 2,0 0,-1.65 0,-3.3 0,-5 0.66,0 1.32,0 2,0 0.13922,-0.9591 0.13922,-0.9591 0.28125,-1.9375 1.17839,-5.021 3.26209,-9.6958 5.19141,-14.4687 1.53185,-3.8457 2.92865,-7.4695 3.52734,-11.5938 0.66,0 1.32,0 2,0 0,-1.65 0,-3.3 0,-5 0.66,0 1.32,0 2,0 0.33,-0.99 0.66,-1.98 1,-3 z m 13,31 c -0.17016,0.6175 -0.34031,1.2349 -0.51563,1.8711 -1.45669,5.0907 -3.16022,9.8509 -5.38281,14.6523 -1.7893,4.0228 -3.31031,8.1461 -4.87109,12.2618 -1.10237,2.8801 -2.24952,5.736 -3.41797,8.5898 -1.133,2.8008 -2.04769,5.4551 -2.875,8.375 -0.96692,3.352 -2.35435,6.1497 -3.9375,9.25 -0.70626,1.9864 -1.36894,3.9885 -2,6 -0.99,2.97 -1.98,5.94 -3,9 17.49,0 34.98,0 53,0 -5.197,-14.123 -5.197,-14.123 -11,-28 -0.72683,-2.1805 -1.45308,-4.3613 -2.15234,-6.5508 -0.99473,-2.8741 -2.15906,-5.6498 -3.34766,-8.4492 -1.80375,-4.2556 -3.40342,-8.5037 -4.81641,-12.9023 -1.5783,-4.8432 -3.35142,-9.5635 -5.68359,-14.0977 z"
     fill="#343332"
     id="path6" />
  <path
     d="m 29.3865,201.90794 c 34.32,0 68.64,0 104,0 0,7.59 0,15.18 0,23 -25.08,0 -50.16,0 -76,0 0,15.51 0,31.02 0,47 20.13,0 40.26,0 61,0 0,7.59 0,15.18 0,23 -20.13,0 -40.26,0 -61,0 0,16.17 0,32.34 0,49 25.08,0 50.16,0 76,0 0,7.59 0,15.18 0,23 -51.48,0.495 -51.48,0.495 -104,1 0,-54.78 0,-109.56 0,-166 z"
     fill="#343332"
     id="path7" />
  <path
     d="m 1237.3865,201.90794 c 33.99,0 67.98,0 103,0 0,7.59 0,15.18 0,23 -24.75,0 -49.5,0 -75,0 0,15.51 0,31.02 0,47 20.13,0 40.26,0 61,0 0,7.59 0,15.18 0,23 -20.13,0 -40.26,0 -61,0 0,16.17 0,32.34 0,49 24.75,0 49.5,0 75,0 0,7.59 0,15.18 0,23 -33.99,0 -67.98,0 -103,0 0,-54.45 0,-108.9 0,-165 z"
     fill="#343332"
     id="path8" />
  <path
     d="m 748.8157,199.72264 c 2.06678,0 4.13302,-0.02 6.19971,-0.039 7.09492,-0.029 13.50181,0.399 20.37109,2.2246 0.99,0 1.98,0 3,0 0,0.66 0,1.32 0,2 0.7309,0.1134 1.4618,0.2269 2.21485,0.3438 2.86599,0.6752 4.83231,1.6514 7.34765,3.1562 2.25966,1.3472 4.08952,2.4165 6.65235,3.0313 0.5891,0.1546 1.1782,0.3093 1.78515,0.4687 0.33,0.66 0.66,1.32 1,2 0.99,0.33 1.98,0.66 3,1 2.39163,2.0671 4.34985,4.3013 6,7 -0.0625,3.25 -0.0625,3.25 -1,6 -0.33,0.99 -0.66,1.98 -1,3 -0.66,0 -1.32,0 -2,0 0,0.99 0,1.98 0,3 -0.99,0.495 -0.99,0.495 -2,1 -1.13351,2.0167 -1.13351,2.0167 -2,4 -1.72881,0.054 -3.45813,0.093 -5.1875,0.125 -0.96293,0.023 -1.92586,0.046 -2.91797,0.07 -3.02266,-0.2039 -5.16223,-0.9266 -7.89453,-2.1953 0,-0.66 0,-1.32 0,-2 -0.99,0 -1.98,0 -3,0 -0.4473,-0.4512 -0.89461,-0.9023 -1.35547,-1.3672 -2.12507,-2.1099 -4.1413,-2.7686 -6.95703,-3.7578 -0.92426,-0.3326 -1.84852,-0.6652 -2.80078,-1.0078 -13.28004,-3.9894 -28.97608,-3.0153 -41.51172,2.8203 -0.78375,0.4331 -1.5675,0.8663 -2.375,1.3125 -0.66,0 -1.32,0 -2,0 0,0.66 0,1.32 0,2 -0.99,0 -1.98,0 -3,0 0,0.66 0,1.32 0,2 -0.68062,0.3713 -1.36125,0.7425 -2.0625,1.125 -7.81205,4.9864 -13.53168,13.653 -15.57031,22.6758 -0.18176,1.0886 -0.18176,1.0886 -0.36719,2.1992 -0.66,0 -1.32,0 -2,0 -1.0156,7.5805 -1.18334,15.0445 -1.1875,22.6875 -0.0184,1.7953 -0.0184,1.7953 -0.0371,3.627 -0.002,1.1582 -0.004,2.3164 -0.006,3.5097 -0.006,1.5637 -0.006,1.5637 -0.0125,3.159 0.26379,3.276 1.15645,5.9272 2.24292,9.0168 0.125,3.375 0.125,3.375 0,6 0.66,0 1.32,0 2,0 0.15856,0.5685 0.31711,1.137 0.48047,1.7227 1.70101,5.6293 3.80571,9.7064 7.51953,14.2773 0.99,0.495 0.99,0.495 2,1 0.33,0.99 0.66,1.98 1,3 0.99,0.33 1.98,0.66 3,1 0.47438,0.66 0.94875,1.32 1.4375,2 1.79055,2.2919 2.74377,2.6112 5.5625,3 0,0.66 0,1.32 0,2 1.98,0.33 3.96,0.66 6,1 0,0.66 0,1.32 0,2 1.45406,-0.031 1.45406,-0.031 2.9375,-0.062 3.0625,0.062 3.0625,0.062 4.0625,1.0625 10.38946,1.4254 20.59831,0.8185 31,0 0,-0.66 0,-1.32 0,-2 1.65,0 3.3,0 5,0 0,-0.66 0,-1.32 0,-2 0.60328,-0.2307 1.20656,-0.4615 1.82813,-0.6992 5.05598,-2.0632 7.96171,-3.7325 11.17187,-8.3008 4.04765,-1.3492 7.76766,-1.553 12,-1 3.35182,2.3816 4.935,5.4985 7,9 0.5775,0.495 1.155,0.99 1.75,1.5 1.25,1.5 1.25,1.5 1.375,3.75 -1.46592,3.5834 -3.71553,5.597 -6.53125,8.1992 -1.6951,1.4792 -1.6951,1.4792 -2.59375,3.5508 -0.99,0.33 -1.98,0.66 -3,1 -0.33,0.66 -0.66,1.32 -1,2 -0.99,0 -1.98,0 -3,0 0,0.66 0,1.32 0,2 -1.65,0.33 -3.3,0.66 -5,1 0,0.66 0,1.32 0,2 -5,1.6667 -10,3.3333 -15,5 -0.90105,0.3504 -1.80211,0.7008 -2.73047,1.0618 -3.85849,1.1072 -7.47081,1.2439 -11.44922,1.239 -0.77159,0 -1.54319,0.01 -2.33816,0.013 -1.62539,0.01 -3.2508,0.01 -4.87619,0 -2.46676,0 -4.93232,0.02 -7.39893,0.046 -1.58724,0 -3.17448,0 -4.76172,0 -0.72734,0.01 -1.45468,0.018 -2.20407,0.028 -5.35604,-0.048 -9.29159,-1.3525 -14.24124,-3.3912 -1.98957,-0.3908 -3.98807,-0.7485 -6,-1 0,-0.66 0,-1.32 0,-2 -1.02094,-0.1547 -1.02094,-0.1547 -2.0625,-0.3125 -3.56666,-0.8348 -6.59972,-2.1822 -9.9375,-3.6875 0,-0.66 0,-1.32 0,-2 -0.99,0 -1.98,0 -3,0 -0.495,-0.99 -0.495,-0.99 -1,-2 -0.99,-0.33 -1.98,-0.66 -3,-1 -1.68359,-1.7422 -1.68359,-1.7422 -3.4375,-3.875 -1.8197,-2.2064 -3.40421,-4.0099 -5.72265,-5.6953 -1.83985,-1.4297 -1.83985,-1.4297 -2.83985,-4.4297 -0.66,-0.33 -1.32,-0.66 -2,-1 0,-0.99 0,-1.98 0,-3 -0.66,0 -1.32,0 -2,0 -2.07626,-4.6244 -3.70023,-9.1009 -5,-14 -0.66,0 -1.32,0 -2,0 -0.65122,-2.6655 -1.29607,-5.3322 -1.9375,-8 -0.1824,-0.7438 -0.3648,-1.4876 -0.55273,-2.2539 -2.26383,-9.4669 -2.69621,-18.5563 -2.69507,-28.2647 -0.002,-2.1086 -0.0204,-4.2166 -0.0393,-6.3252 -0.003,-1.3567 -0.005,-2.7135 -0.006,-4.0703 -0.004,-1.2164 -0.008,-2.4328 -0.0125,-3.686 0.249,-3.4851 1.01105,-6.1446 2.24292,-9.3999 0.50656,-1.5795 1.00936,-3.1602 1.50781,-4.7422 0.26426,-0.8379 0.52852,-1.6758 0.80078,-2.5391 0.26942,-0.8559 0.53883,-1.7118 0.81641,-2.5937 0.41572,-1.3187 0.41572,-1.3187 0.83984,-2.6641 0.67883,-2.1535 1.3572,-4.3071 2.03516,-6.4609 0.66,0 1.32,0 2,0 0.22687,-0.6806 0.45375,-1.3613 0.6875,-2.0625 1.39812,-3.1291 3.12341,-5.5767 5.1914,-8.2891 1.31242,-1.769 1.31242,-1.769 2.1211,-4.6484 1.8125,-1.7539 1.8125,-1.7539 4,-3.5625 2.94959,-2.3596 2.94959,-2.3596 5,-5.4375 1.33333,-0.6667 2.66666,-1.3333 4,-2 0.33,-0.66 0.66,-1.32 1,-2 0.99,0 1.98,0 3,0 0,-0.66 0,-1.32 0,-2 2.31,-0.66 4.62,-1.32 7,-2 0,-0.66 0,-1.32 0,-2 2.10252,-0.6719 4.20707,-1.3373 6.3125,-2 1.17176,-0.3713 2.34351,-0.7425 3.55078,-1.125 3.13672,-0.875 3.13672,-0.875 6.13672,-0.875 0,-0.66 0,-1.32 0,-2 7.47662,-1.0339 14.89226,-1.1863 22.42928,-1.1854 z"
     fill="#343332"
     id="path9" />
  <path
     d="m 1447.8157,199.72264 c 2.0668,0 4.133,-0.02 6.1997,-0.039 7.0949,-0.029 13.5018,0.399 20.3711,2.2246 0.99,0 1.98,0 3,0 0,0.66 0,1.32 0,2 0.66,0.1031 1.32,0.2063 2,0.3125 6.1807,1.4164 10.6082,2.9928 15,7.6875 1.1756,0.4022 1.1756,0.4022 2.375,0.8125 3.9121,1.7697 6.3866,4.5472 8.625,8.1875 0.375,3.4375 0.375,3.4375 0,6 -0.66,0 -1.32,0 -2,0 0,0.99 0,1.98 0,3 -2.3125,2.5 -2.3125,2.5 -5,5 -0.4705,0.5324 -0.941,1.0648 -1.4258,1.6133 -2.3732,2.0906 -4.7893,2.0914 -7.8515,2.0117 -4.1469,-0.9519 -7.3229,-3.215 -10.8355,-5.5522 -4.7832,-3.15 -9.32,-4.8868 -14.8872,-6.0728 -0.7554,-0.1805 -1.5108,-0.3609 -2.2891,-0.5469 -12.3989,-2.0724 -27.7255,-1.0809 -38.7109,5.5469 -0.495,0.99 -0.495,0.99 -1,2 -0.99,0 -1.98,0 -3,0 0,0.66 0,1.32 0,2 -1.6585,1.0135 -3.3267,2.0112 -5,3 -2.6802,2.3824 -3.8554,3.5661 -5,7 -0.66,0 -1.32,0 -2,0 0,0.99 0,1.98 0,3 -0.4537,0.4125 -0.9075,0.825 -1.375,1.25 -2.3803,2.5634 -2.8053,5.4082 -3.625,8.75 -0.66,0 -1.32,0 -2,0 -0.091,1.0654 -0.091,1.0654 -0.1836,2.1523 -0.084,0.9191 -0.1676,1.8383 -0.2539,2.7852 -0.081,0.9165 -0.1624,1.8331 -0.2461,2.7773 -0.3164,2.2849 -0.3164,2.2849 -1.3164,3.2849 -0.2447,3.9501 -0.2287,7.9043 -0.2402,11.8613 -0.01,1.9709 -0.041,3.9415 -0.072,5.9121 -0.032,7.9324 0.7994,14.7099 3.3125,22.2266 0.4023,1.394 0.799,2.7896 1.1875,4.1875 0.2681,0.9281 0.5363,1.8562 0.8125,2.8125 0.66,0 1.32,0 2,0 0.1238,0.6394 0.2475,1.2788 0.375,1.9375 0.2063,0.6806 0.4125,1.3613 0.625,2.0625 0.99,0.495 0.99,0.495 2,1 0.33,0.99 0.66,1.98 1,3 0.99,0.495 0.99,0.495 2,1 0.4744,0.825 0.9488,1.65 1.4375,2.5 1.3757,2.7916 1.3757,2.7916 4.5625,3.5 0.5569,0.6187 1.1138,1.2375 1.6875,1.875 3.1673,2.9105 6.2441,3.7689 10.3125,5.125 0,0.66 0,1.32 0,2 12.8502,1.546 25.1038,2.2508 38,1 0,-0.66 0,-1.32 0,-2 1.65,0 3.3,0 5,0 0,-0.66 0,-1.32 0,-2 0.6033,-0.2307 1.2066,-0.4615 1.8281,-0.6992 5.2264,-2.0386 5.2264,-2.0386 9.1094,-5.9258 2.8337,-3.2631 5.4685,-3.6988 9.6563,-4.3516 2.4062,-0.023 2.4062,-0.023 5.3437,1.5391 2.0135,2.3796 3.5118,4.7407 5.0625,7.4375 0.7219,0.66 1.4438,1.32 2.1875,2 1.8125,2 1.8125,2 2.5,4.375 -0.9601,3.6657 -3.1144,5.0387 -6.0586,7.293 -1.7606,1.2542 -1.7606,1.2542 -2.6289,3.332 -1.3333,0.6667 -2.6667,1.3333 -4,2 -0.33,0.66 -0.66,1.32 -1,2 -0.99,0 -1.98,0 -3,0 0,0.66 0,1.32 0,2 -6.5727,2.9042 -13.2653,5.4962 -20,8 -0.8848,0.3497 -1.7696,0.6993 -2.6811,1.0596 -3.9189,1.1104 -7.5692,1.21 -11.6041,1.1709 -1.168,-7e-4 -1.168,-7e-4 -2.3597,-10e-4 -1.638,0 -3.276,-0.011 -4.9139,-0.023 -2.4994,-0.018 -4.9984,-0.021 -7.4978,-0.02 -1.597,0 -3.194,-0.011 -4.791,-0.018 -0.7429,-10e-4 -1.4857,0 -2.251,0 -3.7547,-0.034 -7.2501,-0.2667 -10.9014,-1.1646 0,-0.66 0,-1.32 0,-2 -6.9853,-1.569 -6.9853,-1.569 -14,-3 0,-0.66 0,-1.32 0,-2 -0.7154,-0.2553 -1.4309,-0.5105 -2.168,-0.7735 -8.5808,-3.7164 -15.4975,-10.5111 -21.832,-17.2265 -0.6974,-0.6729 -1.3948,-1.3458 -2.1133,-2.0391 -2.651,-2.7553 -4.8867,-6.0391 -4.8867,-9.9609 -0.66,0 -1.32,0 -2,0 -0.2539,-0.7129 -0.5079,-1.4257 -0.7695,-2.1602 -2.2625,-6.3434 -2.2625,-6.3434 -4.918,-12.5273 -1.5445,-3.898 -1.9027,-7.1464 -2.3125,-11.3125 -0.1704,-0.6611 -0.3408,-1.3222 -0.5163,-2.0034 -0.8162,-3.3693 -0.6046,-6.8146 -0.5813,-10.2623 0,-0.7933 0,-1.5867 0,-2.4042 0.01,-2.5267 0.018,-5.0534 0.031,-7.5801 0.01,-1.7162 0.01,-3.4323 0.014,-5.1485 0.011,-4.2005 0.028,-8.401 0.049,-12.6015 0.66,0 1.32,0 2,0 -0.031,-1.2994 -0.031,-1.2994 -0.062,-2.625 0.06,-3.2341 0.4583,-6.203 1.0625,-9.375 0.66,0 1.32,0 2,0 0.1212,-0.6755 0.2424,-1.351 0.3672,-2.0469 0.1676,-0.892 0.3352,-1.7841 0.5078,-2.7031 0.2437,-1.3226 0.2437,-1.3226 0.4922,-2.6719 0.6076,-2.4755 1.311,-4.4045 2.6328,-6.5781 0.99,-0.495 0.99,-0.495 2,-1 0.6522,-2.0247 0.6522,-2.0247 1,-4 0.66,0 1.32,0 2,0 0,-0.99 0,-1.98 0,-3 1.6157,-1.7672 3.2547,-3.368 5,-5 1.3374,-1.3293 2.6705,-2.6629 4,-4 0.6845,-0.6807 1.369,-1.3613 2.0742,-2.0625 1.1646,-1.1717 2.317,-2.3559 3.4454,-3.5625 1.107,-1.1773 2.2877,-2.2846 3.4804,-3.375 0.99,0 1.98,0 3,0 0,-0.66 0,-1.32 0,-2 1.65,-0.33 3.3,-0.66 5,-1 0,-0.66 0,-1.32 0,-2 0.7129,-0.254 1.4257,-0.5079 2.1602,-0.7696 4.2314,-1.5205 8.3855,-3.0189 12.4648,-4.9179 8.0987,-3.1502 17.2277,-2.4995 25.8042,-2.4985 z"
     fill="#343332"
     id="path10" />
  <path
     d="m 1738.3865,198.90794 c 0,0.66 0,1.32 0,2 2.97,0 5.94,0 9,0 0,0.66 0,1.32 0,2 0.7631,0.062 1.5262,0.1238 2.3125,0.1875 5.2185,1.1498 10.0008,3.2496 14.6875,5.8125 0.495,0.99 0.495,0.99 1,2 0.99,0.33 1.98,0.66 3,1 2.25,2.1875 2.25,2.1875 4,5 0,5.2574 -2.2551,11.5113 -5,16 -2.6406,1.2969 -2.6406,1.2969 -5,2 0,0.66 0,1.32 0,2 -1.4379,-0.3105 -2.8753,-0.6235 -4.3125,-0.9375 -0.8005,-0.174 -1.601,-0.348 -2.4258,-0.5273 -2.2617,-0.5352 -2.2617,-0.5352 -5.2617,-1.5352 0,-0.66 0,-1.32 0,-2 -0.99,0 -1.98,0 -3,0 -1.0234,-0.976 -2.0218,-1.9786 -3,-3 -6.0573,-2.8099 -11.2367,-3.5493 -17.875,-3.5 -0.8804,0.01 -1.7609,0.01 -2.668,0.015 -6.6685,0.1791 -12.1949,1.0748 -17.457,5.4849 -4.4529,5.3217 -5.3077,9.9995 -5.2187,16.7461 0.3198,3.2951 1.3632,5.5369 3.2187,8.2539 2.0509,1.4047 2.0509,1.4047 4,2 0,0.66 0,1.32 0,2 0.99,0 1.98,0 3,0 0,0.66 0,1.32 0,2 2.97,0.495 2.97,0.495 6,1 0,0.66 0,1.32 0,2 0.7245,0.1212 1.4489,0.2423 2.1953,0.3672 5.0897,0.8822 9.9535,1.7972 14.8047,3.6328 0,0.66 0,1.32 0,2 5.445,0.99 5.445,0.99 11,2 0,0.66 0,1.32 0,2 0.5453,0.1354 1.0905,0.2707 1.6523,0.4102 5.6827,1.6222 9.7048,3.99 14.2149,7.7929 2.0441,1.7901 2.0441,1.7901 4.0781,3.0938 6.3846,4.4775 7.9613,11.5233 10.0547,18.7031 0.1848,0.6239 0.3696,1.2478 0.5601,1.8906 0.889,4.2627 0.376,8.6588 0.1899,12.9844 -0.041,1.4715 -0.041,1.4715 -0.082,2.9727 -0.2296,5.4872 -0.7916,9.3409 -3.668,14.1523 -0.33,1.2169 -0.66,2.4338 -1,3.6875 -0.9766,3.2351 -1.5587,4.1896 -4,6.3125 -0.33,0.99 -0.66,1.98 -1,3 -1.8125,1.7539 -1.8125,1.7539 -4,3.5625 -2.9496,2.3596 -2.9496,2.3596 -5,5.4375 -1.6667,0.6667 -3.3333,1.3333 -5,2 -0.33,0.66 -0.66,1.32 -1,2 -1.32,0 -2.64,0 -4,0 0,0.66 0,1.32 0,2 -2.64,0.33 -5.28,0.66 -8,1 0,0.66 0,1.32 0,2 -7.1771,1.1361 -14.185,1.221 -21.4375,1.25 -1.9268,0.031 -1.9268,0.031 -3.8926,0.062 -7.0193,0.029 -12.3302,-0.2598 -18.6699,-3.3125 -0.6569,-0.3076 -1.3137,-0.6152 -1.9905,-0.9321 -2.0421,-0.969 -4.0578,-1.9797 -6.072,-3.0054 -0.6684,-0.3345 -1.3368,-0.669 -2.0254,-1.0137 -15.4891,-7.8123 -15.4891,-7.8123 -18.9121,-14.0488 0,-3.875 0,-3.875 1,-7 0.66,-0.33 1.32,-0.66 2,-1 0.1431,-0.6149 0.2862,-1.2298 0.4336,-1.8633 1.0407,-3.9261 4.2267,-6.055 7.5664,-8.1367 2.9324,-0.9757 4.8254,-1.0529 8,-1 1.8125,1.375 1.8125,1.375 3,3 0.99,0.33 1.98,0.66 3,1 0.495,0.99 0.495,0.99 1,2 0.99,0.33 1.98,0.66 3,1 0.495,0.99 0.495,0.99 1,2 2.0246,0.6521 2.0246,0.6521 4,1 0,0.66 0,1.32 0,2 1.32,0 2.64,0 4,0 0,0.66 0,1.32 0,2 5.1542,1.0342 10.1402,1.2171 15.375,1.25 0.8121,0.021 1.6242,0.041 2.4609,0.062 5.7226,0.037 9.9577,-0.8915 15.1641,-3.3125 0.33,-0.66 0.66,-1.32 1,-2 0.66,-0.3094 1.32,-0.6187 2,-0.9375 2.3461,-0.9517 2.3461,-0.9517 3,-4.0625 0.66,-0.33 1.32,-0.66 2,-1 0.6556,-2.5273 0.6556,-2.5273 1,-5 0.66,0 1.32,0 2,0 0,-4.95 0,-9.9 0,-15 -0.66,0 -1.32,0 -2,0 -0.4022,-1.1447 -0.4022,-1.1447 -0.8125,-2.3125 -1.1592,-2.6235 -1.9401,-3.9587 -4.1875,-5.6875 -2.1033,-0.7145 -2.1033,-0.7145 -4,-1 0,-0.66 0,-1.32 0,-2 -1.32,0 -2.64,0 -4,0 0,-0.66 0,-1.32 0,-2 -4.62,-0.99 -9.24,-1.98 -14,-3 0,-0.66 0,-1.32 0,-2 -4.9828,-1.1405 -9.9447,-2.2223 -15,-3 0,-0.66 0,-1.32 0,-2 -0.6033,-0.098 -1.2066,-0.1959 -1.8281,-0.2969 -5.0367,-0.9423 -7.7965,-1.6743 -11.1719,-5.7031 -1.3177,-1.2049 -2.6528,-2.3908 -4,-3.5625 -0.66,-0.5788 -1.32,-1.1576 -2,-1.7539 -1.9615,-1.7144 -1.9615,-1.7144 -4.1133,-3.0938 -2.325,-1.9591 -3.0189,-3.6304 -4.0742,-6.4648 -0.3236,-0.843 -0.6471,-1.6861 -0.9805,-2.5547 -1.9867,-6.1375 -2.1736,-12.2355 -2.457,-18.6328 -0.052,-0.9932 -0.1031,-1.9864 -0.1562,-3.0098 -0.044,-0.9571 -0.088,-1.9142 -0.1329,-2.9004 -0.041,-0.8689 -0.082,-1.7378 -0.1235,-2.633 0.036,-2.3068 0.3775,-4.1925 1.0376,-6.3943 0.66,0 1.32,0 2,0 0.1238,-0.7012 0.2475,-1.4025 0.375,-2.125 1.3608,-6.2599 2.8957,-9.4681 7.625,-13.875 1.0092,-1.2216 2.0089,-2.4512 3,-3.6875 2.4189,-2.8877 4.3546,-4.1668 8,-5.3125 0.33,-0.66 0.66,-1.32 1,-2 1.32,0 2.64,0 4,0 0,-0.66 0,-1.32 0,-2 1.65,0 3.3,0 5,0 0,-0.66 0,-1.32 0,-2 6.4359,-0.9085 12.8207,-1.299 19.3125,-1.5625 0.9881,-0.043 1.9761,-0.086 2.9941,-0.1309 7.1501,-0.3055 7.1501,-0.3055 10.6934,-0.3055 z"
     fill="#343332"
     id="path11" />
  <path
     d="m 1522.3865,201.90794 c 42.9,0 85.8,0 130,0 0,7.92 0,15.84 0,24 -16.5,0 -33,0 -50,0 0.015,7.7382 0.015,7.7382 0.031,15.6328 0.017,24.2426 -0.2421,48.4823 -0.4949,72.7233 -0.062,5.962 -0.1212,11.9241 -0.1809,17.8861 -0.1164,11.586 -0.2354,23.1719 -0.3555,34.7578 -8.91,0 -17.82,0 -27,0 -0.1325,-12.7732 -0.2632,-25.5465 -0.3912,-38.3197 -0.06,-5.9358 -0.1197,-11.8715 -0.1816,-17.8072 -0.2944,-28.293 -0.4838,-56.5784 -0.4272,-84.8731 -17.16,0 -34.32,0 -52,0 0.33,-7.92 0.66,-15.84 1,-24 z"
     fill="#343332"
     id="path13" />
  <path
     d="m 1080.3865,201.90794 c 42.57,0 85.14,0 129,0 0,7.92 0,15.84 0,24 -16.5,0 -33,0 -50,0 0.015,7.7382 0.015,7.7382 0.031,15.6328 0.017,24.2426 -0.2421,48.4823 -0.4949,72.7233 -0.062,5.962 -0.1212,11.9241 -0.1809,17.8861 -0.1164,11.586 -0.2354,23.1719 -0.3555,34.7578 -8.91,0 -17.82,0 -27,0 -0.1325,-12.7732 -0.2632,-25.5465 -0.3912,-38.3197 -0.06,-5.9358 -0.1197,-11.8715 -0.1816,-17.8072 -0.2944,-28.293 -0.4838,-56.5784 -0.4272,-84.8731 -16.5,0 -33,0 -50,0 0,-7.92 0,-15.84 0,-24 z"
     fill="#343332"
     id="path14" />
  <path
     d="m 1021.3865,201.90794 c 9.24,0 18.48,0 28,0 0,54.78 0,109.56 0,166 -9.24,-0.33 -18.48,-0.66 -28,-1 0,-54.45 0,-108.9 0,-165 z"
     fill="#343332"
     id="path15" />
  <path
     d=""
     fill="#343332"
     id="path46" />
  <path
     d=""
     fill="#343332"
     id="path49" />
  <path
     d=""
     fill="#343332"
     id="path50" />
  <path
     d=""
     fill="#343332"
     id="path51" />
  <path
     d=""
     fill="#343332"
     id="path52" />
  <path
     d=""
     fill="#343332"
     id="path53" />
  <path
     d=""
     fill="#343332"
     id="path54" />
  <path
     d=""
     fill="#343332"
     id="path55" />
  <path
     d=""
     fill="#343332"
     id="path56" />
  <path
     d=""
     fill="#343332"
     id="path57" />
  <path
     d=""
     fill="#343332"
     id="path58" />
  <path
     d=""
     fill="#343332"
     id="path59" />
  <path
     d=""
     fill="#343332"
     id="path60" />
  <path
     d=""
     fill="#343332"
     id="path61" />
  <path
     d=""
     fill="#343332"
     id="path62" />
  <path
     d=""
     fill="#343332"
     id="path63" />
  <path
     d=""
     fill="#343332"
     id="path64" />
  <path
     d=""
     fill="#343332"
     id="path65" />
  <path
     d=""
     fill="#343332"
     id="path66" />
  <path
     d=""
     fill="#343332"
     id="path67" />
  <path
     d=""
     fill="#343332"
     id="path68" />
  <path
     d=""
     fill="#343332"
     id="path69" />
  <path
     d=""
     fill="#343332"
     id="path70" />
  <path
     d=""
     fill="#343332"
     id="path71" />
</svg>
