<?xml version="1.0" encoding="UTF-8"?>
<svg version="1.1" xmlns="http://www.w3.org/2000/svg" width="2000" height="2000">
<path d="M0 0 C20.13 0 40.26 0 61 0 C64.375 6.75 64.375 6.75 64 11 C64.66 11 65.32 11 66 11 C66 12.65 66 14.3 66 16 C66.66 16 67.32 16 68 16 C68 17.65 68 19.3 68 21 C68.66 21 69.32 21 70 21 C71.60355101 24.50776784 72.22036864 27.14354879 72 31 C72.66 31 73.32 31 74 31 C74 32.65 74 34.3 74 36 C74.66 36 75.32 36 76 36 C76 37.65 76 39.3 76 41 C76.66 41 77.32 41 78 41 C78 42.65 78 44.3 78 46 C78.66 46 79.32 46 80 46 C80 47.65 80 49.3 80 51 C80.66 51 81.32 51 82 51 C82 52.65 82 54.3 82 56 C82.66 56 83.32 56 84 56 C84 57.65 84 59.3 84 61 C84.66 61 85.32 61 86 61 C87.60355101 64.50776784 88.22036864 67.14354879 88 71 C88.66 71 89.32 71 90 71 C90 72.65 90 74.3 90 76 C90.66 76 91.32 76 92 76 C92 77.65 92 79.3 92 81 C92.66 81 93.32 81 94 81 C94 82.65 94 84.3 94 86 C94.66 86 95.32 86 96 86 C96 87.65 96 89.3 96 91 C96.66 91 97.32 91 98 91 C98 92.65 98 94.3 98 96 C98.66 96 99.32 96 100 96 C101.60355101 99.50776784 102.22036864 102.14354879 102 106 C102.66 106 103.32 106 104 106 C104 107.65 104 109.3 104 111 C104.66 111 105.32 111 106 111 C106 112.65 106 114.3 106 116 C106.66 116 107.32 116 108 116 C108 117.65 108 119.3 108 121 C108.66 121 109.32 121 110 121 C110 122.65 110 124.3 110 126 C110.66 126 111.32 126 112 126 C112 127.65 112 129.3 112 131 C112.66 131 113.32 131 114 131 C114 132.65 114 134.3 114 136 C114.66 136 115.32 136 116 136 C118.4294516 139.6441774 118.16179575 141.71241272 118 146 C118.66 146 119.32 146 120 146 C120 147.65 120 149.3 120 151 C120.66 151 121.32 151 122 151 C122 152.65 122 154.3 122 156 C122.66 156 123.32 156 124 156 C124 157.65 124 159.3 124 161 C124.66 161 125.32 161 126 161 C126 162.65 126 164.3 126 166 C126.66 166 127.32 166 128 166 C128 167.65 128 169.3 128 171 C128.66 171 129.32 171 130 171 C130 172.65 130 174.3 130 176 C130.66 176 131.32 176 132 176 C134.4294516 179.6441774 134.16179575 181.71241272 134 186 C134.66 186 135.32 186 136 186 C136 187.65 136 189.3 136 191 C136.66 191 137.32 191 138 191 C138 192.65 138 194.3 138 196 C138.66 196 139.32 196 140 196 C140 197.65 140 199.3 140 201 C140.66 201 141.32 201 142 201 C142 202.65 142 204.3 142 206 C142.66 206 143.32 206 144 206 C144 207.65 144 209.3 144 211 C144.66 211 145.32 211 146 211 C146 212.65 146 214.3 146 216 C146.66 216 147.32 216 148 216 C148.48212214 217.56159059 148.96055873 219.12431928 149.4375 220.6875 C149.83775391 221.99267578 149.83775391 221.99267578 150.24609375 223.32421875 C150.96344529 225.87025921 151.517541 228.4003423 152 231 C152.66 231 153.32 231 154 231 C154.66 233.97 155.32 236.94 156 240 C156.66 240 157.32 240 158 240 C158 241.98 158 243.96 158 246 C158.66 246 159.32 246 160 246 C160 247.65 160 249.3 160 251 C160.66 251 161.32 251 162 251 C162 252.65 162 254.3 162 256 C162.66 256 163.32 256 164 256 C164.48212214 257.56159059 164.96055873 259.12431928 165.4375 260.6875 C165.83775391 261.99267578 165.83775391 261.99267578 166.24609375 263.32421875 C166.96344529 265.87025921 167.517541 268.4003423 168 271 C168.66 271 169.32 271 170 271 C170.66 273.97 171.32 276.94 172 280 C172.66 280 173.32 280 174 280 C174 281.98 174 283.96 174 286 C174.66 286 175.32 286 176 286 C176 287.65 176 289.3 176 291 C176.66 291 177.32 291 178 291 C178 292.65 178 294.3 178 296 C178.66 296 179.32 296 180 296 C180.48212214 297.56159059 180.96055873 299.12431928 181.4375 300.6875 C181.83775391 301.99267578 181.83775391 301.99267578 182.24609375 303.32421875 C182.96344529 305.87025921 183.517541 308.4003423 184 311 C184.66 311 185.32 311 186 311 C186.66 313.97 187.32 316.94 188 320 C188.66 320 189.32 320 190 320 C190 321.98 190 323.96 190 326 C190.66 326 191.32 326 192 326 C192 327.65 192 329.3 192 331 C192.66 331 193.32 331 194 331 C194 332.65 194 334.3 194 336 C194.66 336 195.32 336 196 336 C196 335.34 196 334.68 196 334 C196.99 334 197.98 334 199 334 C199 335.65 199 337.3 199 339 C198.01 339 197.02 339 196 339 C196 339.66 196 340.32 196 341 C196.66 341 197.32 341 198 341 C198.66 343.31 199.32 345.62 200 348 C223.95857125 348.88378522 247.90285952 349.09117052 271.875 349.0625 C272.59581379 349.06164398 273.31662758 349.06078796 274.05928421 349.05990601 C283.03954562 349.04845454 292.01977501 349.02829054 301 349 C300.814375 349.598125 300.62875 350.19625 300.4375 350.8125 C299.77906313 353.16408762 299.77906313 353.16408762 301 356 C301.99 356.33 302.98 356.66 304 357 C303.773125 357.53625 303.54625 358.0725 303.3125 358.625 C302.84215191 362.19964545 304.03601596 364.05402394 306 367 C307.65 367.33 309.3 367.66 311 368 C310.34 371.3 309.68 374.6 309 378 C309.66 378 310.32 378 311 378 C312.60355101 381.50776784 313.22036864 384.14354879 313 388 C313.66 388 314.32 388 315 388 C315.19335938 388.66386719 315.38671875 389.32773437 315.5859375 390.01171875 C317.18317527 395.48310904 317.18317527 395.48310904 319.1875 400.8125 C320 403 320 403 320 408 C287.99 408 255.98 408 223 408 C223.66 409.65 224.32 411.3 225 413 C225 413.99 225 414.98 225 416 C225.66 416 226.32 416 227 416 C227.19335938 416.67546875 227.38671875 417.3509375 227.5859375 418.046875 C227.84632813 418.93890625 228.10671875 419.8309375 228.375 420.75 C228.75785156 422.07257813 228.75785156 422.07257813 229.1484375 423.421875 C229.91878431 425.97862332 229.91878431 425.97862332 231.1015625 428.140625 C232 430 232 430 232 433 C232.66 433 233.32 433 234 433 C234 432.34 234 431.68 234 431 C234.99 431 235.98 431 237 431 C237 431.99 237 432.98 237 434 C236.01 434 235.02 434 234 434 C234 434.66 234 435.32 234 436 C234.66 436 235.32 436 236 436 C236 438.31 236 440.62 236 443 C236.99 443.33 237.98 443.66 239 444 C239.66 447.63 240.32 451.26 241 455 C241.99 455 242.98 455 244 455 C244.33 458.3 244.66 461.6 245 465 C245.66 465 246.32 465 247 465 C247 466.65 247 468.3 247 470 C247.66 470 248.32 470 249 470 C249 471.65 249 473.3 249 475 C249.66 475 250.32 475 251 475 C251 476.65 251 478.3 251 480 C252.65 480 254.3 480 256 480 C255.82210937 480.5878125 255.64421875 481.175625 255.4609375 481.78125 C254.11037083 488.28228278 258.41870223 495.58961399 260.9765625 501.36328125 C262 504 262 504 262 507 C262.66 507 263.32 507 264 507 C264 508.65 264 510.3 264 512 C264.66 512 265.32 512 266 512 C266 511.34 266 510.68 266 510 C266.99 510 267.98 510 269 510 C269 510.99 269 511.98 269 513 C268.01 513 267.02 513 266 513 C266 514.32 266 515.64 266 517 C266.66 517 267.32 517 268 517 C268.22042969 517.83917969 268.22042969 517.83917969 268.4453125 518.6953125 C270.32272275 525.40651465 272.93323694 531.65736946 275.79296875 537.99609375 C277 541 277 541 277 544 C277.66 544 278.32 544 279 544 C279 545.65 279 547.3 279 549 C279.66 549 280.32 549 281 549 C281.33 550.32 281.66 551.64 282 553 C282.66 553 283.32 553 284 553 C284 554.98 284 556.96 284 559 C284.66 559 285.32 559 286 559 C286.1546875 560.423125 286.1546875 560.423125 286.3125 561.875 C286.9910919 566.73491554 288.5085476 571.33803874 290 576 C290.66 576 291.32 576 292 576 C292.66 579.3 293.32 582.6 294 586 C294.66 586 295.32 586 296 586 C296 587.65 296 589.3 296 591 C296.66 591 297.32 591 298 591 C298 592.65 298 594.3 298 596 C298.99 596 299.98 596 301 596 C300.67 597.65 300.34 599.3 300 601 C300.66 601 301.32 601 302 601 C302.4803318 602.58298026 302.95921612 604.16639978 303.4375 605.75 C303.83775391 607.07257813 303.83775391 607.07257813 304.24609375 608.421875 C304.88468494 610.60565835 305.46775833 612.78835498 306 615 C307.65 615.33 309.3 615.66 311 616 C311 616.99 311 617.98 311 619 C310.34 619 309.68 619 309 619 C309.28875 619.51949219 309.5775 620.03898437 309.875 620.57421875 C310.24625 621.27160156 310.6175 621.96898437 311 622.6875 C311.37125 623.37199219 311.7425 624.05648437 312.125 624.76171875 C313.12558902 627.32126121 313.0631369 629.27524816 313 632 C305.22927821 632.22331562 297.45832509 632.42481141 289.68635082 632.59840012 C286.07754624 632.67969078 282.46925406 632.76851209 278.86108398 632.87451172 C275.37949687 632.97651605 271.89795305 633.05878009 268.41555214 633.12732697 C266.43929389 633.17139943 264.46352692 633.23594934 262.48783875 633.30072021 C261.28682022 633.32104309 260.0858017 633.34136597 258.84838867 633.36230469 C257.25954109 633.4022757 257.25954109 633.4022757 255.63859558 633.4430542 C253 633 253 633 251.19592285 631.10029602 C250.05251894 629.09223447 249.0575545 627.13154636 248.17578125 624.99609375 C247.86962891 624.25552734 247.56347656 623.51496094 247.24804688 622.75195312 C246.93931641 621.98818359 246.63058594 621.22441406 246.3125 620.4375 C245.99216797 619.66986328 245.67183594 618.90222656 245.34179688 618.11132812 C243 612.38416178 243 612.38416178 243 609 C242.34 609 241.68 609 241 609 C241 607.35 241 605.7 241 604 C240.34 604 239.68 604 239 604 C239 602.35 239 600.7 239 599 C238.34 599 237.68 599 237 599 C237 597.35 237 595.7 237 594 C236.01 594 235.02 594 234 594 C234 591.69 234 589.38 234 587 C233.34 587 232.68 587 232 587 C231.67 584.69 231.34 582.38 231 580 C230.34 580 229.68 580 229 580 C229 578.35 229 576.7 229 575 C228.01 575 227.02 575 226 575 C226 572.36 226 569.72 226 567 C225.34 567 224.68 567 224 567 C224 566.01 224 565.02 224 564 C223.34 564 222.68 564 222 564 C221.86722656 563.38511719 221.73445313 562.77023437 221.59765625 562.13671875 C221.42105469 561.32847656 221.24445312 560.52023437 221.0625 559.6875 C220.88847656 558.88699219 220.71445313 558.08648438 220.53515625 557.26171875 C220.00113841 554.854599 220.00113841 554.854599 219 552 C218.01 551.67 217.02 551.34 216 551 C215.9175 549.700625 215.835 548.40125 215.75 547.0625 C215.27035605 542.53093851 213.87834276 538.99329274 211.83984375 534.9453125 C211 533 211 533 211 530 C209.68 529.67 208.36 529.34 207 529 C207.21398438 528.46246094 207.42796875 527.92492187 207.6484375 527.37109375 C208.14313627 524.03462538 207.01448965 522.10632677 205.625 519.0625 C203.94785808 515.35685962 202.63764579 512.02606587 202 508 C201.34 508 200.68 508 200 508 C199.34 504.7 198.68 501.4 198 498 C197.34 498 196.68 498 196 498 C194.39644899 494.49223216 193.77963136 491.85645121 194 488 C193.34 488 192.68 488 192 488 C191.72736328 486.93458984 191.72736328 486.93458984 191.44921875 485.84765625 C191.19785156 484.92855469 190.94648437 484.00945312 190.6875 483.0625 C190.44386719 482.14597656 190.20023438 481.22945312 189.94921875 480.28515625 C189.63597656 479.53105469 189.32273437 478.77695312 189 478 C188.01 477.67 187.02 477.34 186 477 C186.33 475.68 186.66 474.36 187 473 C186.01 472.34 185.02 471.68 184 471 C183.60539977 468.67624308 183.27769908 466.3406065 183 464 C182.3530635 462.3255761 181.69040574 460.65697379 181 459 C181 458.01 181 457.02 181 456 C180.34 456 179.68 456 179 456 C179 454.68 179 453.36 179 452 C177.68 452 176.36 452 175 452 C174.93941406 451.25234375 174.87882812 450.5046875 174.81640625 449.734375 C174.73261719 448.74953125 174.64882812 447.7646875 174.5625 446.75 C174.48128906 445.77546875 174.40007813 444.8009375 174.31640625 443.796875 C174.04925416 441.43538247 173.64628032 439.28098935 173 437 C172.34 437 171.68 437 171 437 C170.731875 435.824375 170.46375 434.64875 170.1875 433.4375 C169.47452458 430.54456378 168.59927563 427.90295495 167.375 425.1875 C166 422 166 422 166 419 C165.34 419 164.68 419 164 419 C164 419.66 164 420.32 164 421 C163.01 421 162.02 421 161 421 C161 420.01 161 419.02 161 418 C161.99 418 162.98 418 164 418 C164 417.34 164 416.68 164 416 C162.68 416 161.36 416 160 416 C160 415.01 160 414.02 160 413 C160.66 413 161.32 413 162 413 C162 412.34 162 411.68 162 411 C161.34 411 160.68 411 160 411 C160 410.01 160 409.02 160 408 C119.74 408 79.48 408 38 408 C38 409.32 38 410.64 38 412 C38.66 412 39.32 412 40 412 C40.66 414.97 41.32 417.94 42 421 C42.99 421 43.98 421 45 421 C45 423.64 45 426.28 45 429 C45.66 429 46.32 429 47 429 C47.33 431.31 47.66 433.62 48 436 C48.66 436 49.32 436 50 436 C50 437.32 50 438.64 50 440 C50.66 440 51.32 440 52 440 C52.33 442.97 52.66 445.94 53 449 C53.66 449 54.32 449 55 449 C56.485 453.455 56.485 453.455 58 458 C58.99 458 59.98 458 61 458 C61.77321882 460.98241547 62.41196203 463.97580475 63 467 C62.34 467 61.68 467 61 467 C61.28875 467.62648438 61.5775 468.25296875 61.875 468.8984375 C62.24625 469.71570313 62.6175 470.53296875 63 471.375 C63.37125 472.18710937 63.7425 472.99921875 64.125 473.8359375 C65 476 65 476 65 478 C65.66 478 66.32 478 67 478 C68.35439668 480.70879335 68.06501451 483.00933268 68 486 C68.99 486 69.98 486 71 486 C71.33 489.3 71.66 492.6 72 496 C72.99 496 73.98 496 75 496 C75 496.66 75 497.32 75 498 C75.66 498 76.32 498 77 498 C77 498.99 77 499.98 77 501 C76.34 501 75.68 501 75 501 C75.66 501.99 76.32 502.98 77 504 C77.99 504 78.98 504 80 504 C80 504.99 80 505.98 80 507 C79.34 507 78.68 507 78 507 C78.99 510.3 79.98 513.6 81 517 C81.66 517 82.32 517 83 517 C83 518.98 83 520.96 83 523 C83.66 523 84.32 523 85 523 C86.485 528.94 86.485 528.94 88 535 C89.32 535 90.64 535 92 535 C91.67 536.65 91.34 538.3 91 540 C91.66 540 92.32 540 93 540 C93 542.31 93 544.62 93 547 C93.66 547 94.32 547 95 547 C95.33 549.64 95.66 552.28 96 555 C96.66 555 97.32 555 98 555 C98 556.65 98 558.3 98 560 C98.66 560 99.32 560 100 560 C102.66666667 568 105.33333333 576 108 584 C108.66 584 109.32 584 110 584 C110.33 586.64 110.66 589.28 111 592 C112.32 592 113.64 592 115 592 C115 592.99 115 593.98 115 595 C114.34 595 113.68 595 113 595 C113 595.66 113 596.32 113 597 C113.66 597 114.32 597 115 597 C115.33 597.66 115.66 598.32 116 599 C116.99 599 117.98 599 119 599 C118.93039062 599.90878906 118.93039062 599.90878906 118.859375 600.8359375 C118.59500544 606.97308804 119.57994593 611.38377023 122.125 616.96875 C123 619 123 619 123 621 C123.66 621 124.32 621 125 621 C125.33 623.31 125.66 625.62 126 628 C126.66 628 127.32 628 128 628 C127.67 629.32 127.34 630.64 127 632 C108.52 632 90.04 632 71 632 C71 632.99 71 633.98 71 635 C70.01 635 69.02 635 68 635 C68 634.01 68 633.02 68 632 C67.01 632 66.02 632 65 632 C62 626.375 62 626.375 62 623 C60.35 623 58.7 623 57 623 C57 619.7 57 616.4 57 613 C56.34 613 55.68 613 55 613 C54.67 610.03 54.34 607.06 54 604 C53.34 604 52.68 604 52 604 C51.67 601.36 51.34 598.72 51 596 C50.34 596 49.68 596 49 596 C49 594.68 49 593.36 49 592 C48.34 592 47.68 592 47 592 C47 590.02 47 588.04 47 586 C46.34 586 45.68 586 45 586 C45 584.35 45 582.7 45 581 C43.02 581.33 41.04 581.66 39 582 C38.67 580.02 38.34 578.04 38 576 C38.99 576 39.98 576 41 576 C41 574.68 41 573.36 41 572 C40.34 572 39.68 572 39 572 C37.90154282 567.67940177 36.82187261 563.38332057 36 559 C35.01 558.67 34.02 558.34 33 558 C32.67 555.03 32.34 552.06 32 549 C31.34 549 30.68 549 30 549 C30 547.35 30 545.7 30 544 C29.34 544 28.68 544 28 544 C28 542.68 28 541.36 28 540 C27.34 540 26.68 540 26 540 C25.79375 538.989375 25.5875 537.97875 25.375 536.9375 C24.27076048 532.50453845 22.67153332 528.30573916 21 524.0625 C20.73880371 523.38759521 20.47760742 522.71269043 20.20849609 522.01733398 C18.92346269 518.32450308 18.92346269 518.32450308 16 516 C15.62243192 514.67851173 15.2981424 513.34164079 15 512 C14.649375 511.195625 14.29875 510.39125 13.9375 509.5625 C12.94788438 506.85755065 12.83688066 504.85458841 13 502 C12.34 502 11.68 502 11 502 C10.82984375 501.38253906 10.6596875 500.76507812 10.484375 500.12890625 C8.77814576 494.1661796 6.66418883 488.59885369 4 483 C3.01 483 2.02 483 1 483 C1.020625 481.783125 1.04125 480.56625 1.0625 479.3125 C1.06824116 476.08022678 0.78766315 473.15065259 0 470 C-0.66 470 -1.32 470 -2 470 C-2 468.35 -2 466.7 -2 465 C-2.66 465 -3.32 465 -4 465 C-4 463.35 -4 461.7 -4 460 C-4.66 460 -5.32 460 -6 460 C-6 458.35 -6 456.7 -6 455 C-6.99 455 -7.98 455 -9 455 C-9.103125 453.989375 -9.20625 452.97875 -9.3125 451.9375 C-9.84328003 448.89757802 -10.33607355 446.96317927 -11.5625 444.25 C-13 441 -13 441 -13 438 C-13.66 438 -14.32 438 -15 438 C-16.60355101 434.49223216 -17.22036864 431.85645121 -17 428 C-17.66 428 -18.32 428 -19 428 C-19.18175781 427.35933594 -19.36351562 426.71867187 -19.55078125 426.05859375 C-20.74187505 421.96000943 -21.9317529 417.95858643 -23.6875 414.0625 C-25 411 -25 411 -25 408 C-101.56 408 -178.12 408 -257 408 C-258.11685535 413.9191354 -258.11685535 413.9191354 -257 419 C-257.99 419 -258.98 419 -260 419 C-260.66 421.31 -261.32 423.62 -262 426 C-262.66 426 -263.32 426 -264 426 C-264 427.65 -264 429.3 -264 431 C-264.66 431 -265.32 431 -266 431 C-266.66 434.3 -267.32 437.6 -268 441 C-268.66 441 -269.32 441 -270 441 C-270 441.99 -270 442.98 -270 444 C-269.34 444 -268.68 444 -268 444 C-268 444.99 -268 445.98 -268 447 C-269.32 447.33 -270.64 447.66 -272 448 C-272.66 450.64 -273.32 453.28 -274 456 C-274.66 456 -275.32 456 -276 456 C-276.33 458.64 -276.66 461.28 -277 464 C-277.66 464 -278.32 464 -279 464 C-279.99 467.96 -280.98 471.92 -282 476 C-282.66 476 -283.32 476 -284 476 C-285.70695733 481.65571861 -287.39334698 487.31492008 -289 493 C-289.66 493 -290.32 493 -291 493 C-291 494.65 -291 496.3 -291 498 C-291.66 498 -292.32 498 -293 498 C-293.66 501.3 -294.32 504.6 -295 508 C-295.66 508 -296.32 508 -297 508 C-296.938125 509.27875 -296.87625 510.5575 -296.8125 511.875 C-296.70703125 514.0546875 -296.70703125 514.0546875 -297 516 C-297.99 516.66 -298.98 517.32 -300 518 C-301.197853 520.23402829 -301.197853 520.23402829 -302.125 522.8125 C-302.45757813 523.66457031 -302.79015625 524.51664063 -303.1328125 525.39453125 C-303.97338367 527.92003112 -304.53923184 530.38114423 -305 533 C-305.66 533 -306.32 533 -307 533 C-307.33 534.32 -307.66 535.64 -308 537 C-307.01 537 -306.02 537 -305 537 C-305 537.99 -305 538.98 -305 540 C-305.66 540 -306.32 540 -307 540 C-307 540.66 -307 541.32 -307 542 C-307.99 542.33 -308.98 542.66 -310 543 C-311.96361202 546.92722404 -313.34197179 550.6570138 -314 555 C-314.66 555 -315.32 555 -316 555 C-315.67 556.65 -315.34 558.3 -315 560 C-315.99 560 -316.98 560 -318 560 C-318 561.65 -318 563.3 -318 565 C-318.66 565 -319.32 565 -320 565 C-320 566.65 -320 568.3 -320 570 C-320.66 570 -321.32 570 -322 570 C-322 571.65 -322 573.3 -322 575 C-244.12 575 -166.24 575 -86 575 C-86 574.34 -86 573.68 -86 573 C-84.35 573 -82.7 573 -81 573 C-80.16080602 575.26882087 -79.32848276 577.53977027 -78.5 579.8125 C-78.26152344 580.45509766 -78.02304687 581.09769531 -77.77734375 581.75976562 C-76.72931254 584.64933739 -76 586.90076061 -76 590 C-75.34 590 -74.68 590 -74 590 C-74 591.65 -74 593.3 -74 595 C-73.34 595 -72.68 595 -72 595 C-71.773125 596.258125 -71.54625 597.51625 -71.3125 598.8125 C-70.49752806 602.17351568 -70.257797 602.80358323 -67.375 605 C-66.59125 605.33 -65.8075 605.66 -65 606 C-65.185625 606.495 -65.37125 606.99 -65.5625 607.5 C-66.20139296 611.15081689 -65.54905291 614.33964724 -65 618 C-64.34 618 -63.68 618 -63 618 C-62.49307308 619.5811292 -61.99473557 621.16501383 -61.5 622.75 C-61.08234375 624.07257813 -61.08234375 624.07257813 -60.65625 625.421875 C-60 628 -60 628 -60 632 C-232.26 632.495 -232.26 632.495 -408 633 C-407.67 630.36 -407.34 627.72 -407 625 C-406.34 625 -405.68 625 -405 625 C-404.87625 624.34 -404.7525 623.68 -404.625 623 C-403.85479462 619.30301417 -402.93049337 615.65994058 -402 612 C-401.34 612 -400.68 612 -400 612 C-399.87753906 611.31550781 -399.75507812 610.63101563 -399.62890625 609.92578125 C-398.91575403 606.60807311 -397.95146135 603.42563463 -396.9375 600.1875 C-396.57527344 599.02605469 -396.21304688 597.86460937 -395.83984375 596.66796875 C-395.56269531 595.78753906 -395.28554688 594.90710937 -395 594 C-394.34 594 -393.68 594 -393 594 C-393 592.35 -393 590.7 -393 589 C-392.34 589 -391.68 589 -391 589 C-391 587.68 -391 586.36 -391 585 C-391.66 585 -392.32 585 -393 585 C-393 584.01 -393 583.02 -393 582 C-392.37963867 581.91532471 -391.75927734 581.83064941 -391.12011719 581.7434082 C-388.88428659 581.20310438 -388.88428659 581.20310438 -387.90332031 579.29760742 C-387.63100586 578.57420166 -387.35869141 577.8507959 -387.078125 577.10546875 C-386.77519531 576.31462891 -386.47226562 575.52378906 -386.16015625 574.70898438 C-385.85980469 573.87689453 -385.55945313 573.04480469 -385.25 572.1875 C-384.93417969 571.36701172 -384.61835937 570.54652344 -384.29296875 569.70117188 C-382.83759103 565.81701445 -382 563.22502306 -382 559 C-381.01 559 -380.02 559 -379 559 C-378.896875 558.319375 -378.79375 557.63875 -378.6875 556.9375 C-377.85274981 553.37084011 -376.50527246 550.33777806 -375 547 C-375.99 547 -376.98 547 -378 547 C-378 546.01 -378 545.02 -378 544 C-376.68 543.67 -375.36 543.34 -374 543 C-373.67 541.68 -373.34 540.36 -373 539 C-372.34 539 -371.68 539 -371 539 C-371 537.35 -371 535.7 -371 534 C-370.34 534 -369.68 534 -369 534 C-369 532.35 -369 530.7 -369 529 C-368.34 529 -367.68 529 -367 529 C-367.020625 528.195625 -367.04125 527.39125 -367.0625 526.5625 C-367 524 -367 524 -366 523 C-365.95936168 521.33382885 -365.957279 519.66611905 -366 518 C-365.01 518 -364.02 518 -363 518 C-363 516.68 -363 515.36 -363 514 C-362.34 514 -361.68 514 -361 514 C-361 512.35 -361 510.7 -361 509 C-360.34 509 -359.68 509 -359 509 C-358.79697266 508.21302734 -358.79697266 508.21302734 -358.58984375 507.41015625 C-356.72441514 500.69684729 -354.17264132 494.36936193 -351.42553711 487.97875977 C-349.87577216 484.33104509 -348.57485946 480.95410086 -348 477 C-347.34 477 -346.68 477 -346 477 C-346.04125 476.278125 -346.0825 475.55625 -346.125 474.8125 C-345.99078695 471.79270631 -345.24829381 469.73064271 -344 467 C-343.34 467 -342.68 467 -342 467 C-342.04125 466.278125 -342.0825 465.55625 -342.125 464.8125 C-341.99078695 461.79270631 -341.24829381 459.73064271 -340 457 C-339.34 457 -338.68 457 -338 457 C-338 455.35 -338 453.7 -338 452 C-337.34 452 -336.68 452 -336 452 C-336 450.68 -336 449.36 -336 448 C-336.66 448 -337.32 448 -338 448 C-338 447.01 -338 446.02 -338 445 C-336.68 444.67 -335.36 444.34 -334 444 C-333.67 442.35 -333.34 440.7 -333 439 C-332.34 439 -331.68 439 -331 439 C-330.855625 437.9275 -330.71125 436.855 -330.5625 435.75 C-329.44416244 428.29441624 -329.44416244 428.29441624 -326 425 C-326 424.34 -326 423.68 -326 423 C-326.66 422.67 -327.32 422.34 -328 422 C-328 421.01 -328 420.02 -328 419 C-326.35 419.33 -324.7 419.66 -323 420 C-322.896875 419.319375 -322.79375 418.63875 -322.6875 417.9375 C-322 415 -322 415 -319 408 C-350.35 408 -381.7 408 -414 408 C-415 402 -415 402 -414 400 C-413.34 400 -412.68 400 -412 400 C-411.87625 399.34 -411.7525 398.68 -411.625 398 C-410.85479462 394.30301417 -409.93049337 390.65994058 -409 387 C-408.34 387 -407.68 387 -407 387 C-406.67 384.03 -406.34 381.06 -406 378 C-405.34 378 -404.68 378 -404 378 C-404 376.68 -404 375.36 -404 374 C-403.34 374 -402.68 374 -402 374 C-401.01 368.555 -401.01 368.555 -400 363 C-399.34 363 -398.68 363 -398 363 C-397.15545644 359.62182575 -396.89155081 357.32534757 -398 354 C-397.34 353.67 -396.68 353.34 -396 353 C-394.86649466 350.98330173 -394.86649466 350.98330173 -394 349 C-392.97692497 349.00333092 -392.97692497 349.00333092 -391.93318176 349.00672913 C-383.22630057 349.03374574 -374.51941545 349.05181819 -365.8125 349.0625 C-364.77324057 349.06378403 -364.77324057 349.06378403 -363.71298599 349.06509399 C-341.12848938 349.08975167 -318.57038473 348.85316826 -296 348 C-296.33 346.68 -296.66 345.36 -297 344 C-296.01 343.67 -295.02 343.34 -294 343 C-292.78130071 340.49552484 -292.78130071 340.49552484 -292 338 C-291.34 338 -290.68 338 -290 338 C-290 336.35 -290 334.7 -290 333 C-289.34 333 -288.68 333 -288 333 C-287.34 329.7 -286.68 326.4 -286 323 C-285.34 323 -284.68 323 -284 323 C-284 321.35 -284 319.7 -284 318 C-283.34 318 -282.68 318 -282 318 C-280.16597696 312.03331172 -278.46110748 306.06921567 -277 300 C-276.34 300 -275.68 300 -275 300 C-273.04911777 294.38145918 -271.36827653 288.78886224 -270 283 C-269.34 283 -268.68 283 -268 283 C-267.81824219 282.31035156 -267.63648438 281.62070312 -267.44921875 280.91015625 C-263.4159292 265.83185841 -263.4159292 265.83185841 -261 261 C-260.34 261 -259.68 261 -259 261 C-258.34 257.7 -257.68 254.4 -257 251 C-256.34 251 -255.68 251 -255 251 C-255 249.35 -255 247.7 -255 246 C-254.34 246 -253.68 246 -253 246 C-253 243.36 -253 240.72 -253 238 C-252.34 238 -251.68 238 -251 238 C-251 237.34 -251 236.68 -251 236 C-250.34 236 -249.68 236 -249 236 C-249 234.35 -249 232.7 -249 231 C-248.34 231 -247.68 231 -247 231 C-247 229.35 -247 227.7 -247 226 C-247.66 226 -248.32 226 -249 226 C-249 225.01 -249 224.02 -249 223 C-247.35 223 -245.7 223 -244 223 C-243.67 220.69 -243.34 218.38 -243 216 C-242.34 216 -241.68 216 -241 216 C-240.67 213.36 -240.34 210.72 -240 208 C-239.34 208 -238.68 208 -238 208 C-237.608125 206.7625 -237.21625 205.525 -236.8125 204.25 C-234.86118823 198.36792078 -232.43753821 192.69401218 -230 187 C-230.99 187 -231.98 187 -233 187 C-233 186.01 -233 185.02 -233 184 C-231.68 184 -230.36 184 -229 184 C-228.16080602 181.73117913 -227.32848276 179.46022973 -226.5 177.1875 C-226.26152344 176.54490234 -226.02304687 175.90230469 -225.77734375 175.24023438 C-224.72931254 172.35066261 -224 170.09923939 -224 167 C-223.00569787 165.99433441 -222.00479608 164.99518081 -221 164 C-219.8187617 161.68249982 -219.8187617 161.68249982 -218.875 159.125 C-218.54242187 158.28195312 -218.20984375 157.43890625 -217.8671875 156.5703125 C-217.01922556 154.05698387 -216.45836017 151.60984669 -216 149 C-215.34 149 -214.68 149 -214 149 C-214 147.35 -214 145.7 -214 144 C-213.34 144 -212.68 144 -212 144 C-212 142.35 -212 140.7 -212 139 C-211.34 139 -210.68 139 -210 139 C-210 137.35 -210 135.7 -210 134 C-209.34 134 -208.68 134 -208 134 C-207.855625 133.278125 -207.71125 132.55625 -207.5625 131.8125 C-206.78125 127.90625 -206.78125 127.90625 -206 124 C-205.34 124 -204.68 124 -204 124 C-204 122.35 -204 120.7 -204 119 C-203.34 119 -202.68 119 -202 119 C-202 117.35 -202 115.7 -202 114 C-201.34 114 -200.68 114 -200 114 C-200 112.35 -200 110.7 -200 109 C-199.34 109 -198.68 109 -198 109 C-198 108.34 -198 107.68 -198 107 C-198.99 107 -199.98 107 -201 107 C-201 106.01 -201 105.02 -201 104 C-199.35 104 -197.7 104 -196 104 C-196 102.35 -196 100.7 -196 99 C-195.34 99 -194.68 99 -194 99 C-193.34 95.7 -192.68 92.4 -192 89 C-191.34 89 -190.68 89 -190 89 C-189.88398437 88.30261719 -189.76796875 87.60523438 -189.6484375 86.88671875 C-188.93148969 83.69500531 -187.84478029 80.8471655 -186.625 77.8125 C-184.44956058 72.27616432 -182.59087727 66.72974497 -181 61 C-180.34 61 -179.68 61 -179 61 C-178.87882813 60.33613281 -178.75765625 59.67226563 -178.6328125 58.98828125 C-177.77452292 54.46575541 -176.96028689 50.20061476 -175 46 C-174.34 46 -173.68 46 -173 46 C-173 43.69 -173 41.38 -173 39 C-172.34 38.67 -171.68 38.34 -171 38 C-170.34444881 35.47266765 -170.34444881 35.47266765 -170 33 C-169.34 33 -168.68 33 -168 33 C-167.67 31.35 -167.34 29.7 -167 28 C-167.66 27.67 -168.32 27.34 -169 27 C-169 25.02 -169 23.04 -169 21 C-168.360625 20.87625 -167.72125 20.7525 -167.0625 20.625 C-166.381875 20.41875 -165.70125 20.2125 -165 20 C-164.67 19.34 -164.34 18.68 -164 18 C-163.34 18 -162.68 18 -162 18 C-162 16.35 -162 14.7 -162 13 C-161.34 13 -160.68 13 -160 13 C-160 11.35 -160 9.7 -160 8 C-159.34 8 -158.68 8 -158 8 C-157.87625 7.21625 -157.7525 6.4325 -157.625 5.625 C-157 3 -157 3 -155 1 C-152.01904297 0.77294922 -152.01904297 0.77294922 -148.2421875 0.8046875 C-147.24761032 0.80893234 -147.24761032 0.80893234 -146.23294067 0.81326294 C-144.11344417 0.82446565 -141.99436896 0.84956949 -139.875 0.875 C-138.43880818 0.88502972 -137.00260975 0.89415559 -135.56640625 0.90234375 C-132.04413372 0.924405 -128.52210797 0.95893506 -125 1 C-125 2.32 -125 3.64 -125 5 C-123.35 4.67 -121.7 4.34 -120 4 C-120 4.99 -120 5.98 -120 7 C-120.99 7 -121.98 7 -123 7 C-123 7.99 -123 8.98 -123 10 C-122.34 10 -121.68 10 -121 10 C-121 11.65 -121 13.3 -121 15 C-120.34 15 -119.68 15 -119 15 C-118.72736328 16.03060547 -118.72736328 16.03060547 -118.44921875 17.08203125 C-118.19785156 17.98308594 -117.94648437 18.88414062 -117.6875 19.8125 C-117.44386719 20.70582031 -117.20023438 21.59914063 -116.94921875 22.51953125 C-116.18582892 25.03071564 -116.18582892 25.03071564 -114.4375 26.53125 C-112.49579948 28.51516141 -112.51028312 29.95809298 -112.3125 32.6875 C-112.24675781 33.49574219 -112.18101562 34.30398438 -112.11328125 35.13671875 C-112.07589844 35.75160156 -112.03851562 36.36648438 -112 37 C-111.01 37 -110.02 37 -109 37 C-107.39274365 40.21451269 -107.94251815 43.43612536 -108 47 C-107.34 47 -106.68 47 -106 47 C-105.72736328 48.03060547 -105.72736328 48.03060547 -105.44921875 49.08203125 C-105.19785156 49.98308594 -104.94648437 50.88414062 -104.6875 51.8125 C-104.44386719 52.70582031 -104.20023438 53.59914063 -103.94921875 54.51953125 C-102.96898547 57.0810462 -101.99959941 58.19161911 -100 60 C-99.4375 61.875 -99.4375 61.875 -99 64 C-98.649375 64.804375 -98.29875 65.60875 -97.9375 66.4375 C-96.94788438 69.14244935 -96.83688066 71.14541159 -97 74 C-96.34 74 -95.68 74 -95 74 C-95 75.32 -95 76.64 -95 78 C-94.34 78 -93.68 78 -93 78 C-92.34 80.97 -91.68 83.94 -91 87 C-90.34 87 -89.68 87 -89 87 C-88.67 89.97 -88.34 92.94 -88 96 C-87.34 96 -86.68 96 -86 96 C-86 97.65 -86 99.3 -86 101 C-84.68 101 -83.36 101 -82 101 C-82 101.99 -82 102.98 -82 104 C-82.66 104 -83.32 104 -84 104 C-84 104.66 -84 105.32 -84 106 C-83.34 106 -82.68 106 -82 106 C-81.82984375 106.71027344 -81.6596875 107.42054688 -81.484375 108.15234375 C-81.24203125 109.07144531 -80.9996875 109.99054688 -80.75 110.9375 C-80.51796875 111.85402344 -80.2859375 112.77054688 -80.046875 113.71484375 C-79.23367434 116.19151441 -79.23367434 116.19151441 -76.890625 116.81640625 C-76.26671875 116.87699219 -75.6428125 116.93757812 -75 117 C-75 117.99 -75 118.98 -75 120 C-75.66 120.33 -76.32 120.66 -77 121 C-75.74738312 124.31967964 -74.46992985 127.62923525 -73.1875 130.9375 C-72.83107422 131.88302734 -72.47464844 132.82855469 -72.10742188 133.80273438 C-71.58051758 135.15141602 -71.58051758 135.15141602 -71.04296875 136.52734375 C-70.72352295 137.35999756 -70.40407715 138.19265137 -70.07495117 139.05053711 C-69.09749911 141.34420093 -69.09749911 141.34420093 -66 142 C-66.33 143.98 -66.66 145.96 -67 148 C-66.34 148 -65.68 148 -65 148 C-64.34 151.3 -63.68 154.6 -63 158 C-62.34 158 -61.68 158 -61 158 C-61 159.65 -61 161.3 -61 163 C-60.34 163 -59.68 163 -59 163 C-57.39644899 166.50776784 -56.77963136 169.14354879 -57 173 C-56.34 173 -55.68 173 -55 173 C-55 174.65 -55 176.3 -55 178 C-54.34 178 -53.68 178 -53 178 C-52.67 179.65 -52.34 181.3 -52 183 C-51.34 183 -50.68 183 -50 183 C-49.67 186.3 -49.34 189.6 -49 193 C-48.34 193 -47.68 193 -47 193 C-47 194.65 -47 196.3 -47 198 C-46.34 198 -45.68 198 -45 198 C-45 199.65 -45 201.3 -45 203 C-44.34 203 -43.68 203 -43 203 C-42.72736328 204.06541016 -42.72736328 204.06541016 -42.44921875 205.15234375 C-42.19785156 206.07144531 -41.94648437 206.99054688 -41.6875 207.9375 C-41.44386719 208.85402344 -41.20023438 209.77054688 -40.94921875 210.71484375 C-40.47935547 211.84599609 -40.47935547 211.84599609 -40 213 C-39.01 213.33 -38.02 213.66 -37 214 C-35.79727181 216.40545638 -35.89928528 217.94996953 -35.9375 220.625 C-35.94652344 221.44226563 -35.95554687 222.25953125 -35.96484375 223.1015625 C-35.98224609 224.04128906 -35.98224609 224.04128906 -36 225 C-35.34 225 -34.68 225 -34 225 C-33.67 227.31 -33.34 229.62 -33 232 C-32.01 232 -31.02 232 -30 232 C-30 232.99 -30 233.98 -30 235 C-29.01 235 -28.02 235 -27 235 C-27 235.99 -27 236.98 -27 238 C-27.66 238 -28.32 238 -29 238 C-27.17778624 244.61242722 -24.94776396 250.80520671 -22 257 C-20.35 257 -18.7 257 -17 257 C-17 257.99 -17 258.98 -17 260 C-17.99 260 -18.98 260 -20 260 C-18.68 260.33 -17.36 260.66 -16 261 C-16 261.99 -16 262.98 -16 264 C-16.66 264 -17.32 264 -18 264 C-18 264.66 -18 265.32 -18 266 C-17.34 266 -16.68 266 -16 266 C-15.67 269.63 -15.34 273.26 -15 277 C-14.01 277 -13.02 277 -12 277 C-12 279.64 -12 282.28 -12 285 C-11.34 285 -10.68 285 -10 285 C-8.515 289.455 -8.515 289.455 -7 294 C-6.01 294 -5.02 294 -4 294 C-4 294.99 -4 295.98 -4 297 C-4.66 297 -5.32 297 -6 297 C-6 297.99 -6 298.98 -6 300 C-5.01 300.33 -4.02 300.66 -3 301 C-2.67 303.97 -2.34 306.94 -2 310 C-1.34 310 -0.68 310 0 310 C0 311.65 0 313.3 0 315 C0.66 315 1.32 315 2 315 C2.27263672 316.03060547 2.27263672 316.03060547 2.55078125 317.08203125 C2.80214844 317.98308594 3.05351563 318.88414062 3.3125 319.8125 C3.55613281 320.70582031 3.79976562 321.59914063 4.05078125 322.51953125 C5.03830597 325.10009995 6.0590879 326.11742133 8 328 C8.38749213 330.32495277 8.71758117 332.6599583 9 335 C9.75732962 337.81571431 9.75732962 337.81571431 11 340 C11.99 340.33 12.98 340.66 14 341 C14.33 343.64 14.66 346.28 15 349 C55.59 349.33 96.18 349.66 138 350 C138 349.01 138 348.02 138 347 C137.34 347 136.68 347 136 347 C136 345.35 136 343.7 136 342 C135.34 342 134.68 342 134 342 C134 340.35 134 338.7 134 337 C133.34 337 132.68 337 132 337 C130.39644899 333.49223216 129.77963136 330.85645121 130 327 C129.34 327 128.68 327 128 327 C127.80664062 326.33613281 127.61328125 325.67226563 127.4140625 324.98828125 C125.60828232 318.33825135 125.60828232 318.33825135 123 312 C122.01 311.67 121.02 311.34 120 311 C120.33837891 310.22849609 120.33837891 310.22849609 120.68359375 309.44140625 C121.1522568 305.82517905 119.57728344 303.12948349 118.0625 299.9375 C115 293.3575388 115 293.3575388 115 290 C114.34 290 113.68 290 113 290 C113 288.35 113 286.7 113 285 C112.34 285 111.68 285 111 285 C111 283.35 111 281.7 111 280 C110.34 280 109.68 280 109 280 C109 279.34 109 278.68 109 278 C108.34 278 107.68 278 107 278 C107 275.36 107 272.72 107 270 C106.34 270 105.68 270 105 270 C104.34 267.03 103.68 264.06 103 261 C102.34 261 101.68 261 101 261 C101 260.01 101 259.02 101 258 C100.01 258 99.02 258 98 258 C98 257.01 98 256.02 98 255 C98.66 255 99.32 255 100 255 C99.67386719 254.33355469 99.34773438 253.66710937 99.01171875 252.98046875 C95.912299 246.4433445 93.67378417 240.03533671 92 233 C91.34 233 90.68 233 90 233 C89.34 229.7 88.68 226.4 88 223 C87.34 223 86.68 223 86 223 C86 221.35 86 219.7 86 218 C85.34 218 84.68 218 84 218 C83.34 215.69 82.68 213.38 82 211 C81.01 211 80.02 211 79 211 C78.67 209.02 78.34 207.04 78 205 C78.66 205 79.32 205 80 205 C80 204.34 80 203.68 80 203 C79.34 203 78.68 203 78 203 C77.51787786 201.43840941 77.03944127 199.87568072 76.5625 198.3125 C76.16224609 197.00732422 76.16224609 197.00732422 75.75390625 195.67578125 C75.03655471 193.12974079 74.482459 190.5996577 74 188 C73.34 188 72.68 188 72 188 C70.515 182.06 70.515 182.06 69 176 C68.34 176 67.68 176 67 176 C66.67 175.34 66.34 174.68 66 174 C65.01 174 64.02 174 63 174 C63 173.01 63 172.02 63 171 C63.99 171 64.98 171 66 171 C65.67 169.35 65.34 167.7 65 166 C64.34 166 63.68 166 63 166 C63 164.35 63 162.7 63 161 C62.34 161 61.68 161 61 161 C61 159.35 61 157.7 61 156 C60.34 156 59.68 156 59 156 C59 154.35 59 152.7 59 151 C58.34 151 57.68 151 57 151 C57 149.68 57 148.36 57 147 C56.34 147 55.68 147 55 147 C54.7525 145.80375 54.505 144.6075 54.25 143.375 C53.19763146 139.18045307 51.75494517 136.33932747 49 133 C48.01 133 47.02 133 46 133 C46 132.01 46 131.02 46 130 C46.99 130 47.98 130 49 130 C49 129.34 49 128.68 49 128 C48.34 128 47.68 128 47 128 C46.855625 126.9275 46.71125 125.855 46.5625 124.75 C46.16250558 122.08337051 45.72408076 119.58600271 45 117 C44.34 117 43.68 117 43 117 C43 115.35 43 113.7 43 112 C42.34 112 41.68 112 41 112 C41 110.68 41 109.36 41 108 C40.01 108 39.02 108 38 108 C38 105.03 38 102.06 38 99 C36.35 98.67 34.7 98.34 33 98 C33 98.66 33 99.32 33 100 C32.01 100 31.02 100 30 100 C30 99.01 30 98.02 30 97 C30.99 97 31.98 97 33 97 C32.51169393 92.19832361 31.81443028 88.47559468 30 84 C29.875 81.1875 29.875 81.1875 30 79 C29.34 79 28.68 79 28 79 C27.74476563 78.09121094 27.74476563 78.09121094 27.484375 77.1640625 C25.88469371 71.63324952 24.01031694 66.33528204 21.76953125 61.03125 C21 59 21 59 21 57 C20.34 57 19.68 57 19 57 C19 57.66 19 58.32 19 59 C18.01 59 17.02 59 16 59 C16.33 57.35 16.66 55.7 17 54 C17.66 54 18.32 54 19 54 C18.01 51.03 17.02 48.06 16 45 C15.34 45 14.68 45 14 45 C13.67 42.36 13.34 39.72 13 37 C12.34 37 11.68 37 11 37 C11 35.35 11 33.7 11 32 C10.34 32 9.68 32 9 32 C9 30.35 9 28.7 9 27 C8.34 27 7.68 27 7 27 C7 25.35 7 23.7 7 22 C5.68 22 4.36 22 3 22 C3 21.01 3 20.02 3 19 C3.66 19 4.32 19 5 19 C3.02 15.04 3.02 15.04 1 11 C0.01 11 -0.98 11 -2 11 C-2 10.01 -2 9.02 -2 8 C-1.34 7.67 -0.68 7.34 0 7 C0 4.69 0 2.38 0 0 Z M-141 116 C-141.32871094 116.89976562 -141.65742187 117.79953125 -141.99609375 118.7265625 C-146.08376567 129.81517897 -150.52390953 140.74730932 -155.04199219 151.66674805 C-156.81495596 155.9848456 -158.53737678 160.32092845 -160.1875 164.6875 C-160.55230469 165.64011719 -160.91710937 166.59273437 -161.29296875 167.57421875 C-162.29261396 169.98112923 -162.29261396 169.98112923 -161 172 C-161.66 172 -162.32 172 -163 172 C-163.39832031 173.08539062 -163.79664063 174.17078125 -164.20703125 175.2890625 C-164.74200903 176.73444107 -165.27717531 178.17974988 -165.8125 179.625 C-166.20405273 180.69427734 -166.20405273 180.69427734 -166.60351562 181.78515625 C-168.17133141 186.00470985 -169.9482436 189.98642721 -172 194 C-173.61672563 197.81474588 -174.95631477 201.71105825 -176.3125 205.625 C-178.14834662 210.8435263 -180.2489552 215.85446521 -182.6015625 220.859375 C-186.10250539 228.72182775 -189.27787649 236.83362947 -192 245 C-191.67 245.66 -191.34 246.32 -191 247 C-191.66 247 -192.32 247 -193 247 C-194.691997 251.0745662 -196.38263567 255.14969249 -198.07202148 259.2253418 C-198.64684406 260.61156413 -199.22203659 261.99763311 -199.79760742 263.38354492 C-200.62516182 265.37638732 -201.45138133 267.3697786 -202.27734375 269.36328125 C-202.77484131 270.56251221 -203.27233887 271.76174316 -203.78491211 272.99731445 C-204.58495549 274.97435555 -205.32555498 276.97666493 -206 279 C-206.61589385 280.58689767 -207.24196357 282.16986256 -207.875 283.75 C-208.40673828 285.07837891 -208.40673828 285.07837891 -208.94921875 286.43359375 C-209.82732686 288.57826673 -210.7434243 290.69646826 -211.6875 292.8125 C-212.83898293 295.60895854 -213.44229644 298.05213833 -214 301 C-214.64800438 302.34250235 -215.31827914 303.6743006 -216 305 C-216.84110182 306.80890808 -217.67393793 308.62167453 -218.5 310.4375 C-218.9228125 311.36433594 -219.345625 312.29117188 -219.78125 313.24609375 C-221.76484286 317.72825069 -223.50254557 322.2966694 -225.25 326.875 C-226.68921235 330.63413673 -228.14760401 334.3831365 -229.66015625 338.11328125 C-229.93504883 338.79213379 -230.20994141 339.47098633 -230.49316406 340.17041016 C-231.03248024 341.49813072 -231.57472296 342.8246669 -232.12011719 344.14990234 C-233.53502046 347.46750781 -233.53502046 347.46750781 -234 351 C-172.29 351 -110.58 351 -47 351 C-47.76973093 346.38161441 -48.24562262 344.0590299 -50.1875 340.125 C-52.65228745 334.90419661 -54.71424967 329.60834753 -56.68041992 324.18603516 C-58.11673039 320.25523963 -59.65957943 316.38568839 -61.28125 312.52734375 C-64.78111854 304.1909241 -68.04854888 295.76418864 -71.34326172 287.34521484 C-74.46694237 279.36812219 -77.61949163 271.41053566 -80.94555664 263.51489258 C-82.68542753 259.36522599 -84.33817258 255.18137221 -86 251 C-86.95786329 248.60397731 -87.91619022 246.20814376 -88.875 243.8125 C-89.39065323 242.52344879 -89.90627789 241.23438616 -90.421875 239.9453125 C-90.68162109 239.29594727 -90.94136719 238.64658203 -91.20898438 237.97753906 C-93.578125 232.0546875 -93.578125 232.0546875 -94.35571289 230.1105957 C-94.86780763 228.8304401 -95.38001433 227.55032928 -95.89233398 226.27026367 C-96.93729839 223.65905219 -97.9811565 221.04743363 -99.01953125 218.43359375 C-101.43754794 212.35253901 -103.93051906 206.30338651 -106.42675781 200.25415039 C-108.65478814 194.85051589 -110.84385343 189.43273611 -113 184 C-113.66621263 182.33315179 -114.33288927 180.66648897 -115 179 C-115.32871094 178.17757812 -115.65742187 177.35515625 -115.99609375 176.5078125 C-116.67399163 174.81438666 -117.35372484 173.12169454 -118.03515625 171.4296875 C-120.09371711 166.31068065 -122.08370138 161.17400628 -124 156 C-124.99 156 -125.98 156 -127 156 C-126.79246094 155.28585937 -126.58492187 154.57171875 -126.37109375 153.8359375 C-125.91738388 150.36863891 -126.61465891 148.7863411 -128.0625 145.625 C-128.52527344 144.58085938 -128.98804688 143.53671875 -129.46484375 142.4609375 C-129.97144531 141.31882812 -130.47804688 140.17671875 -131 139 C-132.06492002 136.42583355 -133.09704861 133.8391182 -134.125 131.25 C-134.37918701 130.61328369 -134.63337402 129.97656738 -134.89526367 129.32055664 C-136.65558339 124.90101827 -138.35968078 120.46531344 -140 116 C-140.33 116 -140.66 116 -141 116 Z M-31 235 C-30 237 -30 237 -30 237 Z M41 576 C41 576.66 41 577.32 41 578 C41.66 578 42.32 578 43 578 C43 577.34 43 576.68 43 576 C42.34 576 41.68 576 41 576 Z " fill="#343332" transform="translate(1057,434)"/>
<path d="M80 3 H1680 V17 H80 Z " fill="#c8c8c8" transform="translate(120,1220)"/>
<path d="M0 0 C9.24 0 18.48 0 28 0 C28 23.43 28 46.86 28 71 C54.07 71 80.14 71 107 71 C107 47.57 107 24.14 107 0 C116.24 0 125.48 0 135 0 C135 54.78 135 109.56 135 166 C125.76 165.67 116.52 165.34 107 165 C107 140.91 107 116.82 107 92 C80.93 92 54.86 92 28 92 C28 116.09 28 140.18 28 165 C18.76 165.33 9.52 165.66 0 166 C0 111.22 0 56.44 0 0 Z " fill="#343332" transform="translate(940,1397)"/>
<path d="M0 0 C66 0 66 0 81 3 C81 3.66 81 4.32 81 5 C82.175625 5.309375 82.175625 5.309375 83.375 5.625 C93.37653198 9.41868454 99.20820525 14.28947554 104 24 C104 24.66 104 25.32 104 26 C104.66 26 105.32 26 106 26 C106 27.98 106 29.96 106 32 C106.66 32 107.32 32 108 32 C109.32915021 39.97490128 109.08801359 47.94186719 109 56 C108.34 56 107.68 56 107 56 C107.495 58.475 107.495 58.475 108 61 C107.34 61 106.68 61 106 61 C106 62.98 106 64.96 106 67 C105.34 67 104.68 67 104 67 C104 68.32 104 69.64 104 71 C102.4375 72.75 102.4375 72.75 100 75 C98.77795209 76.34180316 97.5706455 77.69711777 96.375 79.0625 C95.78460937 79.73410156 95.19421875 80.40570312 94.5859375 81.09765625 C92.84417608 83.11810748 92.84417608 83.11810748 91 86 C89.34183216 86.68753301 87.67540664 87.35561283 86 88 C85.67 88.66 85.34 89.32 85 90 C82.93359375 90.8515625 82.93359375 90.8515625 80.4375 91.625 C79.61121094 91.88539062 78.78492188 92.14578125 77.93359375 92.4140625 C77.29550781 92.60742188 76.65742187 92.80078125 76 93 C76.56144095 95.76137284 76.824717 96.824717 78.875 98.875 C81 101 81 101 82.4375 103.9375 C83.862619 107.11970625 83.862619 107.11970625 86.5 109.5 C89.17693438 112.17693438 90.31968903 114.63937807 92 118 C92.825 118.825 93.65 119.65 94.5 120.5 C97.17693438 123.17693438 98.31968903 125.63937807 100 129 C100.825 129.825 101.65 130.65 102.5 131.5 C105.17693438 134.17693438 106.31968903 136.63937807 108 140 C108.825 140.825 109.65 141.65 110.5 142.5 C113.17693438 145.17693438 114.31968903 147.63937807 116 151 C116.825 151.825 117.65 152.65 118.5 153.5 C122.38675941 157.38675941 124 160.49400071 124 166 C119.94301181 165.88146154 115.88624306 165.75719418 111.82958984 165.62768555 C110.45040622 165.5844545 109.07117315 165.54277134 107.69189453 165.50268555 C105.70593062 165.44469597 103.72014731 165.38062277 101.734375 165.31640625 C100.54038086 165.27974854 99.34638672 165.24309082 98.11621094 165.20532227 C95.57536745 165.03791006 93.4228576 164.73682141 91 164 C91 163.34 91 162.68 91 162 C90.34 162 89.68 162 89 162 C88.67 161.01 88.34 160.02 88 159 C87.34 158.67 86.68 158.34 86 158 C85 156 84 154 83 152 C82.34 151.67 81.68 151.34 81 151 C80.566875 150.0925 80.13375 149.185 79.6875 148.25 C78.16003142 144.90860735 78.16003142 144.90860735 75.5 142.5 C72.84622199 139.84622199 71.60301723 137.35870277 70 134 C69.34 133.67 68.68 133.34 68 133 C67 131 66 129 65 127 C64.01 126.505 64.01 126.505 63 126 C62 124 61 122 60 120 C59.01 119.505 59.01 119.505 58 119 C57.566875 118.0925 57.13375 117.185 56.6875 116.25 C55.16003142 112.90860735 55.16003142 112.90860735 52.5 110.5 C49.84093903 107.84093903 48.63735917 105.34914375 47 102 C42.22307476 98.4877232 42.22307476 98.4877232 27 98 C27 120.11 27 142.22 27 165 C18.09 165 9.18 165 0 165 C0 110.55 0 56.1 0 0 Z M26 21 C26 39.81 26 58.62 26 78 C38.07487546 78.0145111 38.07487546 78.0145111 50.125 77.625 C50.93453125 77.5940625 51.7440625 77.563125 52.578125 77.53125 C56.54030715 77.33510237 59.55308185 77.13975354 63 75 C63.9075 74.773125 64.815 74.54625 65.75 74.3125 C72.31721885 71.66035392 77.4743493 66.74092439 80.3203125 60.23046875 C82.59804345 52.75584591 83.31907888 43.05163694 79.9921875 35.8046875 C76.87528445 30.49223011 73.65157511 26.90053494 67.6875 24.875 C66.470625 24.58625 65.25375 24.2975 64 24 C63.36964844 23.82597656 62.73929688 23.65195313 62.08984375 23.47265625 C50.10259236 20.20773887 38.47935247 21 26 21 Z " fill="#343332" transform="translate(633,1397)"/>
<path d="M0 0 C8.91 0 17.82 0 27 0 C27 23.43 27 46.86 27 71 C53.07 71 79.14 71 106 71 C106 47.57 106 24.14 106 0 C115.24 0 124.48 0 134 0 C134 54.45 134 108.9 134 165 C124.76 165 115.52 165 106 165 C106 140.91 106 116.82 106 92 C79.93 92 53.86 92 27 92 C27 116.09 27 140.18 27 165 C18.09 165 9.18 165 0 165 C0 110.55 0 56.1 0 0 Z " fill="#343332" transform="translate(281,1397)"/>
<path d="M0 0 C8.91 0 17.82 0 27 0 C27.495 1.98 27.495 1.98 28 4 C28.66 4 29.32 4 30 4 C30 5.65 30 7.3 30 9 C30.66 9 31.32 9 32 9 C32 10.65 32 12.3 32 14 C32.66 14 33.32 14 34 14 C34 15.65 34 17.3 34 19 C34.66 19 35.32 19 36 19 C36.23074219 19.79921875 36.46148438 20.5984375 36.69921875 21.421875 C38.75373224 28.34063189 41.11180693 34.94399991 44.046875 41.5390625 C45 44 45 44 45 47 C45.66 47 46.32 47 47 47 C47 48.65 47 50.3 47 52 C47.66 52 48.32 52 49 52 C49 53.65 49 55.3 49 57 C49.66 57 50.32 57 51 57 C51 58.65 51 60.3 51 62 C51.66 62 52.32 62 53 62 C53 63.65 53 65.3 53 67 C53.66 67 54.32 67 55 67 C55.20753906 67.74121094 55.41507813 68.48242188 55.62890625 69.24609375 C57.85488721 76.85540941 60.56460138 84.07780943 63.71313477 91.34936523 C66 96.6974279 66 96.6974279 66 100 C66.66 100 67.32 100 68 100 C68 101.65 68 103.3 68 105 C68.66 105 69.32 105 70 105 C70 106.65 70 108.3 70 110 C70.66 110 71.32 110 72 110 C72 111.65 72 113.3 72 115 C72.66 115 73.32 115 74 115 C74.20753906 115.74121094 74.41507813 116.48242188 74.62890625 117.24609375 C76.85488721 124.85540941 79.56460138 132.07780943 82.71313477 139.34936523 C85 144.6974279 85 144.6974279 85 148 C85.66 148 86.32 148 87 148 C87 149.65 87 151.3 87 153 C87.66 153 88.32 153 89 153 C89 154.65 89 156.3 89 158 C89.66 158 90.32 158 91 158 C91 160.31 91 162.62 91 165 C86.95857785 165.11662261 82.91759135 165.1873935 78.875 165.25 C77.73289062 165.28351563 76.59078125 165.31703125 75.4140625 165.3515625 C64.60700068 165.47722601 64.60700068 165.47722601 60 161 C59.625 158.25 59.625 158.25 60 156 C59.34 156 58.68 156 58 156 C58 154.35 58 152.7 58 151 C57.34 151 56.68 151 56 151 C55.67 148.36 55.34 145.72 55 143 C54.34 143 53.68 143 53 143 C52.49487756 141.39743892 51.99608373 139.79288208 51.5 138.1875 C51.2215625 137.29417969 50.943125 136.40085937 50.65625 135.48046875 C50 133 50 133 50 130 C49.34 130 48.68 130 48 130 C47.01 126.04 47.01 126.04 46 122 C13.825 121.505 13.825 121.505 -19 121 C-19 121.99 -19 122.98 -19 124 C-19.66 124 -20.32 124 -21 124 C-21.99 128.29 -22.98 132.58 -24 137 C-24.66 137 -25.32 137 -26 137 C-26.185625 137.99 -26.185625 137.99 -26.375 139 C-27.14520538 142.69698583 -28.06950663 146.34005942 -29 150 C-29.66 150 -30.32 150 -31 150 C-31.0825 150.639375 -31.165 151.27875 -31.25 151.9375 C-32.2831832 156.15633138 -33.76095396 160.26310937 -36 164 C-39.17787541 165.0592918 -41.42588943 165.11458939 -44.76171875 165.09765625 C-45.87998047 165.09443359 -46.99824219 165.09121094 -48.15039062 165.08789062 C-49.31763672 165.07951172 -50.48488281 165.07113281 -51.6875 165.0625 C-52.86634766 165.05798828 -54.04519531 165.05347656 -55.25976562 165.04882812 C-58.17322789 165.03703273 -61.08658863 165.0205727 -64 165 C-63.48501739 160.32015802 -62.87483582 155.99948605 -61.4375 151.5 C-61.16808594 150.6440625 -60.89867187 149.788125 -60.62109375 148.90625 C-60.41613281 148.2771875 -60.21117187 147.648125 -60 147 C-59.34 147 -58.68 147 -58 147 C-58 145.35 -58 143.7 -58 142 C-57.34 142 -56.68 142 -56 142 C-56 140.35 -56 138.7 -56 137 C-55.34 137 -54.68 137 -54 137 C-54 135.35 -54 133.7 -54 132 C-53.34 132 -52.68 132 -52 132 C-52 130.35 -52 128.7 -52 127 C-51.34 127 -50.68 127 -50 127 C-49.9071875 126.360625 -49.814375 125.72125 -49.71875 125.0625 C-48.54035627 120.04151803 -46.45666084 115.36667904 -44.52734375 110.59375 C-42.99549141 106.7480956 -41.59868967 103.12430664 -41 99 C-40.34 99 -39.68 99 -39 99 C-39 97.35 -39 95.7 -39 94 C-38.34 94 -37.68 94 -37 94 C-37 92.35 -37 90.7 -37 89 C-36.34 89 -35.68 89 -35 89 C-35 87.35 -35 85.7 -35 84 C-34.34 84 -33.68 84 -33 84 C-32.8865625 83.3090625 -32.773125 82.618125 -32.65625 81.90625 C-31.6532266 77.46428923 -29.85093721 73.37326236 -28.15625 69.15625 C-27.15219776 66.41545875 -26.47156687 63.87227096 -26 61 C-25.34 61 -24.68 61 -24 61 C-23.34 57.7 -22.68 54.4 -22 51 C-21.34 51 -20.68 51 -20 51 C-20 49.35 -20 47.7 -20 46 C-19.34 46 -18.68 46 -18 46 C-18 44.35 -18 42.7 -18 41 C-17.34 41 -16.68 41 -16 41 C-16 39.35 -16 37.7 -16 36 C-15.34 36 -14.68 36 -14 36 C-13.86078125 35.0409375 -13.86078125 35.0409375 -13.71875 34.0625 C-12.54035627 29.04151803 -10.45666084 24.36667904 -8.52734375 19.59375 C-6.99549141 15.7480956 -5.59868967 12.12430664 -5 8 C-4.34 8 -3.68 8 -3 8 C-3 6.35 -3 4.7 -3 3 C-2.34 3 -1.68 3 -1 3 C-0.67 2.01 -0.34 1.02 0 0 Z M13 31 C12.82984375 31.61746094 12.6596875 32.23492188 12.484375 32.87109375 C11.02767744 37.96178682 9.32415052 42.72196873 7.1015625 47.5234375 C5.31225934 51.54619709 3.79124591 55.66950695 2.23046875 59.78515625 C1.12810271 62.66530625 -0.01905405 65.52121193 -1.1875 68.375 C-2.32050003 71.17577607 -3.23518599 73.83006819 -4.0625 76.75 C-5.02941602 80.10197553 -6.4168521 82.89966869 -8 86 C-8.70626239 87.98636298 -9.36893571 89.98848259 -10 92 C-10.99 94.97 -11.98 97.94 -13 101 C4.49 101 21.98 101 40 101 C34.80300372 86.87700191 34.80300372 86.87700191 29 73 C28.27317037 70.8195111 27.54691616 68.63870471 26.84765625 66.44921875 C25.85292859 63.57505172 24.68859845 60.79941545 23.5 58 C21.69624772 53.74444072 20.09658184 49.4962802 18.68359375 45.09765625 C17.10529337 40.25452879 15.33216769 35.53421443 13 31 Z " fill="#343332" transform="translate(515,1397)"/>
<path d="M0 0 C34.32 0 68.64 0 104 0 C104 7.59 104 15.18 104 23 C78.92 23 53.84 23 28 23 C28 38.51 28 54.02 28 70 C48.13 70 68.26 70 89 70 C89 77.59 89 85.18 89 93 C68.87 93 48.74 93 28 93 C28 109.17 28 125.34 28 142 C53.08 142 78.16 142 104 142 C104 149.59 104 157.18 104 165 C52.52 165.495 52.52 165.495 0 166 C0 111.22 0 56.44 0 0 Z " fill="#343332" transform="translate(130,1397)"/>
<path d="M0 0 C33.99 0 67.98 0 103 0 C103 7.59 103 15.18 103 23 C78.25 23 53.5 23 28 23 C28 38.51 28 54.02 28 70 C48.13 70 68.26 70 89 70 C89 77.59 89 85.18 89 93 C68.87 93 48.74 93 28 93 C28 109.17 28 125.34 28 142 C52.75 142 77.5 142 103 142 C103 149.59 103 157.18 103 165 C69.01 165 35.02 165 0 165 C0 110.55 0 56.1 0 0 Z " fill="#343332" transform="translate(1338,1397)"/>
<path d="M0 0 C2.0667767 -0.002193 4.13302375 -0.02042946 6.19970703 -0.03930664 C13.29463003 -0.06841041 19.70151929 0.35974788 26.57080078 2.18530273 C27.56080078 2.18530273 28.55080078 2.18530273 29.57080078 2.18530273 C29.57080078 2.84530273 29.57080078 3.50530273 29.57080078 4.18530273 C30.30169922 4.29874023 31.03259766 4.41217773 31.78564453 4.52905273 C34.651636 5.20434946 36.6179592 6.18047229 39.13330078 7.68530273 C41.3929575 9.03248109 43.22282297 10.10183716 45.78564453 10.71655273 C46.37474609 10.87124023 46.96384766 11.02592773 47.57080078 11.18530273 C47.90080078 11.84530273 48.23080078 12.50530273 48.57080078 13.18530273 C49.56080078 13.51530273 50.55080078 13.84530273 51.57080078 14.18530273 C53.96243404 16.25235719 55.92065061 18.48656216 57.57080078 21.18530273 C57.50830078 24.43530273 57.50830078 24.43530273 56.57080078 27.18530273 C56.24080078 28.17530273 55.91080078 29.16530273 55.57080078 30.18530273 C54.91080078 30.18530273 54.25080078 30.18530273 53.57080078 30.18530273 C53.57080078 31.17530273 53.57080078 32.16530273 53.57080078 33.18530273 C52.58080078 33.68030273 52.58080078 33.68030273 51.57080078 34.18530273 C50.43729544 36.20200101 50.43729544 36.20200101 49.57080078 38.18530273 C47.84199096 38.23980112 46.11267366 38.27831962 44.38330078 38.31030273 C43.42037109 38.33350586 42.45744141 38.35670898 41.46533203 38.38061523 C38.442673 38.17665714 36.30310093 37.45404906 33.57080078 36.18530273 C33.57080078 35.52530273 33.57080078 34.86530273 33.57080078 34.18530273 C32.58080078 34.18530273 31.59080078 34.18530273 30.57080078 34.18530273 C30.12349609 33.73413086 29.67619141 33.28295898 29.21533203 32.81811523 C27.09025858 30.70818482 25.07403196 30.04950843 22.25830078 29.06030273 C21.33404297 28.72772461 20.40978516 28.39514648 19.45751953 28.05249023 C6.17748361 24.06308837 -9.51855902 25.03724609 -22.05419922 30.87280273 C-22.83794922 31.30592773 -23.62169922 31.73905273 -24.42919922 32.18530273 C-25.08919922 32.18530273 -25.74919922 32.18530273 -26.42919922 32.18530273 C-26.42919922 32.84530273 -26.42919922 33.50530273 -26.42919922 34.18530273 C-27.41919922 34.18530273 -28.40919922 34.18530273 -29.42919922 34.18530273 C-29.42919922 34.84530273 -29.42919922 35.50530273 -29.42919922 36.18530273 C-30.10982422 36.55655273 -30.79044922 36.92780273 -31.49169922 37.31030273 C-39.30375503 42.29672134 -45.02338463 50.96327149 -47.06201172 59.98608398 C-47.24376953 61.07469727 -47.24376953 61.07469727 -47.42919922 62.18530273 C-48.08919922 62.18530273 -48.74919922 62.18530273 -49.42919922 62.18530273 C-50.44480432 69.76577923 -50.61254315 77.22979225 -50.61669922 84.87280273 C-50.63506836 86.66814453 -50.63506836 86.66814453 -50.65380859 88.49975586 C-50.65574219 89.65797852 -50.65767578 90.81620117 -50.65966797 92.00952148 C-50.6658313 93.57319458 -50.6658313 93.57319458 -50.67211914 95.16845703 C-50.40833009 98.44447838 -49.51567328 101.09570052 -48.42919922 104.18530273 C-48.30419922 107.56030273 -48.30419922 107.56030273 -48.42919922 110.18530273 C-47.76919922 110.18530273 -47.10919922 110.18530273 -46.42919922 110.18530273 C-46.27064453 110.7537793 -46.11208984 111.32225586 -45.94873047 111.90795898 C-44.2477231 117.53725962 -42.14302068 121.61444556 -38.42919922 126.18530273 C-37.43919922 126.68030273 -37.43919922 126.68030273 -36.42919922 127.18530273 C-36.09919922 128.17530273 -35.76919922 129.16530273 -35.42919922 130.18530273 C-34.43919922 130.51530273 -33.44919922 130.84530273 -32.42919922 131.18530273 C-31.95482422 131.84530273 -31.48044922 132.50530273 -30.99169922 133.18530273 C-29.2011552 135.47719908 -28.24792659 135.79651275 -25.42919922 136.18530273 C-25.42919922 136.84530273 -25.42919922 137.50530273 -25.42919922 138.18530273 C-23.44919922 138.51530273 -21.46919922 138.84530273 -19.42919922 139.18530273 C-19.42919922 139.84530273 -19.42919922 140.50530273 -19.42919922 141.18530273 C-17.97513672 141.15436523 -17.97513672 141.15436523 -16.49169922 141.12280273 C-13.42919922 141.18530273 -13.42919922 141.18530273 -12.42919922 142.18530273 C-2.03974144 143.61068566 8.16910592 143.00383804 18.57080078 142.18530273 C18.57080078 141.52530273 18.57080078 140.86530273 18.57080078 140.18530273 C20.22080078 140.18530273 21.87080078 140.18530273 23.57080078 140.18530273 C23.57080078 139.52530273 23.57080078 138.86530273 23.57080078 138.18530273 C24.17408203 137.95456055 24.77736328 137.72381836 25.39892578 137.48608398 C30.45491235 135.42291527 33.3606365 133.75361345 36.57080078 129.18530273 C40.61845018 127.83608627 44.3384573 127.63225604 48.57080078 128.18530273 C51.92261788 130.56685699 53.50580407 133.68378657 55.57080078 137.18530273 C56.14830078 137.68030273 56.72580078 138.17530273 57.32080078 138.68530273 C58.57080078 140.18530273 58.57080078 140.18530273 58.69580078 142.43530273 C57.22988262 146.01865824 54.98026629 148.0322926 52.16455078 150.63452148 C50.46944846 152.11370703 50.46944846 152.11370703 49.57080078 154.18530273 C48.58080078 154.51530273 47.59080078 154.84530273 46.57080078 155.18530273 C46.24080078 155.84530273 45.91080078 156.50530273 45.57080078 157.18530273 C44.58080078 157.18530273 43.59080078 157.18530273 42.57080078 157.18530273 C42.57080078 157.84530273 42.57080078 158.50530273 42.57080078 159.18530273 C40.92080078 159.51530273 39.27080078 159.84530273 37.57080078 160.18530273 C37.57080078 160.84530273 37.57080078 161.50530273 37.57080078 162.18530273 C32.57080078 163.8519694 27.57080078 165.51863607 22.57080078 167.18530273 C21.66974609 167.53568604 20.76869141 167.88606934 19.84033203 168.24707031 C15.98184207 169.35431172 12.36952042 169.49104159 8.39111328 169.48608398 C7.61951874 169.49036911 6.84792419 169.49465424 6.052948 169.49906921 C4.4275612 169.50478771 2.80214883 169.50533115 1.17675781 169.50097656 C-1.2900022 169.4978209 -3.75555624 169.52129064 -6.22216797 169.54663086 C-7.80940606 169.54890478 -9.39664733 169.54960692 -10.98388672 169.54858398 C-11.71123016 169.55779373 -12.43857361 169.56700348 -13.18795776 169.57649231 C-18.54399863 169.52888562 -22.4795454 168.22403103 -27.42919922 166.18530273 C-29.41876707 165.79449476 -31.41726899 165.43679401 -33.42919922 165.18530273 C-33.42919922 164.52530273 -33.42919922 163.86530273 -33.42919922 163.18530273 C-34.45013672 163.03061523 -34.45013672 163.03061523 -35.49169922 162.87280273 C-39.05835911 162.03805255 -42.09142116 160.69057519 -45.42919922 159.18530273 C-45.42919922 158.52530273 -45.42919922 157.86530273 -45.42919922 157.18530273 C-46.41919922 157.18530273 -47.40919922 157.18530273 -48.42919922 157.18530273 C-48.92419922 156.19530273 -48.92419922 156.19530273 -49.42919922 155.18530273 C-50.41919922 154.85530273 -51.40919922 154.52530273 -52.42919922 154.18530273 C-54.11279297 152.44311523 -54.11279297 152.44311523 -55.86669922 150.31030273 C-57.68639675 148.10386859 -59.27091513 146.3003664 -61.58935547 144.61499023 C-63.42919922 143.18530273 -63.42919922 143.18530273 -64.42919922 140.18530273 C-65.08919922 139.85530273 -65.74919922 139.52530273 -66.42919922 139.18530273 C-66.42919922 138.19530273 -66.42919922 137.20530273 -66.42919922 136.18530273 C-67.08919922 136.18530273 -67.74919922 136.18530273 -68.42919922 136.18530273 C-70.50546235 131.56089849 -72.12942873 127.08443764 -73.42919922 122.18530273 C-74.08919922 122.18530273 -74.74919922 122.18530273 -75.42919922 122.18530273 C-76.08041752 119.5198511 -76.72527083 116.85311218 -77.36669922 114.18530273 C-77.54910156 113.44151367 -77.73150391 112.69772461 -77.91943359 111.93139648 C-80.18326402 102.46446924 -80.61563663 93.37507457 -80.61450195 83.66674805 C-80.61670147 81.55814803 -80.63494763 79.45006151 -80.65380859 77.34155273 C-80.65674116 75.98478366 -80.65872687 74.62801215 -80.65966797 73.27124023 C-80.66377686 72.05484863 -80.66788574 70.83845703 -80.67211914 69.58520508 C-80.42311272 66.10011618 -79.66106912 63.44058092 -78.42919922 60.18530273 C-77.92263818 58.60583714 -77.41983874 57.02515861 -76.92138672 55.44311523 C-76.65712891 54.60522461 -76.39287109 53.76733398 -76.12060547 52.90405273 C-75.85119141 52.04811523 -75.58177734 51.19217773 -75.30419922 50.31030273 C-74.88847656 48.9915918 -74.88847656 48.9915918 -74.46435547 47.64624023 C-73.7855322 45.49273194 -73.10715852 43.33908314 -72.42919922 41.18530273 C-71.76919922 41.18530273 -71.10919922 41.18530273 -70.42919922 41.18530273 C-70.20232422 40.50467773 -69.97544922 39.82405273 -69.74169922 39.12280273 C-68.34357375 35.99366478 -66.61829021 33.54606896 -64.55029297 30.83374023 C-63.23787629 29.06469959 -63.23787629 29.06469959 -62.42919922 26.18530273 C-60.61669922 24.43139648 -60.61669922 24.43139648 -58.42919922 22.62280273 C-55.47960743 20.26319947 -55.47960743 20.26319947 -53.42919922 17.18530273 C-52.09586589 16.51863607 -50.76253255 15.8519694 -49.42919922 15.18530273 C-49.09919922 14.52530273 -48.76919922 13.86530273 -48.42919922 13.18530273 C-47.43919922 13.18530273 -46.44919922 13.18530273 -45.42919922 13.18530273 C-45.42919922 12.52530273 -45.42919922 11.86530273 -45.42919922 11.18530273 C-43.11919922 10.52530273 -40.80919922 9.86530273 -38.42919922 9.18530273 C-38.42919922 8.52530273 -38.42919922 7.86530273 -38.42919922 7.18530273 C-36.32668061 6.51345656 -34.22212159 5.84799305 -32.11669922 5.18530273 C-30.94494141 4.81405273 -29.77318359 4.44280273 -28.56591797 4.06030273 C-25.42919922 3.18530273 -25.42919922 3.18530273 -22.42919922 3.18530273 C-22.42919922 2.52530273 -22.42919922 1.86530273 -22.42919922 1.18530273 C-14.9526582 0.15148899 -7.53702404 -0.00089407 0 0 Z " fill="#343332" transform="translate(849.42919921875,1394.814697265625)"/>
<path d="M0 0 C2.0667767 -0.002193 4.13302375 -0.02042946 6.19970703 -0.03930664 C13.29463003 -0.06841041 19.70151929 0.35974788 26.57080078 2.18530273 C27.56080078 2.18530273 28.55080078 2.18530273 29.57080078 2.18530273 C29.57080078 2.84530273 29.57080078 3.50530273 29.57080078 4.18530273 C30.23080078 4.28842773 30.89080078 4.39155273 31.57080078 4.49780273 C37.75145834 5.91420342 42.17900207 7.49062136 46.57080078 12.18530273 C47.74642578 12.58749023 47.74642578 12.58749023 48.94580078 12.99780273 C52.85785957 14.76754362 55.33238234 17.54504648 57.57080078 21.18530273 C57.94580078 24.62280273 57.94580078 24.62280273 57.57080078 27.18530273 C56.91080078 27.18530273 56.25080078 27.18530273 55.57080078 27.18530273 C55.57080078 28.17530273 55.57080078 29.16530273 55.57080078 30.18530273 C53.25830078 32.68530273 53.25830078 32.68530273 50.57080078 35.18530273 C50.10029297 35.71768555 49.62978516 36.25006836 49.14501953 36.79858398 C46.77177416 38.88915993 44.35572925 38.88997161 41.29345703 38.81030273 C37.1465677 37.85836257 33.97058459 35.59533813 30.45800781 33.25805664 C25.67483328 30.10809277 21.13802996 28.37127937 15.57080078 27.18530273 C14.81541016 27.00483398 14.06001953 26.82436523 13.28173828 26.63842773 C0.88283903 24.56598924 -14.44379826 25.55753113 -25.42919922 32.18530273 C-25.92419922 33.17530273 -25.92419922 33.17530273 -26.42919922 34.18530273 C-27.41919922 34.18530273 -28.40919922 34.18530273 -29.42919922 34.18530273 C-29.42919922 34.84530273 -29.42919922 35.50530273 -29.42919922 36.18530273 C-31.08768099 37.19881937 -32.75585883 38.19651069 -34.42919922 39.18530273 C-37.10940314 41.56770622 -38.28457529 42.75143096 -39.42919922 46.18530273 C-40.08919922 46.18530273 -40.74919922 46.18530273 -41.42919922 46.18530273 C-41.42919922 47.17530273 -41.42919922 48.16530273 -41.42919922 49.18530273 C-41.88294922 49.59780273 -42.33669922 50.01030273 -42.80419922 50.43530273 C-45.18448931 52.99869206 -45.60951996 55.84353347 -46.42919922 59.18530273 C-47.08919922 59.18530273 -47.74919922 59.18530273 -48.42919922 59.18530273 C-48.52007813 60.25071289 -48.52007813 60.25071289 -48.61279297 61.33764648 C-48.69658203 62.25674805 -48.78037109 63.17584961 -48.86669922 64.12280273 C-48.94791016 65.03932617 -49.02912109 65.95584961 -49.11279297 66.90014648 C-49.42919922 69.18530273 -49.42919922 69.18530273 -50.42919922 70.18530273 C-50.67390377 74.13542737 -50.65785194 78.08956423 -50.66943359 82.04663086 C-50.67899144 84.01745802 -50.71010648 85.98814313 -50.74169922 87.95874023 C-50.77394473 95.89113684 -49.94225933 102.66862501 -47.42919922 110.18530273 C-47.02690801 111.57928857 -46.63022234 112.97491701 -46.24169922 114.37280273 C-45.97357422 115.30092773 -45.70544922 116.22905273 -45.42919922 117.18530273 C-44.76919922 117.18530273 -44.10919922 117.18530273 -43.42919922 117.18530273 C-43.30544922 117.82467773 -43.18169922 118.46405273 -43.05419922 119.12280273 C-42.84794922 119.80342773 -42.64169922 120.48405273 -42.42919922 121.18530273 C-41.43919922 121.68030273 -41.43919922 121.68030273 -40.42919922 122.18530273 C-40.09919922 123.17530273 -39.76919922 124.16530273 -39.42919922 125.18530273 C-38.43919922 125.68030273 -38.43919922 125.68030273 -37.42919922 126.18530273 C-36.95482422 127.01030273 -36.48044922 127.83530273 -35.99169922 128.68530273 C-34.61600381 131.47685756 -34.61600381 131.47685756 -31.42919922 132.18530273 C-30.87232422 132.80405273 -30.31544922 133.42280273 -29.74169922 134.06030273 C-26.57441965 136.97077585 -23.49757821 137.8291764 -19.42919922 139.18530273 C-19.42919922 139.84530273 -19.42919922 140.50530273 -19.42919922 141.18530273 C-6.57895919 142.73126741 5.67463275 143.43604511 18.57080078 142.18530273 C18.57080078 141.52530273 18.57080078 140.86530273 18.57080078 140.18530273 C20.22080078 140.18530273 21.87080078 140.18530273 23.57080078 140.18530273 C23.57080078 139.52530273 23.57080078 138.86530273 23.57080078 138.18530273 C24.17408203 137.95456055 24.77736328 137.72381836 25.39892578 137.48608398 C30.62530754 135.44750812 30.62530754 135.44750812 34.50830078 131.56030273 C37.34203288 128.29721728 39.97675482 127.86154372 44.16455078 127.20874023 C46.57080078 127.18530273 46.57080078 127.18530273 49.50830078 128.74780273 C51.52179121 131.12738233 53.02013545 133.48849347 54.57080078 136.18530273 C55.29267578 136.84530273 56.01455078 137.50530273 56.75830078 138.18530273 C58.57080078 140.18530273 58.57080078 140.18530273 59.25830078 142.56030273 C58.29824159 146.22598328 56.14392922 147.59900844 53.19970703 149.85327148 C51.43913983 151.10754608 51.43913983 151.10754608 50.57080078 153.18530273 C49.23746745 153.8519694 47.90413411 154.51863607 46.57080078 155.18530273 C46.24080078 155.84530273 45.91080078 156.50530273 45.57080078 157.18530273 C44.58080078 157.18530273 43.59080078 157.18530273 42.57080078 157.18530273 C42.57080078 157.84530273 42.57080078 158.50530273 42.57080078 159.18530273 C35.99808042 162.08952801 29.30552986 164.68147094 22.57080078 167.18530273 C21.68602051 167.53496094 20.80124023 167.88461914 19.88964844 168.24487305 C15.97075073 169.3553331 12.32051044 169.45490819 8.28564453 169.41577148 C7.11758018 169.41508415 7.11758018 169.41508415 5.92591858 169.41438293 C4.28791774 169.4113757 2.64991938 169.40353549 1.01196289 169.39111328 C-1.48740835 169.37283412 -3.98640863 169.37060406 -6.48583984 169.37084961 C-8.08284824 169.36593426 -9.67985414 169.36010586 -11.27685547 169.35327148 C-12.01968277 169.35215866 -12.76251007 169.35104584 -13.52784729 169.34989929 C-17.28250543 169.31572803 -20.77793367 169.08322834 -24.42919922 168.18530273 C-24.42919922 167.52530273 -24.42919922 166.86530273 -24.42919922 166.18530273 C-31.41453718 164.61628415 -31.41453718 164.61628415 -38.42919922 163.18530273 C-38.42919922 162.52530273 -38.42919922 161.86530273 -38.42919922 161.18530273 C-39.14462891 160.93006836 -39.86005859 160.67483398 -40.59716797 160.41186523 C-49.17802181 156.69546785 -56.09470855 149.90070932 -62.42919922 143.18530273 C-63.12658203 142.51241211 -63.82396484 141.83952148 -64.54248047 141.14624023 C-67.19353189 138.39090315 -69.42919922 135.10715717 -69.42919922 131.18530273 C-70.08919922 131.18530273 -70.74919922 131.18530273 -71.42919922 131.18530273 C-71.68314453 130.47245117 -71.93708984 129.75959961 -72.19873047 129.02514648 C-74.46125373 122.68168 -74.46125373 122.68168 -77.11669922 116.49780273 C-78.66119762 112.59978296 -79.01941118 109.35148116 -79.42919922 105.18530273 C-79.59959213 104.52419495 -79.76998505 103.86308716 -79.94554138 103.1819458 C-80.76169827 99.81267549 -80.55006075 96.36728014 -80.52685547 92.91967773 C-80.52544052 92.12627991 -80.52402557 91.33288208 -80.52256775 90.51544189 C-80.51698337 87.98869002 -80.50443376 85.4620277 -80.49169922 82.93530273 C-80.4866822 81.21915818 -80.48211964 79.50301224 -80.47802734 77.78686523 C-80.46701906 73.58631005 -80.44976518 69.38582156 -80.42919922 65.18530273 C-79.76919922 65.18530273 -79.10919922 65.18530273 -78.42919922 65.18530273 C-78.46013672 63.88592773 -78.46013672 63.88592773 -78.49169922 62.56030273 C-78.43180965 59.32626625 -78.03338989 56.35730376 -77.42919922 53.18530273 C-76.76919922 53.18530273 -76.10919922 53.18530273 -75.42919922 53.18530273 C-75.30802734 52.50983398 -75.18685547 51.83436523 -75.06201172 51.13842773 C-74.89443359 50.24639648 -74.72685547 49.35436523 -74.55419922 48.43530273 C-74.31056641 47.11272461 -74.31056641 47.11272461 -74.06201172 45.76342773 C-73.4543984 43.28796606 -72.75097622 41.35889159 -71.42919922 39.18530273 C-70.43919922 38.69030273 -70.43919922 38.69030273 -69.42919922 38.18530273 C-68.7770663 36.16067018 -68.7770663 36.16067018 -68.42919922 34.18530273 C-67.76919922 34.18530273 -67.10919922 34.18530273 -66.42919922 34.18530273 C-66.42919922 33.19530273 -66.42919922 32.20530273 -66.42919922 31.18530273 C-64.81347465 29.41810399 -63.17449524 27.81732233 -61.42919922 26.18530273 C-60.09182755 24.85602001 -58.75875007 23.52240785 -57.42919922 22.18530273 C-56.74470703 21.50467773 -56.06021484 20.82405273 -55.35498047 20.12280273 C-54.19039716 18.95113271 -53.03798595 17.76693585 -51.90966797 16.56030273 C-50.80261247 15.38301108 -49.62188381 14.27575722 -48.42919922 13.18530273 C-47.43919922 13.18530273 -46.44919922 13.18530273 -45.42919922 13.18530273 C-45.42919922 12.52530273 -45.42919922 11.86530273 -45.42919922 11.18530273 C-43.77919922 10.85530273 -42.12919922 10.52530273 -40.42919922 10.18530273 C-40.42919922 9.52530273 -40.42919922 8.86530273 -40.42919922 8.18530273 C-39.71634766 7.93135742 -39.00349609 7.67741211 -38.26904297 7.41577148 C-34.03765314 5.89520475 -29.88351725 4.39679561 -25.80419922 2.49780273 C-17.70553041 -0.65167958 -8.57653728 -0.00101738 0 0 Z " fill="#343332" transform="translate(1548.42919921875,1394.814697265625)"/>
<path d="M0 0 C0 0.66 0 1.32 0 2 C2.97 2 5.94 2 9 2 C9 2.66 9 3.32 9 4 C9.763125 4.061875 10.52625 4.12375 11.3125 4.1875 C16.53104403 5.33734869 21.31334548 7.43711056 26 10 C26.495 10.99 26.495 10.99 27 12 C27.99 12.33 28.98 12.66 30 13 C32.25 15.1875 32.25 15.1875 34 18 C34 23.25737193 31.74488168 29.51131114 29 34 C26.359375 35.296875 26.359375 35.296875 24 36 C24 36.66 24 37.32 24 38 C22.56206608 37.68950274 21.1246682 37.3765224 19.6875 37.0625 C18.88699219 36.88847656 18.08648438 36.71445313 17.26171875 36.53515625 C15 36 15 36 12 35 C12 34.34 12 33.68 12 33 C11.01 33 10.02 33 9 33 C7.97656379 32.02399881 6.97815062 31.02138208 6 30 C-0.05728067 27.19005798 -5.23670423 26.45074324 -11.875 26.5 C-12.75542969 26.50499512 -13.63585938 26.50999023 -14.54296875 26.51513672 C-21.21151615 26.69419957 -26.73787631 27.58994886 -32 32 C-36.45289048 37.32174716 -37.3076668 41.99953152 -37.21875 48.74609375 C-36.8989456 52.04122118 -35.8555157 54.28299487 -34 57 C-31.94906855 58.40466953 -31.94906855 58.40466953 -30 59 C-30 59.66 -30 60.32 -30 61 C-29.01 61 -28.02 61 -27 61 C-27 61.66 -27 62.32 -27 63 C-24.03 63.495 -24.03 63.495 -21 64 C-21 64.66 -21 65.32 -21 66 C-20.27554687 66.12117188 -19.55109375 66.24234375 -18.8046875 66.3671875 C-13.71502427 67.24939579 -8.85116654 68.16442347 -4 70 C-4 70.66 -4 71.32 -4 72 C1.445 72.99 1.445 72.99 7 74 C7 74.66 7 75.32 7 76 C7.54527344 76.13535156 8.09054687 76.27070312 8.65234375 76.41015625 C14.33501426 78.03238869 18.35713854 80.40022658 22.8671875 84.203125 C24.91125751 85.99323404 24.91125751 85.99323404 26.9453125 87.296875 C33.32993392 91.77440171 34.90661989 98.82022523 37 106 C37.18481934 106.62390625 37.36963867 107.2478125 37.56005859 107.890625 C38.44909305 112.15325416 37.93610699 116.54942233 37.75 120.875 C37.70939453 122.34646484 37.70939453 122.34646484 37.66796875 123.84765625 C37.43840859 129.3348845 36.87644258 133.18863084 34 138 C33.67 139.216875 33.34 140.43375 33 141.6875 C32.02335818 144.92262604 31.44129907 145.87713124 29 148 C28.67 148.99 28.34 149.98 28 151 C26.1875 152.75390625 26.1875 152.75390625 24 154.5625 C21.05040821 156.92210327 21.05040821 156.92210327 19 160 C17.33333333 160.66666667 15.66666667 161.33333333 14 162 C13.67 162.66 13.34 163.32 13 164 C11.68 164 10.36 164 9 164 C9 164.66 9 165.32 9 166 C6.36 166.33 3.72 166.66 1 167 C1 167.66 1 168.32 1 169 C-6.17705223 170.13612469 -13.18500346 170.2209755 -20.4375 170.25 C-22.36432617 170.2809375 -22.36432617 170.2809375 -24.33007812 170.3125 C-31.34940415 170.34143076 -36.66025193 170.05272652 -43 167 C-43.65685791 166.69239746 -44.31371582 166.38479492 -44.99047852 166.06787109 C-47.032613 165.09886304 -49.04829592 164.08816163 -51.0625 163.0625 C-51.73087891 162.72798828 -52.39925781 162.39347656 -53.08789062 162.04882812 C-68.57704969 154.23651175 -68.57704969 154.23651175 -72 148 C-72 144.125 -72 144.125 -71 141 C-70.34 140.67 -69.68 140.34 -69 140 C-68.85691406 139.38511719 -68.71382812 138.77023437 -68.56640625 138.13671875 C-67.52565754 134.21058394 -64.33972064 132.08173791 -61 130 C-58.06764557 129.02433545 -56.17457109 128.94709048 -53 129 C-51.1875 130.375 -51.1875 130.375 -50 132 C-49.01 132.33 -48.02 132.66 -47 133 C-46.505 133.99 -46.505 133.99 -46 135 C-45.01 135.33 -44.02 135.66 -43 136 C-42.505 136.99 -42.505 136.99 -42 138 C-39.97536745 138.65213292 -39.97536745 138.65213292 -38 139 C-38 139.66 -38 140.32 -38 141 C-36.68 141 -35.36 141 -34 141 C-34 141.66 -34 142.32 -34 143 C-28.84576232 144.03418361 -23.85977775 144.21707687 -18.625 144.25 C-17.81289062 144.270625 -17.00078125 144.29125 -16.1640625 144.3125 C-10.44148134 144.34918321 -6.20639613 143.42103296 -1 141 C-0.67 140.34 -0.34 139.68 0 139 C0.66 138.690625 1.32 138.38125 2 138.0625 C4.34608221 137.1108154 4.34608221 137.1108154 5 134 C5.66 133.67 6.32 133.34 7 133 C7.65555119 130.47266765 7.65555119 130.47266765 8 128 C8.66 128 9.32 128 10 128 C10 123.05 10 118.1 10 113 C9.34 113 8.68 113 8 113 C7.5978125 111.8553125 7.5978125 111.8553125 7.1875 110.6875 C6.0282639 108.06396566 5.24744354 106.72880272 3 105 C0.89667109 104.28552357 0.89667109 104.28552357 -1 104 C-1 103.34 -1 102.68 -1 102 C-2.32 102 -3.64 102 -5 102 C-5 101.34 -5 100.68 -5 100 C-9.62 99.01 -14.24 98.02 -19 97 C-19 96.34 -19 95.68 -19 95 C-23.98283716 93.85948394 -28.94468132 92.77774134 -34 92 C-34 91.34 -34 90.68 -34 90 C-34.60328125 89.90203125 -35.2065625 89.8040625 -35.828125 89.703125 C-40.86476831 88.76078528 -43.62455757 88.02875386 -47 84 C-48.31765641 82.79512838 -49.65277439 81.60921549 -51 80.4375 C-51.66 79.85871094 -52.32 79.27992187 -53 78.68359375 C-54.9615013 76.96915842 -54.9615013 76.96915842 -57.11328125 75.58984375 C-59.4382909 73.63067412 -60.13215645 71.95935125 -61.1875 69.125 C-61.51105469 68.28195312 -61.83460937 67.43890625 -62.16796875 66.5703125 C-64.15472879 60.43280967 -64.34160209 54.33479096 -64.625 47.9375 C-64.6765625 46.94427734 -64.728125 45.95105469 -64.78125 44.92773438 C-64.82507812 43.97060547 -64.86890625 43.01347656 -64.9140625 42.02734375 C-64.9548291 41.15843506 -64.9955957 40.28952637 -65.03759766 39.39428711 C-65.00137462 37.08753845 -64.66006223 35.20180178 -64 33 C-63.34 33 -62.68 33 -62 33 C-61.87625 32.29875 -61.7525 31.5975 -61.625 30.875 C-60.26415467 24.6151115 -58.72933773 21.40688289 -54 17 C-52.99081905 15.77835991 -51.99111634 14.54884101 -51 13.3125 C-48.58108451 10.42480243 -46.64542998 9.14570657 -43 8 C-42.67 7.34 -42.34 6.68 -42 6 C-40.68 6 -39.36 6 -38 6 C-38 5.34 -38 4.68 -38 4 C-36.35 4 -34.7 4 -33 4 C-33 3.34 -33 2.68 -33 2 C-26.56414246 1.09149816 -20.17933688 0.70097442 -13.6875 0.4375 C-12.69943359 0.39431641 -11.71136719 0.35113281 -10.69335938 0.30664062 C-3.54327877 0 -3.54327877 0 0 0 Z " fill="#343332" transform="translate(1839,1394)"/>
<path d="M0 0 C42.9 0 85.8 0 130 0 C130 7.92 130 15.84 130 24 C113.5 24 97 24 80 24 C80.01546875 31.73824219 80.01546875 31.73824219 80.03125 39.6328125 C80.04847751 63.87541915 79.78918308 88.11512477 79.53643799 112.35614014 C79.47470113 118.31814169 79.41519519 124.28016553 79.35546875 130.2421875 C79.23909034 141.82814735 79.12014746 153.41407862 79 165 C70.09 165 61.18 165 52 165 C51.86754006 152.22677538 51.73680884 139.45353593 51.60884857 126.68026543 C51.54932193 120.74451504 51.489134 114.80877315 51.42724609 108.87304688 C51.13277626 80.58013021 50.94343894 52.29466843 51 24 C33.84 24 16.68 24 -1 24 C-0.67 16.08 -0.34 8.16 0 0 Z " fill="#343332" transform="translate(1623,1397)"/>
<path d="M0 0 C42.57 0 85.14 0 129 0 C129 7.92 129 15.84 129 24 C112.5 24 96 24 79 24 C79.01546875 31.73824219 79.01546875 31.73824219 79.03125 39.6328125 C79.04847751 63.87541915 78.78918308 88.11512477 78.53643799 112.35614014 C78.47470113 118.31814169 78.41519519 124.28016553 78.35546875 130.2421875 C78.23909034 141.82814735 78.12014746 153.41407862 78 165 C69.09 165 60.18 165 51 165 C50.86754006 152.22677538 50.73680884 139.45353593 50.60884857 126.68026543 C50.54932193 120.74451504 50.489134 114.80877315 50.42724609 108.87304688 C50.13277626 80.58013021 49.94343894 52.29466843 50 24 C33.5 24 17 24 0 24 C0 16.08 0 8.16 0 0 Z " fill="#343332" transform="translate(1181,1397)"/>
<path d="M0 0 C9.24 0 18.48 0 28 0 C28 54.78 28 109.56 28 166 C18.76 165.67 9.52 165.34 0 165 C0 110.55 0 56.1 0 0 Z " fill="#343332" transform="translate(1122,1397)"/>
<path d="M0 0 C0.99 0 1.98 0 3 0 C3 0.99 3 1.98 3 3 C2.01 3 1.02 3 0 3 C0 2.01 0 1.02 0 0 Z " fill="#343332" transform="translate(991,1067)"/>
<path d="M0 0 C0.99 0 1.98 0 3 0 C3 0.99 3 1.98 3 3 C2.01 3 1.02 3 0 3 C0 2.01 0 1.02 0 0 Z " fill="#343332" transform="translate(654,1067)"/>
<path d="M0 0 C0.99 0 1.98 0 3 0 C3 0.99 3 1.98 3 3 C2.01 3 1.02 3 0 3 C0 2.01 0 1.02 0 0 Z " fill="#343332" transform="translate(1296,1046)"/>
<path d="M0 0 C0.99 0 1.98 0 3 0 C3 0.99 3 1.98 3 3 C2.01 3 1.02 3 0 3 C0 2.01 0 1.02 0 0 Z " fill="#343332" transform="translate(1363,1040)"/>
<path d="M0 0 C0.99 0 1.98 0 3 0 C3 0.99 3 1.98 3 3 C2.01 3 1.02 3 0 3 C0 2.01 0 1.02 0 0 Z " fill="#343332" transform="translate(656,1033)"/>
<path d="M0 0 C0.99 0 1.98 0 3 0 C3 0.99 3 1.98 3 3 C2.01 3 1.02 3 0 3 C0 2.01 0 1.02 0 0 Z " fill="#343332" transform="translate(980,1015)"/>
<path d="M0 0 C0.99 0 1.98 0 3 0 C3 0.99 3 1.98 3 3 C2.01 3 1.02 3 0 3 C0 2.01 0 1.02 0 0 Z " fill="#343332" transform="translate(1282,1011)"/>
<path d="M0 0 C0.99 0 1.98 0 3 0 C3 0.99 3 1.98 3 3 C2.01 3 1.02 3 0 3 C0 2.01 0 1.02 0 0 Z " fill="#343332" transform="translate(1155,986)"/>
<path d="M0 0 C0.99 0 1.98 0 3 0 C3 0.99 3 1.98 3 3 C2.01 3 1.02 3 0 3 C0 2.01 0 1.02 0 0 Z " fill="#343332" transform="translate(1333,969)"/>
<path d="M0 0 C0.99 0 1.98 0 3 0 C3 0.99 3 1.98 3 3 C2.01 3 1.02 3 0 3 C0 2.01 0 1.02 0 0 Z " fill="#343332" transform="translate(704,912)"/>
<path d="M0 0 C0.99 0 1.98 0 3 0 C3 0.99 3 1.98 3 3 C2.01 3 1.02 3 0 3 C0 2.01 0 1.02 0 0 Z " fill="#343332" transform="translate(1050,899)"/>
<path d="M0 0 C0.99 0 1.98 0 3 0 C3 0.99 3 1.98 3 3 C2.01 3 1.02 3 0 3 C0 2.01 0 1.02 0 0 Z " fill="#343332" transform="translate(1109,871)"/>
<path d="M0 0 C0.99 0 1.98 0 3 0 C3 0.99 3 1.98 3 3 C2.01 3 1.02 3 0 3 C0 2.01 0 1.02 0 0 Z " fill="#343332" transform="translate(727,857)"/>
<path d="M0 0 C0.99 0 1.98 0 3 0 C3 0.99 3 1.98 3 3 C2.01 3 1.02 3 0 3 C0 2.01 0 1.02 0 0 Z " fill="#343332" transform="translate(647,810)"/>
<path d="M0 0 C0.99 0 1.98 0 3 0 C3 0.99 3 1.98 3 3 C2.01 3 1.02 3 0 3 C0 2.01 0 1.02 0 0 Z " fill="#343332" transform="translate(1186,771)"/>
<path d="M0 0 C0.99 0 1.98 0 3 0 C3 0.99 3 1.98 3 3 C2.01 3 1.02 3 0 3 C0 2.01 0 1.02 0 0 Z " fill="#343332" transform="translate(1251,762)"/>
<path d="M0 0 C0.99 0 1.98 0 3 0 C3 0.99 3 1.98 3 3 C2.01 3 1.02 3 0 3 C0 2.01 0 1.02 0 0 Z " fill="#343332" transform="translate(1059,746)"/>
<path d="M0 0 C0.99 0 1.98 0 3 0 C3 0.99 3 1.98 3 3 C2.01 3 1.02 3 0 3 C0 2.01 0 1.02 0 0 Z " fill="#343332" transform="translate(1170,733)"/>
<path d="M0 0 C0.99 0 1.98 0 3 0 C3 0.99 3 1.98 3 3 C2.01 3 1.02 3 0 3 C0 2.01 0 1.02 0 0 Z " fill="#343332" transform="translate(1235,722)"/>
<path d="M0 0 C0.99 0 1.98 0 3 0 C3 0.99 3 1.98 3 3 C2.01 3 1.02 3 0 3 C0 2.01 0 1.02 0 0 Z " fill="#343332" transform="translate(1219,682)"/>
<path d="M0 0 C0.99 0 1.98 0 3 0 C3 0.99 3 1.98 3 3 C2.01 3 1.02 3 0 3 C0 2.01 0 1.02 0 0 Z " fill="#343332" transform="translate(1203,642)"/>
<path d="M0 0 C0.99 0 1.98 0 3 0 C3 0.99 3 1.98 3 3 C2.01 3 1.02 3 0 3 C0 2.01 0 1.02 0 0 Z " fill="#343332" transform="translate(1187,602)"/>
<path d="M0 0 C0.99 0 1.98 0 3 0 C3 0.99 3 1.98 3 3 C2.01 3 1.02 3 0 3 C0 2.01 0 1.02 0 0 Z " fill="#343332" transform="translate(833,594)"/>
<path d="M0 0 C0.99 0 1.98 0 3 0 C3 0.99 3 1.98 3 3 C2.01 3 1.02 3 0 3 C0 2.01 0 1.02 0 0 Z " fill="#343332" transform="translate(842,570)"/>
<path d="M0 0 C0.99 0 1.98 0 3 0 C3 0.99 3 1.98 3 3 C2.01 3 1.02 3 0 3 C0 2.01 0 1.02 0 0 Z " fill="#343332" transform="translate(1171,562)"/>
<path d="M0 0 C0.99 0 1.98 0 3 0 C3 0.99 3 1.98 3 3 C2.01 3 1.02 3 0 3 C0 2.01 0 1.02 0 0 Z " fill="#343332" transform="translate(847,559)"/>
<path d="M0 0 C0.99 0 1.98 0 3 0 C3 0.99 3 1.98 3 3 C2.01 3 1.02 3 0 3 C0 2.01 0 1.02 0 0 Z " fill="#343332" transform="translate(965,511)"/>
<path d="M0 0 C0.99 0 1.98 0 3 0 C3 0.99 3 1.98 3 3 C2.01 3 1.02 3 0 3 C0 2.01 0 1.02 0 0 Z " fill="#343332" transform="translate(874,487)"/>
<path d="M0 0 C0.99 0 1.98 0 3 0 C3 0.99 3 1.98 3 3 C2.01 3 1.02 3 0 3 C0 2.01 0 1.02 0 0 Z " fill="#343332" transform="translate(1064,470)"/>
<path d="M0 0 C0.99 0 1.98 0 3 0 C3 0.99 3 1.98 3 3 C2.01 3 1.02 3 0 3 C0 2.01 0 1.02 0 0 Z " fill="#343332" transform="translate(1056,447)"/>
<path d="" fill="#343332" transform="translate(0,0)"/>
<path d="M0 0 C2 1 2 1 2 1 Z " fill="#343332" transform="translate(977,709)"/>
<path d="M0 0 C2 1 2 1 2 1 Z " fill="#343332" transform="translate(877,654)"/>
<path d="" fill="#343332" transform="translate(0,0)"/>
<path d="" fill="#343332" transform="translate(0,0)"/>
<path d="" fill="#343332" transform="translate(0,0)"/>
<path d="" fill="#343332" transform="translate(0,0)"/>
<path d="" fill="#343332" transform="translate(0,0)"/>
<path d="" fill="#343332" transform="translate(0,0)"/>
<path d="" fill="#343332" transform="translate(0,0)"/>
<path d="" fill="#343332" transform="translate(0,0)"/>
<path d="" fill="#343332" transform="translate(0,0)"/>
<path d="" fill="#343332" transform="translate(0,0)"/>
<path d="" fill="#343332" transform="translate(0,0)"/>
<path d="" fill="#343332" transform="translate(0,0)"/>
<path d="" fill="#343332" transform="translate(0,0)"/>
<path d="" fill="#343332" transform="translate(0,0)"/>
<path d="" fill="#343332" transform="translate(0,0)"/>
<path d="" fill="#343332" transform="translate(0,0)"/>
<path d="" fill="#343332" transform="translate(0,0)"/>
<path d="" fill="#343332" transform="translate(0,0)"/>
<path d="" fill="#343332" transform="translate(0,0)"/>
<path d="" fill="#343332" transform="translate(0,0)"/>
<path d="" fill="#343332" transform="translate(0,0)"/>
<path d="" fill="#343332" transform="translate(0,0)"/>
<path d="" fill="#343332" transform="translate(0,0)"/>
</svg>
